<svg width="304" height="280" fill="none" xmlns="http://www.w3.org/2000/svg"><path fill-rule="evenodd" clip-rule="evenodd" d="M298.921 158.297c-.173.785-.312 1.699-.463 2.764a55.644 55.644 0 0 0-.523 3.671c-.247 2.79-.695 6.264-1.125 10.665.081-2.641-.61-1.344-.573-3.256-.358 3.432-1.201 7.186-2.201 10.419-.57 1.712-1.108 3.282-1.632 4.605 2.868-10.304 4.284-21.483 4.026-33.52-.638-29.699-6.058-55.321-16.239-76.519a161.178 161.178 0 0 1 5.149 10.093c1.489.15-3.906-12.55.142-5.649 1.718 3.434.986 3.378 1.055 4.189l2.285 5.244 2.039 5.347a64.883 64.883 0 0 1-1.317 3.824c1.437 9.323 3.542 16.411 5.678 24.382 2.099 7.941 4.218 16.789 4.15 29.026.218.661.425 1.144.622 1.49-.379.726-.754 1.741-1.073 3.225zm-23.022-89.356a121.726 121.726 0 0 0-5.879-9.291c.908 1.006 1.82 2.053 2.638 3.246 1.275 1.787 2.587 3.737 3.552 6.153.042.194-.096.102-.311-.108zM200.84 12.465c.474-.642.759-1.317 3.643-1.012 1.253.477 2.855.963 4.448 1.674 1.603.68 3.255 1.396 4.696 2.06 2.862 1.385 4.829 2.668 4.004 2.8l1.942 1.073c-5.906-2.549-12.149-4.751-18.733-6.595zM90.278 15.93c-.922.41-1.812.85-2.694 1.268-1.751.863-3.472 1.63-5.04 2.546l-4.547 2.564-1.257.8c-14.707 7.807-27.833 17.886-38.765 29.606 7.104-8.127 15.34-15.678 24.605-22.04l3.54-2.417L69.774 26l1.835-1.128 1.885-1.046 3.784-2.078c5.14-2.6 10.392-5.044 15.84-6.985l-2.84 1.167zm.143 250.899a131.059 131.059 0 0 0-4.447-.837c-1.308-.233-2.394-.481-3.226-.557-2.088-1.138-2.71-1.771-2.615-2.146a144.027 144.027 0 0 0 10.426 3.57c-.044-.011-.094-.019-.138-.03zM301.97 162.127c-.159-1.997-.456-4.235-.654-6.956.321-.602.602-1.651.852-2.937.643-3.412 1.137-8.434 1.624-10.886l-.547 2.448c-.327-1.514-.745-2.618-1.071-4.122-.33-1.504-.529-3.405-.632-6.527-.15-6.287 1.369 3.265 1.526-1.107-.159-5.011-.775-8.956-1.291-12.314-.672-3.346-1.353-6.106-2.146-8.745-1.696-5.262-3.412-10.104-6.243-18.234l-.691-2.779c-.25-.91-.548-1.795-.827-2.675-.577-1.755-1.125-3.477-1.767-5.132-1.359-3.283-2.686-6.433-4.33-9.349-1.515-2.972-3.32-5.704-5.089-8.394-.874-1.351-1.9-2.606-2.849-3.895-.972-1.274-1.91-2.565-2.988-3.766-8.317-9.819-18.029-18.662-31.527-28.4 4.613 3.612 8.99 7.812 13.513 12.633 4.551 4.8 9.032 10.465 13.694 17.196l-2.229-2.568c-.758-.84-1.573-1.635-2.353-2.45l-2.36-2.424c-.751-.72-1.529-1.413-2.291-2.115-7.137-7.952-15.362-14.849-24.667-20.66 1.535.8 3.016 1.578 4.348 2.398l3.119 1.814c.966.58 1.808 1.193 2.589 1.724-1.789-2.11-4.534-4.418-7.346-6.801l-4.349-3.339c-1.417-1.09-2.846-2.004-4.077-2.922-2.459-1.849-4.402-3.171-4.898-4.016-.501-.83.403-1.105 3.541-.487-3.521-1.822-6.332-3.263-8.822-4.165-2.468-.96-4.501-1.697-6.455-2.16-1.945-.496-3.745-.94-5.734-1.35a207.093 207.093 0 0 1-6.816-1.349c-1.298-.418-2.874-.823-4.511-1.248-1.64-.417-3.341-.872-4.933-1.188-3.175-.689-5.821-1.393-6.361-2.012-5.027-.242-7.314-.38-10.238-.636-1.458-.153-3.069-.395-5.251-.785L161.729.07c-5.206-.152-10.272-.076-13.228.374-2.932.38-3.634.835-.119 1.232l3.618.008 3.582.148c2.385.13 4.776.142 7.16.372l7.155.581 7.139.838c3.304.998 4.087 1.658 3.506 1.999-.589.378-2.538.396-4.788.544-2.247.11-4.773.159-6.499.285-.278.028-.526.06-.758.092a239.086 239.086 0 0 0-16.477-1.036 150.999 150.999 0 0 0-44.764 5.437 190.311 190.311 0 0 1 10.49-3.582c-6.558 1.359-13.085 2.96-19.413 5.184 1.463-1.317 4.527-3.384 5.334-4.45.794-1.099-.818-1.584-8.776.681C82.684 14.4 71.73 21.104 61.421 28.735c-1.302.934-2.597 1.88-3.85 2.89l-3.821 2.957c-2.473 2.078-5.044 4.06-7.488 6.246-2.528 2.09-4.922 4.37-7.448 6.585-2.407 2.333-4.95 4.605-7.37 7.086C19.252 68.438 9.41 85.174 4.316 103.862c-.603 2.34-1.276 4.666-1.702 7.061l-.716 3.574c-.21 1.198-.356 2.409-.534 3.616-.158 1.209-.367 2.412-.477 3.63l-.298 3.66c-.246 2.454-.244 4.858-.337 7.289-.217 9.709.351 19.541 1.882 29.33.337-3.368.729-1.216 1.03.211.176.713.316 1.25.37.842.035-.405.04-1.763.007-4.828l1.035 4.275c.112.434.217.885.325 1.328.659 4.976 1.538 9.9 2.668 14.747-3.03-6.253-2.395-2.091-1.355 3.603.654 2.911 1.392 6.188 1.92 8.543.495 2.365.547 3.881-.443 3.282.757 2.248 1.59 4.151 2.178 5.907.307.872.578 1.701.832 2.487.288.774.547 1.511.783 2.219a70.792 70.792 0 0 1 1.196 3.977l1.104 3.623c.369 1.2.721 2.43 1.172 3.721a79.67 79.67 0 0 0 1.724 4.113c.343.744.696 1.533 1.12 2.345.447.798.934 1.636 1.469 2.523.534.886 1.115 1.82 1.75 2.809.625.996 1.42 1.966 2.218 3.036 4.576 4.482 3.166 1.437.263-3.36-2.776-4.913-6.57-11.946-7.762-15.32.51.829.996 1.894 1.615 3.003l1.904 3.537c-1.795-4.019-2.843-8.169-3.325-11.171-.192-1.735-.189-3.096.02-3.953 5.086 11.217 11.84 21.646 20.476 30.87-.885 1.166-1.362 2.448 2.201 6.002.398 1.146 2.004 2.733 4.082 4.67 1.023.987 2.264 1.94 3.58 2.915 1.32.969 2.668 2.021 4.085 2.973 5.679 3.811 11.653 7.017 13.117 8.876 1.273.567 2.517 1.14 3.736 1.719 1.216.586 2.408 1.172 3.623 1.66 2.415 1.002 4.691 2.14 6.968 3.052l6.596 2.694c2.162.758 4.244 1.49 6.243 2.192 1.994.742 3.968 1.213 5.844 1.708 1.882.461 3.677.927 5.413 1.176 3.483.448 6.635.629 9.452.127l7.792 2.61c2.622.81 5.272 1.51 7.937 2.271.814.122 1.612.239 2.393.355.784.092 1.554.145 2.308.209a134.925 134.925 0 0 0 8.462.399c1.319-.033 2.6-.084 3.849-.147 2.5-.13 4.878-.297 7.208-.504l6.927-.833c4.087-1.354-10.035-1.475.904-3.427 1.986-.278 4.672-.578 7.341-.833 2.665-.31 5.324-.464 7.279-.368 1.128.626-3.977 1.637-5.121 1.957 10.482-1.333 19.375-2.2 27.781-3.143 8.395-.943 16.292-2.038 24.377-4.248 10.33-4.075 22.398-9.905 32.519-16.855 2.477-1.811 4.951-3.499 7.131-5.381 1.106-.921 2.2-1.801 3.222-2.712.993-.943 1.959-1.86 2.891-2.747 3.679-3.6 6.487-7.069 8.202-9.916-1.497 1.587-2.97 3.194-4.584 4.656-1.579 1.497-3.14 3.009-4.825 4.377 6.882-6.571 6.102-7.447 5.794-8.248-.17-.418-.273-.87.564-2.15.417-.641 1.073-1.484 2.065-2.644.931-1.212 2.188-2.749 3.878-4.728 4.967-6.002 6.313-7.552 6.947-7.337.6.18.255 1.979 1.114 1.9.605-.946 1.241-1.981 1.899-3.08.619-1.12 1.209-2.331 1.834-3.564 1.305-2.44 2.346-5.175 3.472-7.795.57-1.308.977-2.664 1.468-3.942.453-1.292.971-2.518 1.354-3.717.763-2.4 1.56-4.509 2.246-6.16-1.325 4.935-.431 3.154.696.684.962-2.505 2.057-5.722 1.492-3.359l.828-2.881c.233-.914.385-1.788.551-2.613a85.67 85.67 0 0 0 .743-4.485c.238-2.722.249-4.94.211-7.068-.121-2.131-.37-4.179-.547-6.562z" fill="#FFF0E1"/><mask id="a" mask-type="alpha" maskUnits="userSpaceOnUse" x="0" y="0" width="304" height="280"><path fill-rule="evenodd" clip-rule="evenodd" d="M298.921 158.297c-.173.785-.312 1.699-.463 2.764a55.644 55.644 0 0 0-.523 3.671c-.247 2.79-.695 6.264-1.125 10.665.081-2.641-.61-1.344-.573-3.256-.358 3.432-1.201 7.186-2.201 10.419-.57 1.712-1.108 3.282-1.632 4.605 2.868-10.304 4.284-21.483 4.026-33.52-.638-29.699-6.058-55.321-16.239-76.519a161.178 161.178 0 0 1 5.149 10.093c1.489.15-3.906-12.55.142-5.649 1.718 3.434.986 3.378 1.055 4.189l2.285 5.244 2.039 5.347a64.883 64.883 0 0 1-1.317 3.824c1.437 9.323 3.542 16.411 5.678 24.382 2.099 7.941 4.218 16.789 4.15 29.026.218.661.425 1.144.622 1.49-.379.726-.754 1.741-1.073 3.225zm-23.022-89.356a121.726 121.726 0 0 0-5.879-9.291c.908 1.006 1.82 2.053 2.638 3.246 1.275 1.787 2.587 3.737 3.552 6.153.042.194-.096.102-.311-.108zM200.84 12.465c.474-.642.759-1.317 3.643-1.012 1.253.477 2.855.963 4.448 1.674 1.603.68 3.255 1.396 4.696 2.06 2.862 1.385 4.829 2.668 4.004 2.8l1.942 1.073c-5.906-2.549-12.149-4.751-18.733-6.595zM90.278 15.93c-.922.41-1.812.85-2.694 1.268-1.751.863-3.472 1.63-5.04 2.546l-4.547 2.564-1.257.8c-14.707 7.807-27.833 17.886-38.765 29.606 7.104-8.127 15.34-15.678 24.605-22.04l3.54-2.417L69.774 26l1.835-1.128 1.885-1.046 3.784-2.078c5.14-2.6 10.392-5.044 15.84-6.985l-2.84 1.167zm.143 250.899a131.059 131.059 0 0 0-4.447-.837c-1.308-.233-2.394-.481-3.226-.557-2.088-1.138-2.71-1.771-2.615-2.146a144.027 144.027 0 0 0 10.426 3.57c-.044-.011-.094-.019-.138-.03zM301.97 162.127c-.159-1.997-.456-4.235-.654-6.956.321-.602.602-1.651.852-2.937.643-3.412 1.137-8.434 1.624-10.886l-.547 2.448c-.327-1.514-.745-2.618-1.071-4.122-.33-1.504-.529-3.405-.632-6.527-.15-6.287 1.369 3.265 1.526-1.107-.159-5.011-.775-8.956-1.291-12.314-.672-3.346-1.353-6.106-2.146-8.745-1.696-5.262-3.412-10.104-6.243-18.234l-.691-2.779c-.25-.91-.548-1.795-.827-2.675-.577-1.755-1.125-3.477-1.767-5.132-1.359-3.283-2.686-6.433-4.33-9.349-1.515-2.972-3.32-5.704-5.089-8.394-.874-1.351-1.9-2.606-2.849-3.895-.972-1.274-1.91-2.565-2.988-3.766-8.317-9.819-18.029-18.662-31.527-28.4 4.613 3.612 8.99 7.812 13.513 12.633 4.551 4.8 9.032 10.465 13.694 17.196l-2.229-2.568c-.758-.84-1.573-1.635-2.353-2.45l-2.36-2.424c-.751-.72-1.529-1.413-2.291-2.115-7.137-7.952-15.362-14.849-24.667-20.66 1.535.8 3.016 1.578 4.348 2.398l3.119 1.814c.966.58 1.808 1.193 2.589 1.724-1.789-2.11-4.534-4.418-7.346-6.801l-4.349-3.339c-1.417-1.09-2.846-2.004-4.077-2.922-2.459-1.849-4.402-3.171-4.898-4.016-.501-.83.403-1.105 3.541-.487-3.521-1.822-6.332-3.263-8.822-4.165-2.468-.96-4.501-1.697-6.455-2.16-1.945-.496-3.745-.94-5.734-1.35a207.093 207.093 0 0 1-6.816-1.349c-1.298-.418-2.874-.823-4.511-1.248-1.64-.417-3.341-.872-4.933-1.188-3.175-.689-5.821-1.393-6.361-2.012-5.027-.242-7.314-.38-10.238-.636-1.458-.153-3.069-.395-5.251-.785L161.729.07c-5.206-.152-10.272-.076-13.228.374-2.932.38-3.634.835-.119 1.232l3.618.008 3.582.148c2.385.13 4.776.142 7.16.372l7.155.581 7.139.838c3.304.998 4.087 1.658 3.506 1.999-.589.378-2.538.396-4.788.544-2.247.11-4.773.159-6.499.285-.278.028-.526.06-.758.092a239.086 239.086 0 0 0-16.477-1.036 150.999 150.999 0 0 0-44.764 5.437 190.311 190.311 0 0 1 10.49-3.582c-6.558 1.359-13.085 2.96-19.413 5.184 1.463-1.317 4.527-3.384 5.334-4.45.794-1.099-.818-1.584-8.776.681C82.684 14.4 71.73 21.104 61.421 28.735c-1.302.934-2.597 1.88-3.85 2.89l-3.821 2.957c-2.473 2.078-5.044 4.06-7.488 6.246-2.528 2.09-4.922 4.37-7.448 6.585-2.407 2.333-4.95 4.605-7.37 7.086C19.252 68.438 9.41 85.174 4.316 103.862c-.603 2.34-1.276 4.666-1.702 7.061l-.716 3.574c-.21 1.198-.356 2.409-.534 3.616-.158 1.209-.367 2.412-.477 3.63l-.298 3.66c-.246 2.454-.244 4.858-.337 7.289-.217 9.709.351 19.541 1.882 29.33.337-3.368.729-1.216 1.03.211.176.713.316 1.25.37.842.035-.405.04-1.763.007-4.828l1.035 4.275c.112.434.217.885.325 1.328.659 4.976 1.538 9.9 2.668 14.747-3.03-6.253-2.395-2.091-1.355 3.603.654 2.911 1.392 6.188 1.92 8.543.495 2.365.547 3.881-.443 3.282.757 2.248 1.59 4.151 2.178 5.907.307.872.578 1.701.832 2.487.288.774.547 1.511.783 2.219a70.792 70.792 0 0 1 1.196 3.977l1.104 3.623c.369 1.2.721 2.43 1.172 3.721a79.67 79.67 0 0 0 1.724 4.113c.343.744.696 1.533 1.12 2.345.447.798.934 1.636 1.469 2.523.534.886 1.115 1.82 1.75 2.809.625.996 1.42 1.966 2.218 3.036 4.576 4.482 3.166 1.437.263-3.36-2.776-4.913-6.57-11.946-7.762-15.32.51.829.996 1.894 1.615 3.003l1.904 3.537c-1.795-4.019-2.843-8.169-3.325-11.171-.192-1.735-.189-3.096.02-3.953 5.086 11.217 11.84 21.646 20.476 30.87-.885 1.166-1.362 2.448 2.201 6.002.398 1.146 2.004 2.733 4.082 4.67 1.023.987 2.264 1.94 3.58 2.915 1.32.969 2.668 2.021 4.085 2.973 5.679 3.811 11.653 7.017 13.117 8.876 1.273.567 2.517 1.14 3.736 1.719 1.216.586 2.408 1.172 3.623 1.66 2.415 1.002 4.691 2.14 6.968 3.052l6.596 2.694c2.162.758 4.244 1.49 6.243 2.192 1.994.742 3.968 1.213 5.844 1.708 1.882.461 3.677.927 5.413 1.176 3.483.448 6.635.629 9.452.127l7.792 2.61c2.622.81 5.272 1.51 7.937 2.271.814.122 1.612.239 2.393.355.784.092 1.554.145 2.308.209a134.925 134.925 0 0 0 8.462.399c1.319-.033 2.6-.084 3.849-.147 2.5-.13 4.878-.297 7.208-.504l6.927-.833c4.087-1.354-10.035-1.475.904-3.427 1.986-.278 4.672-.578 7.341-.833 2.665-.31 5.324-.464 7.279-.368 1.128.626-3.977 1.637-5.121 1.957 10.482-1.333 19.375-2.2 27.781-3.143 8.395-.943 16.292-2.038 24.377-4.248 10.33-4.075 22.398-9.905 32.519-16.855 2.477-1.811 4.951-3.499 7.131-5.381 1.106-.921 2.2-1.801 3.222-2.712.993-.943 1.959-1.86 2.891-2.747 3.679-3.6 6.487-7.069 8.202-9.916-1.497 1.587-2.97 3.194-4.584 4.656-1.579 1.497-3.14 3.009-4.825 4.377 6.882-6.571 6.102-7.447 5.794-8.248-.17-.418-.273-.87.564-2.15.417-.641 1.073-1.484 2.065-2.644.931-1.212 2.188-2.749 3.878-4.728 4.967-6.002 6.313-7.552 6.947-7.337.6.18.255 1.979 1.114 1.9.605-.946 1.241-1.981 1.899-3.08.619-1.12 1.209-2.331 1.834-3.564 1.305-2.44 2.346-5.175 3.472-7.795.57-1.308.977-2.664 1.468-3.942.453-1.292.971-2.518 1.354-3.717.763-2.4 1.56-4.509 2.246-6.16-1.325 4.935-.431 3.154.696.684.962-2.505 2.057-5.722 1.492-3.359l.828-2.881c.233-.914.385-1.788.551-2.613a85.67 85.67 0 0 0 .743-4.485c.238-2.722.249-4.94.211-7.068-.121-2.131-.37-4.179-.547-6.562z" fill="#fff"/></mask><g mask="url(#a)"><rect x="-32.463" y="-51.378" width="381.689" height="380.808" rx="80" fill="#FFF0E1"/></g><path fill-rule="evenodd" clip-rule="evenodd" d="M119.654 119.436h-.024l-7.131-.286a.602.602 0 0 1 .047-1.203l7.131.285a.603.603 0 0 1-.023 1.204zM107.68 100.541a.6.6 0 0 1-.475-.971l3.993-5.132a.602.602 0 0 1 .952.74l-3.995 5.131a.6.6 0 0 1-.475.232zM111.472 110.848a.602.602 0 0 1-.244-1.152l7.702-3.421a.602.602 0 1 1 .488 1.1l-7.701 3.422a.622.622 0 0 1-.245.051zM221.967 111.762a1.57 1.57 0 1 0 0 3.138 1.57 1.57 0 0 0 0-3.138zm0 4.343a2.776 2.776 0 0 1-2.774-2.773 2.776 2.776 0 0 1 2.774-2.773 2.777 2.777 0 0 1 2.774 2.773 2.776 2.776 0 0 1-2.774 2.773zM64.407 44.624a1.57 1.57 0 0 0 0 3.14c.866 0 1.57-.706 1.57-1.571s-.704-1.57-1.57-1.57zm0 4.342a2.776 2.776 0 0 1-2.773-2.773 2.777 2.777 0 0 1 2.773-2.773 2.776 2.776 0 0 1 2.774 2.773 2.776 2.776 0 0 1-2.774 2.773zM228.463 58.834c-.866 0-1.571.704-1.571 1.569a1.571 1.571 0 0 0 3.141 0c0-.865-.705-1.57-1.57-1.57zm0 4.341a2.776 2.776 0 0 1-2.774-2.772 2.776 2.776 0 0 1 2.774-2.774 2.776 2.776 0 0 1 2.774 2.774 2.775 2.775 0 0 1-2.774 2.773zM122.123 22.5a2.992 2.992 0 0 0-2.99 2.989 2.992 2.992 0 0 0 2.99 2.988 2.992 2.992 0 0 0 2.989-2.988 2.992 2.992 0 0 0-2.989-2.989zm0 7.182a4.198 4.198 0 0 1-4.193-4.193 4.198 4.198 0 0 1 4.193-4.193 4.197 4.197 0 0 1 4.193 4.193 4.197 4.197 0 0 1-4.193 4.193zM206.295 29.433c-1.65 0-2.99 1.34-2.99 2.989a2.992 2.992 0 0 0 2.99 2.988 2.992 2.992 0 0 0 2.989-2.988 2.992 2.992 0 0 0-2.989-2.989zm0 7.18a4.198 4.198 0 0 1-4.194-4.191 4.198 4.198 0 0 1 4.194-4.192 4.196 4.196 0 0 1 4.193 4.192 4.196 4.196 0 0 1-4.193 4.192zM50.64 108.134a1.957 1.957 0 0 0-1.955 1.953c0 1.077.879 1.954 1.955 1.954a1.957 1.957 0 0 0 1.955-1.954 1.956 1.956 0 0 0-1.955-1.953zm0 5.11a3.161 3.161 0 0 1-3.158-3.157 3.16 3.16 0 0 1 3.158-3.157 3.16 3.16 0 0 1 3.158 3.157 3.16 3.16 0 0 1-3.158 3.157zM232.561 141.764a2.992 2.992 0 0 0-2.989 2.988 2.993 2.993 0 0 0 2.989 2.989c1.65 0 2.99-1.341 2.99-2.989a2.992 2.992 0 0 0-2.99-2.988zm.001 7.181a4.196 4.196 0 0 1-4.193-4.193 4.196 4.196 0 0 1 4.193-4.192 4.198 4.198 0 0 1 4.193 4.192 4.197 4.197 0 0 1-4.193 4.193zM263.446 137.692c-1.531 0-3.263-.433-4.871-1.826-1.61-1.394-1.742-3.02-1.871-4.593-.133-1.631-.259-3.171-1.982-4.65-3.214-2.761-8.287 1.361-8.338 1.403a.602.602 0 1 1-.766-.928c.239-.198 5.903-4.81 9.89-1.388 2.098 1.802 2.256 3.747 2.396 5.465.119 1.454.221 2.709 1.46 3.781 3.558 3.081 7.771.642 7.948.537a.6.6 0 0 1 .617 1.034c-.032.019-1.992 1.165-4.483 1.165zM85.6 71.467c-1.486 0-3.167-.42-4.728-1.772-1.565-1.354-1.693-2.933-1.818-4.46-.13-1.574-.249-3.061-1.912-4.488-3.092-2.661-7.997 1.318-8.047 1.359a.6.6 0 1 1-.766-.928c.231-.193 5.735-4.662 9.599-1.344 2.037 1.75 2.191 3.637 2.327 5.303.114 1.404.213 2.615 1.406 3.648 3.431 2.972 7.5.62 7.672.518a.603.603 0 0 1 .618 1.035c-.03.017-1.933 1.128-4.351 1.13zM173.681 36.463a.602.602 0 0 1-.588-.48c-.065-.315-1.553-7.75 3.512-9.747 2.671-1.048 4.534-.253 6.178.45 1.403.6 2.613 1.117 4.209.496 4.585-1.784 4.385-6.862 4.373-7.078a.603.603 0 0 1 .57-.631.61.61 0 0 1 .633.568c.003.06.267 6.16-5.137 8.263-2.059.803-3.616.134-5.122-.511-1.57-.672-3.056-1.306-5.262-.436-4.121 1.624-2.789 8.314-2.776 8.382a.6.6 0 0 1-.59.724zM27.098 149.549a.6.6 0 0 1-.588-.479c-.044-.207-1.015-5.075 2.352-6.402 1.774-.698 3.044-.151 4.066.286.874.374 1.565.668 2.49.309 2.737-1.064 2.623-4.117 2.616-4.246a.603.603 0 0 1 .571-.632c.334-.002.615.238.632.568.075 1.395-.535 4.325-3.383 5.432-1.385.539-2.456.08-3.4-.324-.988-.423-1.841-.787-3.15-.272-2.425.954-1.624 4.996-1.616 5.037a.603.603 0 0 1-.59.723zM249.34 182.099a.603.603 0 0 1-.588-.48c-.043-.206-1.015-5.075 2.351-6.402 1.769-.698 3.043-.152 4.068.286.875.375 1.567.667 2.488.31 2.737-1.064 2.624-4.118 2.618-4.247a.604.604 0 0 1 .571-.632c.354.015.614.238.631.569.075 1.395-.537 4.324-3.382 5.432-1.386.537-2.455.078-3.4-.324-.987-.424-1.842-.789-3.152-.275-2.424.955-1.623 4.999-1.615 5.038a.601.601 0 0 1-.59.725zM68.804 118.422s-28.343 42.186-34.071 59.663c-5.73 17.478-3.016 29.832 1.205 35.859 4.221 6.026 11.76 11.149 28.947 11.451 17.186.301 28.644-3.917 28.644-3.917l-25.026-39.777s6.332-21.394 11.157-33.749c4.824-12.354 6.633-17.176 6.633-17.176s9.37-1.984 12.436-6.04c3.065-4.056 4.39-5.547 4.39-5.547s-.414-2.235-3.065-1.738c-2.651.497-5.053 2.732-6.627 3.147-1.575.412-4.888-2.154-4.888-2.154s-.248-5.877 3.894-7.45c4.142-1.573 6.213-.745 7.621 1.655 1.408 2.401 1.988 3.56 3.23 4.057 1.243.497 1.701-.096 1.701-.096s-.489-2.892-1.069-6.617c-.581-3.725-3.005-4.682-5.746-6.072-2.218-1.124-7.949.757-7.949.757s5.254-12.26 6.622-15.288c1.645-3.64.203-5.508-1.88-4.227-1.526.939-5.757 8.22-7.402 11.038-1.645 2.818-3.995 6.458-3.995 6.458s1.56-8.956 2.62-14.75c.854-4.662.207-5.454-.967-5.572-1.175-.117-2.475 1.652-4.356 6.113-1.312 3.117-3.995 13.857-3.995 13.857s-1.318-5.388-1.292-9.981c.027-4.758-.09-6.654-1.566-6.52-1.251.114-2.43 2.41-3.487 9.925-1.058 7.516-2.027 15.437-1.719 22.691zM233.717 221.889s1.139 13.056 1.139 23.275v13.624l-29.016 6.244-7.965-39.737 35.842-3.406z" fill="#fff"/><path fill-rule="evenodd" clip-rule="evenodd" d="M68.445 181.958s23.97-25.763 40.004-36.947c20.227-14.108 36.948-14.252 48.077-14.252 11.128 0 20.475.89 33.385 7.571 12.909 6.681 24.039 18.261 30.716 27.169 6.676 8.907 34.92 46.308 34.92 46.308s-6.431 11.145-22.456 18.716c-16.026 7.571-25.819 8.462-25.819 8.462l3.117 24.941s-18.697 11.58-59.651 10.244c-40.954-1.336-59.205-10.244-59.205-10.244l4.452-34.294s-24.87-26.295-27.54-47.674z" fill="#6DAEDB"/><mask id="b" mask-type="alpha" maskUnits="userSpaceOnUse" x="68" y="130" width="188" height="145"><path fill-rule="evenodd" clip-rule="evenodd" d="M68.445 181.958s23.97-25.763 40.004-36.947c20.227-14.108 36.948-14.252 48.077-14.252 11.128 0 20.475.89 33.385 7.571 12.909 6.681 24.039 18.261 30.716 27.169 6.676 8.907 34.92 46.308 34.92 46.308s-6.431 11.145-22.456 18.716c-16.026 7.571-25.819 8.462-25.819 8.462l3.117 24.941s-18.697 11.58-59.651 10.244c-40.954-1.336-59.205-10.244-59.205-10.244l4.452-34.294s-24.87-26.295-27.54-47.674z" fill="#fff"/></mask><g mask="url(#b)"><rect x="-28.648" y="-53.421" width="377.286" height="386.531" rx="80" fill="#6DAEDB"/></g><path fill-rule="evenodd" clip-rule="evenodd" d="m137.661 133.384 2.888-1.282.963-23.715 28.242-.961 2.247 23.234 3.851 3.204s-3.531 8.813-20.058 8.813c-14.305 0-15.886-5.608-18.133-9.293zM151.429 81.073l-42.524-18.115c-1.084-.438-1.127-1.955-.069-2.453l41.418-23.044a4.972 4.972 0 0 1 3.979-.113l43.727 20.52c1.085.436 1.128 1.954.069 2.453L155.408 80.96a4.972 4.972 0 0 1-3.979.113z" fill="#fff"/><path fill-rule="evenodd" clip-rule="evenodd" d="M178.005 88.69c-.641.066-1.379.359-2.143.805-.139-4.835-.545-9.83-.545-9.83s-10.613-6.832-22.197-5.909c-11.584.925-16.752 7.612-16.752 7.612l-.705 6.56s.048 1.35.273 3.484c-.7-.345-1.368-.553-1.943-.582-3.101-.158-4.985 2.836-4.814 7.027.157 3.841 3.302 7.138 7.281 7.184 1.024.012 1.628-.256 2.17-.455 2.65 8.18 7.64 15.886 17.019 16.066 13.167.252 17.692-9.477 19.198-16.825.415.102 1.529.188 2.042.102 3.679-.611 7.226-4.39 7.11-8.467-.117-4.078-2.056-7.184-5.994-6.773z" fill="#fff"/><path fill-rule="evenodd" clip-rule="evenodd" d="M177.529 79.563c-.109-3.823-10.405-6.633-22.996-6.274-12.592.357-22.711 3.748-22.602 7.571l-.498-17.44c-.109-3.824 9.803-9.12 22.394-9.48 12.593-.358 23.095 4.359 23.205 8.183l.497 17.44zM212.223 91.224s-11.92-5.949-7.502-11.141c6-7.052 12.889 5.57 12.889 5.57s-4.81 1.922-5.387 5.571z" fill="#fff"/><path fill-rule="evenodd" clip-rule="evenodd" d="M226.401 103.348s-6.098-1.175-9.752-5.209c-3.656-4.033-4.425-6.915-4.425-6.915s-.163-1.963 2.501-4.226c1.341-1.14 2.885-1.345 2.885-1.345s3.755 2.737 8.981 4.475c3.947 1.314 7.264 1.672 7.264 1.672l-7.454 11.548z" fill="#fff"/><path fill-rule="evenodd" clip-rule="evenodd" d="M231.697 98.584c-2.059 3.189-4.431 5.322-5.297 4.764-.866-.558.1-3.595 2.158-6.784 2.058-3.189 4.43-5.321 5.297-4.764.866.558-.1 3.595-2.158 6.784z" fill="#fff"/><mask id="c" mask-type="alpha" maskUnits="userSpaceOnUse" x="30" y="36" width="227" height="229"><path fill-rule="evenodd" clip-rule="evenodd" d="M131.449 48.047c.099 0 .2-.025.292-.076l5.268-2.934a.602.602 0 0 0-.585-1.051l-5.267 2.934a.6.6 0 0 0 .292 1.127zM108.399 63.204l18.984 8.097a.599.599 0 0 0 .789-.317.6.6 0 0 0-.316-.79l-18.995-8.102a.727.727 0 0 1-.464-.663.756.756 0 0 1 .463-.71l16.948-9.545a.6.6 0 1 0-.59-1.047l-16.91 9.524a1.92 1.92 0 0 0-1.113 1.812 1.915 1.915 0 0 0 1.204 1.74zM208.392 78.25c.13 0 .262.007.395.02 3.37.347 6.511 4.955 7.591 6.71a6.753 6.753 0 0 0-2.346 1.276c-1.72 1.464-2.351 2.841-2.577 3.754-1.871-1.047-6.715-4.024-7.348-7.122-.198-.975.055-1.86.773-2.706 1.103-1.297 2.254-1.932 3.512-1.932zm22.881 13.517c-.908.745-1.836 1.827-2.609 2.873-3.981-.586-7.767-4.053-7.805-4.088a.601.601 0 0 0-.818.88c.159.149 3.748 3.44 7.862 4.295-.052.079-.107.16-.156.237a25.011 25.011 0 0 0-1.255 2.186c-6.612-1.6-10.756-7.848-10.797-7.911a.602.602 0 0 0-1.008.655c.177.274 4.345 6.564 11.285 8.361-.466 1.078-.795 2.145-.794 2.978-1.85-.518-5.787-1.896-8.387-4.77-3.437-3.8-4.256-6.562-4.269-6.562-.004-.095-.045-1.74 2.29-3.728.899-.767 1.92-1.066 2.357-1.166.881.612 4.319 2.877 8.925 4.412a40.968 40.968 0 0 0 5.179 1.348zm-.39 6.218c-2.066 3.202-3.99 4.695-4.447 4.604-.29-.379.253-2.763 2.32-5.973 2.014-3.123 3.911-4.606 4.41-4.606.014 0 .026.001.039.004.29.378-.253 2.763-2.322 5.971zm-87.732-56.37 7.074-3.943a4.37 4.37 0 0 1 3.467-.113l43.745 20.553c.416.168.459.55.462.664a.728.728 0 0 1-.428.693l-6.126 2.97c-1.213-2.678-1.717-4.491-1.727-4.53a.602.602 0 0 0-1.163.31c.044.164.561 2.031 1.793 4.752l-9.73 4.718a.601.601 0 0 0 .524 1.082l9.716-4.712c1.519 3.128 3.892 7.11 7.453 10.951 2.187 2.359 4.002 3.898 5.395 4.906-.665.994-.912 2.07-.677 3.213.825 4.041 7.216 7.565 8.496 8.237.271.798 1.328 3.428 4.473 6.905 3.654 4.037 9.511 5.286 10.036 5.391.153.066.313.111.481.111 1.691 0 4.156-3.084 5.479-5.136 1.492-2.313 3.571-6.485 2.016-7.587l-.025-.024c-.006-.002-.008-.008-.014-.01-.244-.157-.52-.198-.815-.166-1.09-.16-3.668-.6-6.582-1.573-4.617-1.538-8.097-3.895-8.708-4.321-.562-.995-4.354-7.42-8.856-7.883-1.652-.163-3.176.477-4.549 1.902-1.332-.959-3.112-2.457-5.267-4.782-3.438-3.71-5.752-7.609-7.237-10.666l6.131-2.973a1.914 1.914 0 0 0 1.113-1.812 1.905 1.905 0 0 0-1.182-1.732l-43.746-20.553a5.599 5.599 0 0 0-4.496.146l-7.111 3.96a.6.6 0 0 0 .585 1.052z" fill="#393F49"/><path fill-rule="evenodd" clip-rule="evenodd" d="m174.632 93.586-.673 9.886c-1.561 7.59-6.046 16.615-18.584 16.329-7.591-.148-13.123-5.407-16.442-15.633l-1.913-9.883a.602.602 0 0 0-1.181.228l1.097 5.668c-.53.333-1.23.447-1.944.303-.708-.141-1.3-.51-1.624-1.011a2.494 2.494 0 0 1-.396-1.74 2.051 2.051 0 0 1 .945-1.433.602.602 0 0 0-.655-1.01 3.274 3.274 0 0 0-1.479 2.254c-.138.88.065 1.797.574 2.583.499.771 1.375 1.331 2.401 1.537.278.056.557.084.834.084.559 0 1.101-.114 1.583-.332l.486 2.515a4.344 4.344 0 0 1-1.473.243c-3.54-.041-6.539-3.008-6.684-6.615-.097-2.35.491-4.334 1.614-5.445.697-.69 1.571-1.012 2.566-.964.472.025 1.063.205 1.706.522l.979.48-.114-1.083c-.214-2.033-.267-3.364-.274-3.364l.171-1.58c1.67-.131 3.561-.41 5.782-.846 8.282-1.622 17.575-7.725 17.575-7.725s2.332-.469 5.946 1.939c3.275 2.183 4.213 3.454 6.873 4.767 1.068.526 2.223.667 2.427 1.462.029.115.059.215.088.322.051 1.035.095 2.116.125 3.187l.03 1.014.877-.512c.719-.421 1.375-.673 1.9-.728 1.37-.145 2.505.174 3.381.94 1.189 1.041 1.88 2.91 1.947 5.258.113 3.968-3.39 7.33-6.604 7.865-.289.05-.861.025-1.305-.02l.21-3.082c.292.09.595.149.907.149 1.464 0 3.029-.941 3.65-2.367.807-1.85.082-3.959-1.619-4.701a.602.602 0 0 0-.482 1.102c1.094.477 1.541 1.876.999 3.118-.543 1.244-2.163 1.989-3.271 1.504-.033-.014-.067-.013-.101-.021l.347-5.082a.603.603 0 0 0-1.202-.082zm2.064 10.67c4.172-.695 7.729-4.941 7.611-9.087-.076-2.688-.914-4.865-2.358-6.128-1.139-.996-2.588-1.413-4.298-1.232a4.26 4.26 0 0 0-.742.15c.394-1.351.478-3.142.672-5.565.076-.952.196-1.918.195-2.867a.606.606 0 0 0 .064-.272v-.001l-.499-17.458c-.062-2.19-2.725-4.454-7.304-6.209-4.754-1.821-10.614-2.727-16.511-2.566a.603.603 0 0 0 .036 1.203c5.632-.164 11.499.745 16.043 2.487 3.924 1.503 6.489 3.513 6.533 5.119l.427 14.985c-3.392-3.114-13.013-4.683-22.335-4.425-6.145.175-11.911 1.07-16.233 2.52-2.731.916-4.687 1.98-5.814 3.144l-.426-14.96c-.032-1.135 1.141-2.564 3.217-3.922a.603.603 0 0 0 .176-.832.605.605 0 0 0-.834-.175c-2.507 1.64-3.808 3.355-3.763 4.964l.443 15.52c-.238.453-.53.896-1.036 1.37-1.207 1.133-3.665.991-3.665.991s.212 2.43 2.249 3.776c1.089.72 2.383 1.122 3.921 1.299.168.61.374 1.303.605 1.985.355 1.046.876 1.633 1.275 1.959a3.991 3.991 0 0 0-.6-.08c-1.325-.06-2.538.385-3.474 1.311-1.381 1.367-2.08 3.621-1.97 6.348.172 4.235 3.703 7.721 7.872 7.769a5.14 5.14 0 0 0 1.801-.28c3.474 10.257 9.475 15.754 17.377 15.906.172.003.34.005.507.005 13.295 0 17.708-10.219 19.167-16.766.548.061 1.245.085 1.671.014z" fill="#393F49"/><path fill-rule="evenodd" clip-rule="evenodd" d="M163.711 91.101c-.708.039-1.237.895-1.182 1.915.055 1.019.673 1.814 1.38 1.776.708-.038 1.237-.895 1.182-1.914-.055-1.019-.673-1.814-1.38-1.777zM158.627 101.34c-.858-3.624-.761-6.646-.759-6.676a.602.602 0 0 0-.579-.623l-.022-.001a.602.602 0 0 0-.602.58c-.005.129-.105 3.207.792 6.998.2.843.415 1.656.567 2.215l-2.342.066a.602.602 0 0 0 .018 1.203h.018l3.112-.088a.604.604 0 0 0 .559-.769c-.001-.005-.406-1.402-.762-2.905zM155.309 109.651c-5.181.211-6.48-3.871-6.532-4.045a.604.604 0 0 0-.752-.398.597.597 0 0 0-.399.748c.014.049 1.546 4.905 7.307 4.905.14 0 .282-.001.425-.008a.602.602 0 0 0 .577-.625.583.583 0 0 0-.626-.577zM150.598 87.953a.601.601 0 0 0 .515-1.088c-3.19-1.505-5.591.144-6.413 1.228a.602.602 0 0 0 .957.73c.074-.095 1.855-2.328 4.941-.87zM161.245 84.402a.602.602 0 0 0 .743.947c.085-.067 2.104-1.614 4.056.212a.603.603 0 0 0 .851-.028.604.604 0 0 0-.028-.85c-2.156-2.019-4.617-1.066-5.622-.28zM150.55 93.745a.6.6 0 1 0 .544-1.072c-2.205-1.12-3.84-.2-4.396.442a.598.598 0 0 0 .455.992.603.603 0 0 0 .449-.198c.043-.047 1.058-1.121 2.948-.164zM161.632 141.381c-1.891.309-3.952.466-6.123.466-12.531 0-14.977-4.352-16.942-7.849a47.639 47.639 0 0 0-.325-.576l2.614-1.161.648-16.009a.602.602 0 0 0-.577-.625c-.303-.024-.611.245-.626.577l-.598 14.777c-9.034 1.453-19.731 4.932-31.739 13.303-13.4 9.339-32.52 29.033-38.34 35.144 1.8-5.947 6.592-21.494 10.391-31.231 4.105-10.516 6.042-15.618 6.51-16.858 1.722-.398 9.58-2.391 12.448-6.186 3.002-3.976 4.339-5.488 4.352-5.503l.195-.22-.054-.29c-.009-.046-.219-1.133-1.191-1.798-.685-.469-1.55-.612-2.57-.419-1.667.312-3.174 1.227-4.503 2.034-.82.499-1.595.969-2.155 1.117-.843.217-2.83-.911-4.126-1.868.018-1.126.306-5.365 3.5-6.579 4.114-1.564 5.722-.571 6.874 1.396l.367.626c1.183 2.033 1.836 3.152 3.154 3.679 1.614.644 2.323-.191 2.398-.288l.161-.208-.043-.26s-.489-2.883-1.068-6.6c-.585-3.769-2.971-4.963-5.496-6.227l-.561-.281c-1.774-.9-5.257-.162-7.15.352 1.348-3.142 5.003-11.651 6.102-14.081 1.02-2.258 1.025-4.138.012-5.028-.69-.608-1.722-.59-2.752.045-1.436.884-4.603 6.102-7.513 11.092l-.082.143a161.92 161.92 0 0 1-2.353 3.87c.546-3.12 1.419-8.068 2.09-11.741.568-3.098.537-4.709-.105-5.563-.312-.414-.766-.647-1.39-.709-1.543-.149-2.936 1.659-4.963 6.47-.927 2.203-2.494 8.019-3.372 11.402-.36-1.96-.765-4.763-.751-7.293.023-4.05-.058-5.908-.945-6.721-.335-.308-.767-.439-1.275-.395-1.838.169-3.004 3.19-4.021 10.43-.991 7.039-2.021 15.161-1.73 22.575-1.939 2.903-28.478 42.792-33.977 59.576-7.148 21.815-.825 33.336 1.283 36.348 5.406 7.721 14.742 11.437 29.379 11.693.59.01 1.177.015 1.764.015 5.175 0 10.31-.396 15.285-1.184a.603.603 0 0 0 .501-.688.608.608 0 0 0-.689-.501 96.366 96.366 0 0 1-16.84 1.155c-18.682-.328-25.164-6.538-28.415-11.181-2.027-2.895-8.098-13.998-1.123-35.283 5.627-17.177 33.66-59.023 33.941-59.443l.11-.164-.007-.198c-.315-7.364.717-15.503 1.71-22.553 1.13-8.047 2.327-9.342 2.939-9.398.246-.022.315.047.352.081.586.539.569 3.472.554 5.829-.025 4.609 1.253 9.892 1.308 10.115l.579 2.365.59-2.362c.025-.107 2.681-10.718 3.96-13.752 2.044-4.856 3.19-5.794 3.732-5.74.334.032.46.118.55.236.39.516.35 2.072-.118 4.622a2218.75 2218.75 0 0 0-2.613 14.737l-.508 2.919 1.605-2.49c.023-.036 2.372-3.68 4.001-6.474l.084-.142c1.418-2.431 5.73-9.83 7.103-10.673.268-.165.933-.514 1.328-.167.456.401.553 1.709-.315 3.629-1.353 2.996-6.563 15.157-6.616 15.28l-.523 1.223 1.265-.414c1.525-.502 5.84-1.62 7.474-.792l.566.285c2.435 1.218 4.358 2.18 4.847 5.337.45 2.886.846 5.271 1.001 6.198-.171.027-.44.005-.812-.145-.935-.373-1.445-1.25-2.562-3.167l-.368-.631c-1.684-2.874-4.26-3.462-8.34-1.91-4.49 1.705-4.286 7.771-4.275 8.028l.011.28.22.17c.593.46 3.635 2.726 5.402 2.256.731-.192 1.539-.682 2.475-1.252 1.242-.754 2.648-1.608 4.098-1.88 1.56-.29 2.101.53 2.281.998-.488.574-1.814 2.173-4.195 5.325-2.888 3.824-11.967 5.787-12.059 5.806l-.323.069-.114.308c-.02.048-1.862 4.956-6.62 17.149-4.58 11.731-10.584 31.837-11.115 33.619l-.095.103.019.151-2.633 8.464a.603.603 0 0 0 1.15.358l1.92-6.177c3.946 19.783 24.816 42.797 27.075 45.238l-4.414 33.979a.603.603 0 0 0 1.193.155l4.45-34.262.003-.011.034-.27v-.001c.299-2.365 2.476-19.638 4.065-32.551a.6.6 0 0 0-.522-.671.585.585 0 0 0-.671.523c-1.444 11.725-3.373 27.05-3.94 31.541-4.366-4.835-23.968-27.436-26.463-46.057 2.309-2.462 24.663-26.139 39.701-36.621 10.47-7.296 19.93-10.816 28.143-12.522l-.283.126.357.585c.218.359.431.738.649 1.128 2.007 3.572 4.755 8.463 17.991 8.463 2.236 0 4.361-.162 6.318-.481a.6.6 0 0 0 .495-.691.605.605 0 0 0-.69-.497zM255.837 211.141c-.283-.373-28.311-37.463-34.907-46.258-4.175-5.566-15.545-19.369-30.91-27.315-5.866-3.033-10.967-4.889-16.012-6.018l-1.723-1.434-1.261-13.068a.603.603 0 0 0-.656-.541.6.6 0 0 0-.542.656l1.31 13.56 3.676 3.062c-.384.696-1.39 2.236-3.443 3.771a.603.603 0 0 0 .723.963c3.048-2.28 3.99-4.572 4.027-4.669l.164-.406-.164-.136c4.197 1.136 8.509 2.826 13.348 5.329 15.144 7.832 26.374 21.468 30.499 26.968 6.265 8.352 31.849 42.212 34.662 45.933-1.222 1.9-7.875 11.462-21.979 18.12-13.584 6.414-22.728 8.006-25.026 8.326-.528-4.438-3.939-33.259-5.883-54.64a.62.62 0 0 0-.654-.544.602.602 0 0 0-.545.653c1.943 21.378 5.352 50.18 5.886 54.662h-.003l3.192 25.532c.041.331.34.565.672.522a.6.6 0 0 0 .522-.672l-3.041-24.315c2.4-.32 11.527-1.888 25.396-8.437.16-.075.304-.157.463-.232.265 4.4.513 9.782.513 14.525v13.661a.6.6 0 1 0 1.203 0v-13.661c0-4.958-.27-10.604-.545-15.115 14.804-7.524 21.015-18.009 21.078-18.118l.2-.345-.24-.319z" fill="#393F49"/><path fill-rule="evenodd" clip-rule="evenodd" d="M101.65 181.525h-.005a.606.606 0 0 0-.602.597c-.001.116-.067.896-.632 5.619a.6.6 0 0 0 .526.668c.025.004.048.004.072.004.3 0 .56-.224.597-.529.641-5.351.641-5.648.641-5.761a.599.599 0 0 0-.597-.598z" fill="#393F49"/></mask><g mask="url(#c)"><rect x="-36.818" y="-50.966" width="394.456" height="383.89" rx="80" fill="#32404D"/></g><mask id="d" mask-type="alpha" maskUnits="userSpaceOnUse" x="73" y="136" width="174" height="95"><path fill-rule="evenodd" clip-rule="evenodd" d="M138.096 143.071c.078.004.052.069.016.129a.433.433 0 0 0-.11-.041l-.033.027a1.02 1.02 0 0 1 .127-.115zm-.733 2.394a.725.725 0 0 0-.151-.124c.057-.102.144-.188.177-.157-.067.048-.021.162-.026.281zm-.371-.256-.004.004-.102-.048c.022.008.052.022.106.044zm-4.571-3.239c.144.198.421-.168.659-.28.273.144-.182.298-.303.512.205.071.611-.074.679.038-.052.053-.056.089-.146.123.39-.076.358.427.832.303a.46.46 0 0 1-.063.092c.143-.171.312-.322.438-.423.076.069.34-.05.148.17-.036-.051-.127.024-.216.062l.168-.006c-.246.348-.209-.01-.442.193.25.066.672.009.696.205-.277.303-.362-.181-.481.222l-.058-.288c-.347.571-.074-.144-.464.447.149.33.415.137.562.464.217-.102.225-.251.442-.355.61.049-.472 1 .159.865.258-.136.638-.491.635-.13l-.379.283c.218.25.589-.369.634.083-.165.097-.293-.053-.293.02-.077.417.292-.092.418.016l-.243.332c.309.177.776.21 1.119.379-.092.084-.224.147-.228.297.518.117.806.633 1.06 1.108l.342-.191c.032.028-.025.179-.099.209.077.218.131-.181.277-.247.098.037.002.248-.11.3.429-.062 1.117-.099 1.215.398l-.11.059c.16.255.61-.488.658-.084l-.069.033c.207.205.485.311.725.45.252.117.467.265.552.594.285-.431.423.429.739-.207.153.449.02.529.352.929.101.079.33-.34.492-.351l-.129.349.324-.285-.052.45.167-.048c-.047-.037-.057-.192-.011-.29.262-.093.418.403.362.585l.594-.143c-.057.139-.156.162-.251.231.382-.275-.073.388.278.134-.007-.091.084-.205.112-.276.052.252.33.342.559.315l-.112.232c.357.167.81.153 1.232.226-.121-.148.023-.57.153-.586l-.045.391c.137-.22-.092-.17.141-.425.143.076 0 .455-.122.56l.223-.092c-.016.116-.075.167-.122.31.134-.222.243.452.452.063l-.015.116c.424.092.643-.001.991.051.071-.331.19-.23.341-.478.228.156.462.479.77.508.241-.142.107-.276.234-.465-.032.307.276.312.086.514.373-.009.478-.009.969-.207-.034-.131-.083-.191-.041-.292.088-.041.172.149.143.294l-.026.029c.559-.403 1.109 1.026 1.583.431l-.026.029.451-.288c.193.062-.133.225.001.423.492-.503.728.091 1.125-.243.265.915 1.046-.042 1.437.546l-.023-.215c.105-.208.125.125.201.176-.011-.167-.111-.195-.047-.31.871-.216 1.795.301 2.701.444.33.041.127-1.116.562-.626l-.094.402c.625-.518 1.344-.031 1.95-.51-.029.096-.02.215-.083.221.162.272.503-.044.481-.278.102.015.044.209.117.321.154.154.303-.406.405-.129.017.046-.027.098-.05.124.073-.15.416-.013.294-.335.259.13.441-.2.656-.026.077-.384.433.13.403-.396.055.541.481.385.594.115-.026.168.158.152.132.385.172-.023.314-.162.242-.43.421.585.548-.634.866.155a6.673 6.673 0 0 1 1.323-.874c.094.535-.493.147-.362.703.396-.302.546-.803 1.002-.755.127.044-.011.245-.03.339.382-.317.845-.165 1.155-.548.013.049-.016.113-.044.163.07-.036.195.032.125-.205l-.057.084c-.206-.316.109-.801.072-.988.055.717.416.075.449.99.037-.058.069-.186.013-.342.086.027.135.114.111.314.234-.2.066-.428.31-.486.032.115-.003.172.01.314.059-.256.116-.512.349-.468.009.072.059.156-.003.17.346-.123.405-.785.849-.692.051.531.182.118.345.538l.161-.198-.152-.178c.182-.054.23-.417.431-.33l-.07.22.304-.195-.245-.096c.099-.279-.212-.529.063-.49-.031.059.175-.055.36.161v.001c.036-.163.07-.334.24-.275.086.123.153.474.209.555-.049-.379.368-.27.324-.685.001.102.087.321.116.361l-.044-.313c.117.056.146.095.205.274.262-.052-.296-.493.082-.389-.012.032.016.07-.012.132.337-.006.472-.415.794-.391.267.377-.183.2.063.509.355-.237.557-.831.951-.934l-.089-.01c-.242-.593.406.141.446-.22-.02.064.109.343.088.274.292-.039.425-.405.687-.772l.038.167c.22.058.408-.148.596-.176-.041-.168.057-.199-.12-.369.958.487.59-.952 1.411-.595-.045.036-.027.2.01.173l.241-.372c-.192-.203-.144-.102-.339-.225-.057-.165-.044-.335.034-.394-.033.256.268.357.426.432-.062-.06-.097-.151-.155-.216.469.265-.312-.466.118-.374l.078.125c.04-.125-.003-.334.114-.371.24.221.003.186.163.396.119-.117-.126-.659.184-.515.007.116-.067.182-.067.29.369.197.318.101.448.069l-.014.002.324-.059-.122-.029c-.398-.769.215-.398.048-.985.155.558.171.25.405.53.122.026.283.035.33.13-.104-.302.333.019.163-.428.088.078.108-.097.296.134.057-.193-.175-.114-.268-.229-.107-.47.796-.123.655-.78.043-.406-.223-.706-.191-1.055.212.039.282.331.282.331.237-.021.301-.133.283-.341.063.086.151.113.285.152.051-.123-.295-.323-.058-.355.09.099.239.252.308.38.003-.189-.09-.437-.089-.621.194.081.203.25.28.373.033-.194.109-.489-.142-.707l-.154.032c.019-.061.251.123.275.195.134.271-.215.12-.315.06v-.131c-.635-.293-.158.411-.323.574l-.352-.371.206.428c-.132-.041-.372-.187-.371-.316-.284-.032.058.213-.24.143-.042-.016-.058-.035-.065-.058l.024.205c-.064-.088-.29-.204-.178-.226-.385.012.024.562-.329.391l-.009-.037c-.103.385.263.271.396.761l-.799-.478.246.275c-.036.018-.107.052-.205-.058.087.273.134.092.25.314-.368-.102-.238.474-.679.087.151.247.272.029.274.307-.475-.409-.087.233-.411.134-.185-.271.047-.247-.273-.35.302.467-.317.122-.345.287.286.331-.1.335-.178.6-.077-.113-.495.084-.761.087l-.04-.062c.239.373.011.442-.063.613-.153-.217-.193-.317-.196-.463l-.117.091c.057.135.065.224.016.323l-.165-.289c-.144.134-.09.563-.438.515.16.264.663.594.54.918-.103-.132-.27-.363-.248-.459-.007.031.006.161-.075.128l-.062-.293c-.169-.038.078.228-.017.258-.131-.198-.153-.103-.247-.267.008-.032.124.036.103-.06a.546.546 0 0 1-.433-.155c.081.109.175.268.127.335-.161.124-.214-.203-.376-.243.047.165-.15.089.035.392-.051.03-.146-.105-.216-.174-.004.188-.382.298-.091.559l.036.007-.008.023.001-.001-.001.001c-.118.483-.729.165-.953.46l-.055-.105c-.116.215-.361.284-.376.58-.053.029-.223-.126-.263-.266-.099.149-.049.291-.343.201.053-.25-.128-.143.081-.201-.229-.009-.351-.167-.411.214-.062-.306-.298-.289-.347-.169l.218.143c-.08.083-.177.095-.276.11l-.115-.386c-.56-.289-.351 1.055-.947.425.006.303.277.095.311.437-.196.025-.583-.429-.639-.412-.32-.126-.018.623-.328.57.081.122.247.469.097.663-.202.013-.425-.487-.352-.635.04-.026.075.01.091.056.04-.069.094-.151-.029-.274l.025.143c-.138-.107-.377-.009-.397-.25-.088.175.02.241.145.277-.297-.117-.36.117-.638.066.061.062.149.209.111.221-.4-.05-.068.309-.285.45-.201-.161-.11-.512-.291-.257-.188-.091-.142-.351-.12-.482-.13.343-.453-.048-.591-.065l.081-.14c-.048.083-.104.095-.162.11l.146.257c-.081-.031-.139-.017-.171-.131-.017.198.186.442.118.725-.13-.117-.236.222-.37-.135.32.05-.132-.359.091-.48-.034.056-.092.068-.173.038a.111.111 0 0 1 .002-.104c-.359-.257-.009.445-.294.511-.02-.216-.169-.375-.203-.319.113-.026.145.33.082.515-.223-.113-.166.173-.266.179l.127.047c.017.216-.083.214-.194.312-.051-.158.088-.141.025-.2-.053.401-.412-.295-.548.002-.124-.116-.101-.388-.202-.463-.156.328-.298-.22-.481.043.127.269.126.197.018.502.115-.093.232-.174.343-.274l-.158.459c.12-.016.209-.225.288-.199-.065.259-.07.187.039.405-.252-.377-.266.309-.516.061l-.142-.696c-.34-.259-.419.448-.816.34l.14.1c.005.287-.217.08-.312.214-.032-.235-.122-.306-.198-.442.038.172-.265.032-.216.506l-.215-.279c-.311-.072-.221.731-.519.703.045-.271-.109-.413.049-.63-.093.014-.184-.013-.16.15-.076-.133-.213.363-.334.145-.025.108-.002.356-.113.348-.019-.045-.016-.116-.016-.116.016.116-.146.178-.015.428-.396-.701-.822.149-1.157-.454a2.74 2.74 0 0 1-.629.249c.006-.073-.01-.119.028-.099-.284-.189-.091.698-.415.487-.189-.365.138-.225.029-.359-.116-.773-.349.148-.588-.284l.042-.051c-.172-.242-.345.331-.601.286 0 0 .006-.07-.008-.118-.141.406-.46.554-.696.678.056-.31.1-.168.034-.476-.106.05.064.497-.148.594-.082-.163-.248-.3-.287-.632l.203-.027c-.13-.424-.262.027-.374-.041l.004-.189c-.308.077-.289.55-.628.533l.041.14c-.165.477-.165-.255-.335.102l-.074-.471c-.116.12-.409.48-.627.581.115-.359.365-.552.514-.769-.12.003-.406.056-.461.293.047-.048.104-.168.154-.097-.136.378-.327.58-.569.574.026-.921-.629-.246-.801-.965-.42.332-.826-.163-1.309-.117.15.718-.142.017-.139.753-.115.044-.159.032-.167-.017l-.327-.445c-.072-.215.115-.16.112-.325-.244-.062-.09-.314-.242-.513.021.264-.104.375-.238.272l.179.344c-.368.379-.263-.613-.63-.253l.122-.219c-.184.116-.639-.077-.865.494-.024-.089-.046-.293.036-.338-.406-.134-1.006.523-1.294.124l.055-.174c-.085.043-.18.32-.256.13.015-.073.055-.174.021-.189-.05.058-.253.29-.343.175l.117-.192c-.373-.275-.703.429-1.067.468.088-.522-.197-.758-.336-.874l.018-.073c-.447-.16-.873.268-1.36.379-.142-.605-.861-.42-1.183-.883.037.112-.124.393-.215.42-.068-.134-.38.266-.223-.194l.033.02c.063-.479-.172-.421-.325-.482l-.221.597c-.113-1.015-1.219.001-1.137-.896-.152.108-.269.054-.423.161l.133-.314c-.229-.194-.34-.288-.696-.353l.165-.194c-.17-.098-.633.797-.817.739l.163-.483c-.336-.121-.439-.678-.945-.445.04-.063.118-.188.175-.179-.136-.093-.375-.607-.667.03.22-.398-.289-.212-.561-.135l.199-.274c-.361.291-.427.387-.689.377-.023-.063.102-.251.119-.143-.063-.235-.294.203-.375-.074l.182-.134c-.134-.127-.185-.022-.406.128-.17.044-.24-.274-.089-.538-.125.137-.349.282-.388.147a.33.33 0 0 1 .163-.155c-.113-.359-.604.051-.581-.334a.486.486 0 0 0 .093-.18c.192.145.34.272.311.281.181-.25.059-.403.436-.661-.259.103-.784.353-.851.129.011-.028.022-.057.046-.098l.037-.016c-.017-.048-.064-.052-.124-.035-.012-.078-.017-.133-.057-.174.144-.213-.077-.25-.139-.322-.213.265-.273.14-.362.432.002-.029.038-.019.096.012.017.002.034.01.054 0l-.024.019c.054.034.121.083.196.141-.166.084-.32.141-.281-.074a9.207 9.207 0 0 1-.455.328c.199-.452.176-.811.342-1.052-.342-.054-.609-.343-1.177-.032-.118-.004.059-.201.108-.296.078-.009.111.04.194-.007-.231-.005-.387-.316-.736-.037-.004-.296.378-.196.122-.359l.126-.065c.135-.871-1.506.062-1.201-1.042-.015.069-.022.103-.075.156-.147-.795-1.22-1.022-1.06-1.976.011-.241-.245-.117-.496-.122l.296-.216-.473.014c-.436-.132.557-.87-.132-.954l-.2.146c-.021-.143-.321-.342-.048-.433-.046.005-.251.057-.154-.042l.174-.077-.43-.193c.034-.29.713-.234.635-.576-.117-.102-.637-.166-.749-.099.006.05-.077.158-.257.221l-.132-.097c-.545.127-1.152.121-1.397.654l.412.146-.229.171-.09-.21c-.2.206.041.214.217.244-.128.069-.209.138-.24.206l.594.041c-.192.111-.448.054-.496.26.276.017.415-.288.638-.17-.19.208-.394.258-.14.306-.125.077-.221.085-.301.055.205.056.211.281.508.217-.232.247.256.348-.227.57.133-.019.469.018.541.109-.667.108.177.394-.448.67.58-.136.505.38.916.459-.048.011-.141.031-.129-.005.04.16-.078.285-.113.428.411-.233.635-.091.95-.144-.276.407-.527.209-.861.497.316-.217.504.069.732-.164-.152.278-.044.18-.323.465.499-.314.158.058.523-.051-.119.344-.423.371-.134.45-.076.195-.376.153-.376.153zM155.676 174.079l5.182 9.627 10.771 1.948-7.567 7.898 1.473 10.83-9.859-4.746-9.86 4.746 1.474-10.83-7.567-7.898 10.77-1.948 5.183-9.627z" fill="#fff"/><path fill-rule="evenodd" clip-rule="evenodd" d="M168.186 183.56c.121-.027.193.053.214.128-.127-.017-.165-.013-.272-.009l-.023.039a.569.569 0 0 1 .081-.158zm.573 2.486a.715.715 0 0 0-.18-.046c.079-.104.193-.206.245-.19-.095.061-.03.143-.065.236zm-.442-.075-.005.007-.115-.001.12-.006zm-9.981-2.893c.191.376.478-.031.745-.073.35.383-.178.359-.298.617a.685.685 0 0 0 .104.075l.16.14c.109.085.218.157.318.222.199.13.365.23.45.407-.039.081-.02.173-.129.164.114.05.213.143.309.264.316.007.642.075.973.111.331.037.678.045.811-.108.02.044.028.083.029.117-.021-.23.01-.454.051-.61.188.026.395-.214.414.084-.113-.029-.143.085-.214.165l.219-.09c.101.443-.293.094-.347.399.404-.065.91-.324 1.179-.156-.011.413-.705.012-.381.44l-.424-.235c.23.696-.265-.094-.072.642.572.224.701-.085 1.272.139.174-.199.015-.338.19-.538.913-.25.479 1.132 1.194.708.209-.24.364-.737.755-.389l-.233.428c.567.149.447-.595.993-.18-.139.159-.479.069-.401.139.325.43.322-.207.621-.154l-.01.415c.312.023.649-.008.995-.038l.25-.023.121-.042a1.05 1.05 0 0 1 .27-.043c-.092.107-.193.219-.215.342.411-.134.603.16.191.332l.336-.1.355-.087a2.955 2.955 0 0 1-.453.142c-.299.12.425-.119.654-.156-.01.045-.426.149-.597.175.231-.025.394.038.377.167-.012.123-.189.297-.459.305l-.082-.066c-.208.009.521.503.071.496.003-.033-.008-.052-.012-.077-.769.58-1.356 1.661-2.271 1.845.266.459-.866.576-.399 1.113-.658.18-.634-.028-1.376.403-.176.136.094.543-.041.791l-.273-.252.026.537-.457-.166-.231.379c.142-.117.382-.158.443-.066-.231.429-.867.763-1.297.926-.047.073-.097.11-.142.102.184.572.376 1.203.533 1.583-.076-.008-.128-.021-.184-.106a66.203 66.203 0 0 1-.173-.326c.253.458.15.42.052.462-.098.031-.201.058.002.263.075-.073.224.003.3.003-.192.258-.124.778.023 1.148l-.264-.039c.03.702.32 1.444.421 2.222.081-.295.529-.29.603-.068l-.378.144c.261.115.116-.258.451.004-.005.297-.416.256-.565.106l.182.335c-.112.036-.186-.038-.337-.04.262.113-.306.664.142.815l-.113.036c.051.389.122.667.194.927l.105.387a.216.216 0 0 1 .042.067c.346.033.277.083.575.242-.083.195-.358.141-.31.29.213.309.34.367.587.689-.361-.357-.303-.15-.582-.555l.085.234c-.041.022-.022.1-.102.238.123.2.22.308.275.451-.046.034-.265-.271-.34-.472l-.005-.037c-.048.233-.45-.21-.551-.483-.068-.145-.076-.255-.113-.306-.205-.132-.422-.197-.665-.135l.053-.01-.864-.045c-.307-.207.299-.113.137-.402-.998.09-1.192-.657-1.977-.655-.1-1.057-1.781-.786-2.196-1.63l-.054.211c-.134.052-.166.003-.195-.081-.056-.096-.094-.221-.206-.302-.022.174.265.341.029.357a15.846 15.846 0 0 1-1.339-.573 20.68 20.68 0 0 1-1.554.677c-.33.114-.668.213-1.006.308-.682.19-1.373.363-2.025.589-.573.211.17 1.147-.742 1.018l.023-.452c-.449.481-1.015.749-1.582 1.008l-.385.176a.451.451 0 0 0-.087.053c-.057.048-.112.124-.215.287.039-.121.061-.264.081-.272.023-.332-.109.037-.292.387-.033-.014.115-.292.171-.453.125-.248-.41.607-.177.176l.129-.191c-.132.194-.079.054-.279.324l-.072.1-.082.115.003-.008c.192-.324-.149-.028.095-.368-.213.173-.15.051-.115-.019.036-.075.047-.114-.24.044.603-.391.497-.392.249-.474.167.001.183-.081.412-.065.001-.043-.033.01-.077-.118-.046-.115-.133-.187-.276-.178.727-.506-.358-1.262.516-1.483a18.465 18.465 0 0 1-.246-2.783c.534.104-.076.958.495.997-.111-.845-.51-1.378-.27-2.17.103-.199.218.151.3.234-.041-.342-.015-.619.034-.975.07-.505.15-1.008.175-1.478a5.228 5.228 0 0 0-.653-.505c.046-.025.184.04.31.111-.18-.163-.321-.452-.506-.288l.212.126c-.032.226-.364.15-.656.084-.31-.083-.548-.123-.624-.065.681-.312-.371-.644.544-.982-.1-.036-.266-.041-.37.089-.063-.135-.025-.234.21-.26-.454-.281-.517.033-.838-.309.088-.081.187-.045.322-.107-.332-.01-.665-.021-.866-.377.068-.032.105-.13.185-.044-.496-.465-1.25-.407-1.603-1.101.528-.2-.052-.301.247-.64l-.375-.196-.046.266c-.238-.259-.69-.256-.791-.576l.314.061-.517-.416.135.386c-.414-.096-.386.421-.619-.003.113.051-.269-.29-.143-.541h.002c-.196.002-.452-.046-.495-.253.111-.092.523-.172.597-.234-.459.063-.427-.296-1.07-.386.169.04.483.026.539.015l-.486-.066c.053-.085.118-.087.402-.062-.124-.21-.777.013-.692-.253.063.03.126.03.244.086-.044-.184-.499-.434-.759-.674.083-.023.198-.036.362-.026.908.295-.079.126.759.362.087-.058.05-.189.14-.318.079-.129.283-.255.578-.255l-.134-.026c-.231-.282-.032-.238.176-.152.217.083.41.214.477.049-.049.057.066.348.051.278.08.012.147.003.215-.023.072-.026.245-.086.371-.149l.943-.468-.066.18c.323.09.797-.059 1.131-.044.067-.178.255-.185.101-.399 1.156.739 1.798-.835 2.816-.228-.105.021-.226.187-.142.172l.721-.283c-.109-.264-.128-.149-.324-.333a.624.624 0 0 1 .439-.377c-.304.242.083.438.255.565-.039-.08-.006-.181-.034-.263.602.393-.07-.557.609-.341l.038.141c.123-.069.203-.177.299-.248a.508.508 0 0 1 .094-.248c.277.164-.006.329.158.582.195-.4-.127-1.051.276-1.121.008.174-.093.365-.099.563.467-.069.446-.234.615-.421l-.018.016.398-.377-.154.068c-.556-.736.236-.762-.003-1.477.22.689.226.215.529.422.152-.068.347-.191.411-.092-.144-.356.397-.251.182-.758.111.042.134-.225.367-.037.07-.323-.215-.03-.332-.124-.122-.621.975-.784.824-1.665.088-.643-.208-.929-.114-1.52.256-.077.304.34.304.34.297-.188.379-.407.397-.726.062.101.168.089.326.074.083-.22-.304-.34-.005-.527.09.108.243.266.305.428.034-.293-.03-.634.011-.934.215.03.192.297.263.448.07-.324.228-.814-.012-1.055l-.198.126c.041-.109.273.079.285.182.094.361-.286.294-.398.251l.031-.212c-.706-.144-.287.766-.515 1.104l-.362-.386.169.564c-.156.016-.432-.063-.404-.275-.355.139.035.312-.326.401-.051.004-.066-.018-.072-.05l-.003.321c-.066-.099-.335-.126-.188-.245-.496.312-.059.902-.485.893l-.008-.053c-.185.704.294.235.422.907l-.97-.114.291.235c-.046.058-.139.172-.256.079.093.359.163.035.297.287-.461.15-.321.928-.875.721.187.243.349-.195.343.229-.606-.205-.111.433-.518.579-.24-.241.056-.428-.353-.281.393.43-.402.494-.438.782.384.211-.128.623-.196 1.058-.084-.065-.312.192-.5.345a1.667 1.667 0 0 1-.343-.062l-.025-.07c.14.423-.199.4-.528.553-.035-.263.003-.375.152-.522l-.294.055c-.045.151-.123.242-.305.326l.015-.339c-.389.089-.719.525-1.263.4.027.308.554.772.057 1.071-.048-.161-.119-.438.008-.529-.042.029-.138.165-.243.112l.163-.315c-.251-.08-.079.253-.267.26-.038-.235-.166-.142-.173-.333.043-.031.178.068.231-.037-.214-.004-.489-.097-.605-.26.043.13.058.315-.088.373-.389.088-.185-.258-.436-.336-.065.179-.346.056-.289.407-.115.019-.167-.14-.227-.227-.175.191-.94.215-.644.546l.057.016-.03.02h.001-.001c-.632.473-1.349.04-2.117.333l-.037-.114c-.459.221-1.12.284-1.228.563-.126.023-.54-.123-.624-.25-.319.148-.158.254-.99.206.123-.234-.4-.115.219-.195-.661.015-1.153-.089-1.205.25-.298-.255-1.122-.186-1.238-.072l.818.073a2.054 2.054 0 0 1-.482.104l.161.208-.889-.349c-.005.347.846.935 1.463 1.339.643.431 1.071.696.906 1.114.569.187-.221-.515.412-.329.246.334.033.944.192 1.111.383.721 1.125.328 1.388.822.055-.149.286-.459.661-.263.221.306-.116.746-.362.655-.07-.056-.067-.119-.03-.15-.121-.051-.275-.124-.285.091l.138-.064c.022.235.389.596.136.671.294.109.253-.075.162-.278.183.49.514.546.755.998.002-.111.074-.279.128-.221.372.645.416.043.801.354.035.352-.446.287.029.517.102.321-.231.309-.398.303.512.135.451.732.592.952l-.247-.091c.148.056.227.141.308.226l.113-.294c.06.134.141.22.053.301.235-.026.268-.408.65-.38.023.234.504.301.275.609-.311-.511-.232.31-.618-.004.098.037.178.122.239.258-.017.044-.071.04-.113.027.141.638.488-.11.881.313-.211.088-.187.391-.115.401-.052-.059-.026-.161.078-.209.104-.05.252-.082.335-.114-.028.212.232.063.289.151l-.006-.12c.195-.069.265.005.41.092l.013.048c-.078.028-.107.009-.122-.013-.047-.018-.072-.039-.092-.002a.5.5 0 0 1 .089.003c.101.05-.027.189-.147.289-.123.118-.23.145-.133.301-.169.165-.4-.035-.52.113.215.481-.355.442-.192.939.303-.095.237-.128.47.238l-.096-.795.347.549c.035-.231-.113-.513-.045-.646.2.267.132.233.384.154-.471.259.163.663-.175.99l-.705-.107c-.388.509.229 1.029-.044 1.721l.153-.214c.267.134-.021.448.061.695-.233-.054-.338.08-.499.159.177.011-.087.521.375.651l-.354.277c-.206.561.582.751.427 1.296-.235-.202-.436.027-.568-.37-.028.186-.094.347.07.372-.156.039.233.662-.031.921.091.108.343.104.286.379-.054.042-.123.028-.123.028.121-.019.111.376.42.058-.438.464-.506 1.058-.544 1.543-.043.507-.057.908-.489 1.713l.013.675a22.1 22.1 0 0 1 .934-.527c-.095.125-.112.184-.178.19.489.01.945-1.213 1.386-1.151.143.357-.481.461-.346.558-.189.526.093.36.417.129.331-.234.664-.514.911-.38l-.14.119c.198.052.487-.17.764-.414.284-.248.545-.514.874-.642 0 0-.003.079.047.109.145-.513.647-.9 1.028-1.207.001.34-.124.239.093.48.171-.132-.273-.423.069-.684.196.092.534.091.715.373l-.351.188c.37.299.458-.236.679-.259l.057.18c.523-.32.325-.749.93-1.003l-.122-.099c.118-.577.385.107.555-.361l.304.381c.163-.206.546-.772.889-1.037-.063.422-.432.798-.618 1.121.213-.099.702-.377.71-.641-.064.082-.121.238-.237.213.097-.461.358-.791.782-.986.257.545.47.347.696.314.115.095.208.228.172.486a.257.257 0 0 1 .128-.041c.066.011.189.06.274.099.189.087.366.202.542.327.352.25.705.539 1.15.723.005-.792.262.104.53-.584.221.055.294.102.29.154l.421.69c.052.264-.262.055-.316.212.417.263.051.37.257.687.056-.266.319-.266.526-.053l-.206-.477c.787-.055.265.813 1.055.763l-.297.115c.189.015.483.158.802.249.313.089.634.118 1.072.001.059.124.14.385-.129.315.68.377 1.474.585 2.103.751.648.175 1.147.317 1.786.827l.051.224c.216.047.112-.321.584.107.061.112.084.24.211.313.055-.024.197-.122.425-.05-.028-.127-.039-.224-.019-.27l.293.64c.046-.531-.184-1.316-.448-2.004-.266-.703-.565-1.322-.701-1.856.594.422.625-.63.63-1.224l.081.037a8.992 8.992 0 0 0-.216-1.258c-.075-.242-.161-.406-.261-.603-.197-.376-.425-.739-.589-1.166.496-.625-.013-1.888.187-2.812-.077.149-.412.034-.487-.115.079-.221-.442-.521.044-.554l.001.075c.453-.22.269-.627.236-.96l-.637.03c.138-.229.231-.25.272-.314.042-.055.039-.104.011-.169.04-.089.015-.201.113-.335.188-.228.396-.371.691-.299.032-.262.214-.45.244-.711l.239.243c.468-.361.701-.542 1.142-1.121l.074.274c.299-.279-.355-1.051-.108-1.336l.446.269c.488-.519 1.309-.73 1.461-1.558.047.06.139.177.074.274.06-.058.162-.131.271-.213.063-.048.097-.069.182-.146l.273-.268c.344-.363.517-.677.107-.753.445.192.94-.918 1.038-1.31l.383.085c-.207-.403-.39-.381-.14-.814.172-.117.531-.165.245.008.661-.437-.259-.188.463-.684.08.02.156.044.228.072.427-.409.193-.331-.11-.375-.006-.014-.002-.034.012-.058-.412-.018-.523-.245-.162-.456-.395.117-1.048.25-1.197.134.123-.094.335-.128.445-.143-.283-.167-.767-.156-1.141-.137-.385.017-.672.038-.831-.158.077-.099.081-.155.052-.194.734.141 1.3.262 1.215.271.396-.242-.25-.414.793-.66-.92.071-2.171.359-2.652.125-.014-.033-.029-.066-.028-.114l.083-.02a.737.737 0 0 0-.422-.026c-.18-.084-.3-.144-.497-.184-.122-.282-.483-.228-.69-.278-.044.336-.289.237-.1.555-.027-.03.044-.033.174-.024.032-.005.067-.004.09-.02l-.019.028c.138.014.256.027.586.082-.31.118-.469.237-.651.013a6.382 6.382 0 0 1-.368.488c-.18-.512-.647-.856-.666-1.154-.627.079-1.418-.129-1.904.429-.183.05-.161-.215-.206-.324.109-.046.223-.015.292-.096-.366.1-1.01-.118-1.17.305-.388-.275.312-.359-.284-.393l.103-.12c-.864-.777-1.872.345-2.459.02a.99.99 0 0 1 .01-.476c-.018.085-.023.129-.072.194a2.068 2.068 0 0 0-.091-.379 4.335 4.335 0 0 0-.243-.495c-.184-.328-.4-.643-.607-.96-.415-.635-.803-1.282-.867-2.072-.082-.425-.353-.329-.664-.45l.279-.25-.574-.181c-.561-.393.285-1.354-.594-1.76l-.169.204c-.09-.267-.544-.707-.274-.799-.052-.004-.267.04-.206-.115l.163-.099-.611-.446c-.129-.531.705-.285.372-.981-.2-.219-.875-.458-.936-.303.046.106.036.317-.128.414l-.212-.184c-.517.224-1.118.317-1.159 1.07l.515.233-.17.256-.194-.324c-.126.31.139.323.347.382-.11.101-.169.205-.174.308l.681.135c-.169.151-.477.031-.443.349.316.065.34-.407.644-.183-.122.31-.335.353-.024.472-.11.099-.216.095-.319.038.259.115.345.488.664.449-.172.346.43.628-.048.86.145.002.554.151.672.322-.739-.031.332.697-.315.931.636-.025.701.766 1.214 1.051-.054-.002-.16-.007-.155-.059.091.267-.023.42-.034.628.433-.192.733.138 1.1.205-.24.516-.586.081-.921.382.328-.196.617.341.843.087-.125.363-.014.263-.296.566.542-.239.203.166.626.185-.078.47-.442.347-.088.627-.065.259-.424.033-.424.033zM215.534 226.145c.035-.06.07 0 .096.064a.328.328 0 0 0-.073.063l.006.041c-.013-.064-.025-.122-.029-.168zm1.329 2.046a.409.409 0 0 0-.14.031c-.044-.109-.067-.228-.034-.232.006.08.099.121.174.201zm-3.847 2.115c.167-.032-.025-.442-.049-.7.164-.17.166.296.287.5.095-.144.092-.564.186-.57.025.07.049.091.05.185.044-.375.38-.113.419-.581a.6.6 0 0 1 .047.102c-.08-.21-.14-.428-.176-.585.071-.026.064-.305.165-.031-.047.003-.022.118-.019.211l.044-.142c.174.387-.067.166.011.466.115-.17.199-.547.343-.463.13.391-.232.201.014.515l-.217-.107c.299.59-.12-.017.181.619.265.056.209-.267.471-.217-.007-.235-.105-.319-.113-.554.219-.485.53.918.629.326-.011-.281-.127-.785.118-.57l.067.461c.237-.02-.054-.675.265-.442.009.186-.133.196-.084.24.252.308.035-.282.151-.315l.138.386c.221-.131.401-.484.641-.636.02.12.011.257.11.358.271-.3.718-.175 1.111-.045l.014-.376c.03-.004.101.136.092.211.165.088-.062-.215-.045-.367.063-.045.155.164.144.279.128-.355.42-.81.77-.524l-.012.114c.226.079-.029-.752.24-.498l-.011.07c.433.009.749-.446 1.22-.047-.115-.499.458.078.242-.598.338.252.319.394.711.506.094.001-.03-.46.045-.565l.132.347.003-.414.23.389.06-.125c-.045-.005-.138-.125-.169-.228.087-.213.45.101.522.277l.237-.431c.046.142.006.213-.007.32.051-.427.176.351.221-.04-.053-.069-.067-.211-.09-.283.166.175.361.1.47-.044l.066.249c.286-.043.504-.332.797-.442-.149-.07-.292-.49-.224-.563l.183.35c-.037-.247-.145-.102-.144-.421.125-.001.241.383.227.526l.08-.178c.052.105.045.175.093.316-.038-.247.379.273.296-.149l.053.104c.294-.109.372-.292.597-.414-.128-.313-.006-.285-.044-.567.212.024.508.184.703.067.077-.219-.072-.281-.087-.494.133.277.328.16.31.41.227-.155.291-.195.502-.562-.086-.1-.146-.134-.17-.239.036-.071.182.062.235.2l-.002.036c.157-.575 1.185.462 1.196-.25l-.002.037.141-.443c.154-.016.022.248.2.373.087-.615.517-.171.622-.604.595.721.666-.399 1.189-.008l-.112-.184c-.025-.222.139.068.211.088-.081-.145-.161-.136-.17-.261.463-.513 1.339-.302 2.009-.461.242-.066-.399-1.044.109-.74l.111.392c.203-.653.888-.465 1.112-1.048.019.094.076.198.035.22.229.203.336-.168.22-.374.079-.013.12.177.219.261.174.099.042-.443.231-.219.031.035.021.094.016.123-.012-.154.288-.117.067-.376.238.053.226-.294.446-.199-.108-.371.353-.004.112-.475.264.478.492.216.458-.063.052.161.171.096.249.315.107-.074.158-.223-.005-.451.539.435.138-.697.684-.053a4.24 4.24 0 0 1 .602-1.089c.277.467-.296.244.017.721.163-.361.076-.854.422-.911.111.019.085.224.11.318.159-.361.572-.282.649-.699a.28.28 0 0 1 .029.158c.037-.048.155-.008.015-.211l-.011.087c-.27-.25-.219-.755-.314-.919.305.647.333-.011.695.824.007-.06-.019-.185-.117-.318.073.009.141.079.197.269.095-.228-.109-.406.047-.506.066.1.061.16.122.289-.05-.248-.101-.495.085-.498.032.065.099.133.059.158.204-.182.034-.773.403-.75.219.478.18.085.444.448l.057-.2-.176-.145c.119-.071.037-.41.219-.355l.018.211.168-.217-.218-.058c-.016-.269-.335-.46-.112-.459-.005.058.117-.074.328.104v.001c-.025-.155-.054-.319.094-.284.105.103.269.419.337.488-.159-.346.211-.267.05-.642.031.093.165.286.201.319l-.129-.28c.109.044.145.077.244.236.193-.062-.38-.431-.048-.358-.001.03.033.062.028.121.269-.021.249-.416.506-.42.314.329-.083.201.197.467.198-.25.187-.819.485-.91l-.074-.007c-.346-.538.363.121.304-.21-.001.06.172.313.138.25.223-.04.238-.375.36-.72l.069.155c.184.045.302-.123.45-.141-.07-.152.005-.175-.175-.338.887.501.295-.85 1.055-.447-.033.027.009.173.035.153l.146-.299c-.191-.204-.136-.109-.32-.241-.071-.152-.085-.303-.026-.347.008.225.279.349.422.436-.061-.061-.104-.147-.162-.212.433.292-.324-.45.048-.324l.082.121c.015-.11-.051-.308.041-.33.229.228.03.171.191.381.082-.092-.201-.628.084-.448.018.103-.038.151-.021.254.328.217.28.133.384.123l-.011-.001.264.001-.104-.046c-.414-.749.139-.318-.054-.874.179.529.166.254.386.545.105.044.237.081.286.175-.114-.29.272.074.102-.346.079.088.086-.057.258.184.037-.153-.153-.138-.239-.259-.11-.432.662.08.52-.521.038-.328-.185-.657-.144-.949.178.094.231.364.231.364.205.054.254-.029.253-.204.048.092.124.142.237.219.05-.082-.232-.362-.028-.309.07.112.187.288.24.415.012-.151-.05-.385-.034-.537.157.135.152.278.209.403.036-.149.129-.349-.055-.617l-.139-.035c.025-.042.202.194.215.26.085.26-.192.016-.275-.07l.012-.108c-.516-.466-.172.288-.321.362l-.276-.422.146.42c-.111-.076-.313-.273-.301-.381-.249-.114.039.2-.215.054-.038-.026-.049-.047-.054-.069l.012.185c-.052-.094-.244-.256-.145-.245-.34-.092-.002.492-.305.251l-.008-.034c-.101.307.218.298.338.761l-.693-.603.217.299c-.031.008-.092.023-.179-.097.081.262.118.111.222.333-.319-.169-.189.365-.588-.066.141.247.239.081.251.326-.434-.459-.062.192-.341.05-.178-.276.022-.219-.258-.362.292.473-.263.064-.276.212.273.342-.06.289-.104.516-.084-.12-.406.029-.63.011l-.042-.061c.253.368.063.404.022.55-.161-.211-.207-.305-.228-.438l-.091.071c.066.127.084.208.055.293l-.182-.278c-.112.107-.008.494-.302.44.18.25.655.58.612.871-.109-.127-.289-.347-.288-.435-.001.029.034.148-.039.114l-.105-.272c-.149-.043.106.214.032.237-.145-.189-.147-.102-.255-.257.001-.03.111.04.076-.051-.091.016-.257-.037-.393-.159.089.102.196.252.167.313-.112.107-.217-.194-.363-.237.07.153-.112.076.103.36-.038.026-.145-.1-.218-.167.032.173-.27.26.031.507l.032.008-.002.02.001-.001-.001.001c.004.44-.557.168-.673.446l-.071-.096c-.043.203-.228.273-.166.546-.037.027-.215-.11-.283-.236-.042.144.026.259-.227.204-.026-.239-.14-.124.008-.196-.183.01-.322-.124-.263.238-.134-.28-.318-.24-.323-.123l.215.113c-.041.085-.114.107-.187.129l-.203-.349c-.529-.204.015.998-.651.47.092.276.255.066.382.376-.152.036-.607-.349-.644-.326-.292-.072.181.584-.077.576.103.101.341.401.288.6-.151.038-.488-.394-.477-.54.022-.029.061-.001.087.04.01-.069.026-.154-.11-.25l.066.129c-.143-.08-.297.043-.392-.176-.014.173.095.22.203.235-.27-.067-.243.157-.48.149.069.048.187.172.161.188-.331.009.05.293-.074.451-.211-.119-.257-.452-.313-.193-.18-.058-.232-.302-.26-.424.01.325-.368.03-.477.043l.011-.147c-.007.087-.045.111-.083.136l.201.209c-.071-.012-.11.013-.174-.087.057.187.297.372.347.647-.139-.08-.096.254-.325-.05.258-.018-.229-.304-.105-.461-.005.058-.044.081-.115.069a.127.127 0 0 1-.037-.096c-.363-.163.153.414-.037.532-.094-.196-.263-.312-.269-.253.077-.046.23.275.251.458-.21-.059-.062.192-.135.218l.114.018c.091.196.016.212-.03.325-.098-.135.013-.147-.056-.189.112.381-.422-.192-.417.102-.14-.085-.222-.335-.328-.385 0 .323-.317-.151-.349.136.197.216.168.152.207.456l.149-.327.058.453c.079-.043.068-.251.14-.239.047.247.016.181.182.36-.337-.3-.078.34-.357.169l-.374-.606c-.35-.157-.132.508-.466.502l.142.058c.116.261-.127.123-.145.269-.117-.207-.21-.252-.32-.358.095.148-.183.092.041.511l-.268-.203c-.259.007.129.713-.099.758-.077-.256-.247-.349-.219-.583-.062.036-.14.031-.057.173-.112-.105-.008.381-.18.221.027.105.145.325.066.351-.032-.037-.06-.102-.06-.102.06.102-.029.204.166.394-.568-.524-.509.374-.997-.079a1.628 1.628 0 0 1-.347.387c-.026-.066-.058-.103-.021-.094-.283-.098.228.652-.092.546-.29-.279.003-.239-.131-.331-.411-.666-.187.224-.544-.102l.01-.058c-.231-.177-.104.395-.298.437 0 0-.025-.065-.056-.104.078.412-.075.646-.184.831-.094-.296-.004-.183-.182-.439-.05.078.259.428.156.582-.127-.121-.3-.193-.47-.478l.126-.09c-.272-.34-.167.108-.273.082l-.08-.17c-.178.166.041.585-.198.677l.09.113c.096.481-.225-.177-.185.198l-.258-.401c-.027.145-.068.564-.178.712-.076-.352.012-.6.017-.845-.079.042-.253.177-.189.404.012-.056-.001-.18.065-.131.073.38.024.609-.143.682-.39-.835-.53.002-.969-.58-.133.445-.631.148-.939.359.433.586-.087.066.254.718-.057.081-.092.085-.12.046l-.427-.281c-.148-.166.004-.183-.075-.328-.194.033-.206-.246-.401-.368.135.226.103.369-.036.326l.281.239c-.068.471-.469-.458-.541.01l-.023-.246c-.063.186-.452.214-.329.8-.057-.067-.171-.237-.138-.309-.333.05-.404.866-.786.636l-.05-.174c-.035.072.04.351-.104.217-.026-.07-.049-.174-.08-.172-.004.068-.02.353-.136.289l-.019-.212c-.385-.089-.249.648-.445.87-.21-.487-.506-.544-.654-.572l-.025-.072c-.361.093-.404.655-.647.972-.417-.454-.762.042-1.199-.132.084.071.144.388.106.459-.113-.07-.072.424-.237-.033l.03-.001c-.231-.422-.336-.243-.461-.208l.21.6c-.644-.739-.703.647-1.171-.074-.02.176-.116.208-.137.384l-.114-.321c-.242-.007-.361-.01-.595.16l-.029-.249c-.154.032.144.992.013 1.059l-.21-.464c-.257.099-.663-.231-.767.296-.021-.072-.061-.214-.026-.249-.126.032-.578-.159-.312.485-.148-.429-.284.044-.363.279l-.083-.325c.015.444.047.557-.084.723-.052-.03-.117-.245-.038-.18-.186-.125-.005.335-.22.216l-.006-.223c-.143.019-.098.124-.097.387-.045.155-.284.001-.395-.282.038.182.037.442-.07.384a.422.422 0 0 1-.032-.221c-.294-.147-.223.48-.476.214a.586.586 0 0 0-.085-.183c.183-.05.333-.078.327-.05-.091-.296-.252-.301-.263-.746-.047.259-.098.807-.282.712a.735.735 0 0 1-.05-.096l.005-.037c-.041-.02-.062.017-.075.075-.059-.036-.1-.064-.144-.056-.091-.241-.207-.086-.283-.077.101.324-.01.299.158.541-.017-.02.003-.042.048-.07.008-.013.019-.022.02-.042l.004.029c.046-.023.105-.047.176-.073-.009.181-.029.338-.163.18l.051.553c-.234-.425-.497-.615-.604-.887-.171.245-.489.268-.46.92-.042.098-.123-.154-.172-.244.02-.072.066-.074.061-.168-.083.193-.359.167-.274.604-.213-.148-.016-.42-.218-.287l-.005-.14c-.611-.571-.426 1.277-1.137.518.048.046.07.066.095.137-.644-.247-1.06.644-1.747.141-.182-.091-.139.189-.191.421l-.108-.347-.078.445c-.174.346-.573-.798-.753-.171l.082.233c-.112-.025-.307.206-.34-.074-.003.046.01.257-.053.138l-.037-.186-.203.364c-.222-.102-.093-.749-.385-.737-.091.089-.208.591-.156.712.043.003.125.101.156.289l-.087.113c.061.558.038 1.141.379 1.486.051-.122.09-.245.133-.368l.102.259-.151.042c.126.238.147.005.184-.158.037.14.079.235.124.283l.088-.558c.059.212-.006.442.135.541.042-.259-.163-.471-.055-.656.13.237.144.446.204.213.04.139.037.234.007.303.059-.186.223-.117.215-.418.146.291.283-.139.375.384.004-.131.077-.44.153-.476-.023.651.314-.023.411.651-.007-.584.345-.336.472-.689-.002.047-.002.141-.027.117.119.022.188.183.282.272-.088-.463.057-.605.084-.909.233.415.042.558.181.975-.091-.372.147-.424.03-.724.166.252.119.114.26.483-.116-.579.074-.117.074-.492.212.247.165.528.285.314.119.156.024.395.024.395zM78.248 186.617c.06.03.003.067-.06.096a.261.261 0 0 0-.066-.065l-.041.008c.063-.017.122-.032.167-.039zm-2 1.384a.382.382 0 0 0-.032-.131c.106-.048.224-.077.228-.046-.079.01-.118.1-.196.177zm-2.243-3.433c.04.152.437-.063.691-.109.178.139-.286.183-.483.313.148.076.565.035.575.122-.068.03-.088.054-.181.064.374.008.13.342.598.34a.554.554 0 0 1-.1.052c.205-.091.42-.166.575-.212.028.064.307.035.039.151-.005-.043-.118-.01-.21 0l.143.029c-.377.194-.169-.049-.463.049.174.092.555.142.477.283-.38.15-.21-.2-.51.053l.094-.211c-.57.327.011-.111-.606.219-.043.25.276.173.233.422.231-.025.315-.123.546-.147.486.17-.897.565-.304.613.278-.032.775-.176.57.069l-.456.096c.027.219.67-.098.448.217-.185.021-.2-.112-.241-.063-.299.257.283.014.32.12l-.382.156c.137.197.497.341.654.556-.119.027-.255.028-.353.126.302.236.184.665.06 1.041l.373-.008c.006.028-.133.103-.207.098-.086.16.213-.07.363-.063.046.057-.161.155-.275.15.355.101.819.35.54.693l-.113-.005c-.073.215.748-.066.496.2l-.07-.007c-.012.412.44.689.049 1.15.495-.131-.075.435.595.201-.248.331-.389.318-.498.691 0 .089.456-.048.562.019l-.345.139.415-.016-.385.232.124.053c.006-.043.124-.137.226-.171.212.075-.103.432-.279.507l.425.209c-.141.049-.211.013-.317.006.422.031-.349.179.037.208.07-.054.21-.072.28-.097-.174.165-.102.347.04.445l-.247.072c.036.268.33.463.44.735.068-.144.486-.295.56-.233l-.348.186c.245-.045.101-.141.42-.153.001.118-.382.243-.524.235l.178.07c-.105.053-.174.049-.315.1.246-.046-.27.369.15.274l-.104.053c.115.273.29.341.404.554.313-.134.284-.018.563-.064-.025.203-.186.491-.072.673.216.066.28-.08.49-.103-.275.138-.16.32-.407.312.152.211.192.271.552.457.1-.086.133-.145.238-.172.069.032-.061.175-.199.232h-.035c.575.121-.438 1.147.269 1.124h-.036l.433.118c.013.148-.244.031-.37.208.601.058.175.492.604.571-.705.613.404.621.029 1.149l.178-.12c.218-.039-.064.135-.081.206.142-.089.13-.162.254-.181.522.396.34 1.233.479 1.866.063.225 1.023-.442.723.059l-.385.13c.643.152.457.811 1.033.99-.093.024-.196.084-.217.045-.202.228.164.308.369.189.01.073-.176.122-.258.22-.1.169.437.016.216.207-.036.031-.095.025-.123.021.151-.019.116.264.373.043-.05.225.292.197.192.413.365-.118-.006.337.46.089-.473.27-.224.477.049.435-.158.055-.098.167-.314.249.069.1.212.142.44-.021-.44.529.68.108.031.65.44.152.782.329 1.061.534-.468.277-.234-.273-.711.038.351.142.84.045.888.372-.021.105-.223.086-.316.113.35.141.27.528.668.598a.31.31 0 0 1-.156.031c.043.035 0 .147.204.01l-.085-.009c.258-.263.748-.221.913-.314-.647.302-.007.32-.84.678a.552.552 0 0 0 .317-.116c-.014.069-.086.136-.274.192.218.089.403-.109.491.039-.1.064-.16.06-.287.121.243-.052.487-.104.481.075-.065.031-.135.095-.157.058.166.192.75.026.713.378-.48.214-.092.172-.462.428l.194.052.15-.169c.065.112.402.03.34.204l-.207.02.203.157.068-.208c.266-.017.47-.322.459-.11-.057-.003.065.112-.119.314h-.002c.156-.025.318-.053.276.088-.106.1-.427.257-.498.323.35-.153.254.198.633.044a1.443 1.443 0 0 0-.327.191l.285-.123c-.048.103-.083.137-.245.233.054.181.443-.363.357-.049-.03 0-.062.031-.12.028.012.25.392.239.377.487-.344.299-.189-.083-.47.185.228.192.78.19.845.478l.013-.07c.55-.326-.146.346.183.293-.058-.001-.32.162-.255.13.022.213.349.231.676.354l-.155.064c-.058.175.095.29.102.432.155-.063.172.009.345-.162-.556.837.816.295.365 1.01-.024-.031-.171.005-.154.031l.285.144c.215-.178.117-.127.26-.3.156-.065.306-.074.345-.018-.223.004-.365.258-.46.392.065-.056.153-.095.22-.149-.32.405.472-.303.315.053l-.124.075c.104.018.301-.038.314.052-.243.214-.17.022-.388.171.081.082.627-.171.424.099-.1.013-.142-.043-.242-.03-.244.31-.158.264-.16.367l.004-.012-.028.256.054-.099c.766-.372.294.147.852-.02-.53.154-.262.151-.566.352-.054.099-.102.226-.198.269.291-.099-.098.259.325.11-.092.074.048.086-.203.242.145.042.149-.142.274-.221.43-.089-.142.633.459.518.316.047.659-.155.941-.105-.109.168-.378.209-.378.209-.072.193.006.243.178.249-.095.044-.151.113-.237.219.075.05.376-.211.306-.017-.117.064-.3.169-.43.215.149.017.384-.035.532-.015-.146.145-.287.136-.415.187.145.039.334.133.613-.034l.047-.13c.038.025-.208.186-.276.196-.264.073.001-.185.092-.26l.106.015c.503-.476-.27-.173-.327-.317l.439-.251-.425.126c.084-.104.296-.29.4-.275.134-.233-.2.031-.034-.208.03-.033.05-.044.072-.048l-.181.005c.095-.047.272-.225.252-.13.122-.323-.48-.02-.217-.302l.034-.006c-.29-.109-.31.199-.775.296l.654-.642-.312.196c-.005-.028-.015-.088.11-.167-.262.069-.118.108-.346.201.195-.301-.336-.196.121-.564-.253.127-.102.228-.34.23.488-.402-.181-.067-.016-.332.285-.16.21.031.378-.235-.489.264-.037-.256-.18-.274-.36.25-.275-.07-.49-.122.125-.076.013-.395.054-.612l.063-.039c-.379.231-.404.052-.547.01.22-.148.317-.191.45-.208l-.064-.088c-.13.06-.21.075-.293.046l.286-.168c-.097-.108-.486-.017-.413-.297-.26.168-.619.613-.902.568.132-.101.363-.27.448-.266-.028-.002-.148.028-.11-.041l.276-.094c.053-.14-.217.097-.235.026.196-.135.11-.139.27-.238.03.001-.046.105.046.073-.01-.088.053-.244.185-.372-.108.082-.264.182-.321.154-.099-.11.206-.204.259-.342-.156.064-.069-.109-.363.091-.023-.036.11-.137.179-.206-.172.027-.235-.264-.499.02l-.01.03-.02-.001c-.431-.005-.124-.539-.388-.656l.099-.066c-.194-.044-.25-.224-.521-.168-.025-.036.123-.207.25-.27-.136-.043-.253.021-.18-.223.234-.022.13-.135.19.011.004-.177.145-.311-.212-.26.283-.125.258-.304.144-.311l-.124.206c-.08-.04-.096-.111-.113-.183l.354-.191c.243-.516-.99.013-.433-.626-.277.089-.076.244-.389.365-.03-.144.373-.579.352-.616.084-.277-.586.175-.566-.072-.106.099-.412.328-.606.279-.03-.144.41-.469.554-.459.029.02-.002.059-.043.084.068.008.15.024.251-.107l-.13.064c.086-.137-.03-.285.191-.376-.17-.013-.22.091-.24.194.077-.258-.146-.232-.127-.458-.051.066-.177.18-.193.155.005-.318-.291.05-.441-.067.128-.205.457-.251.205-.305.066-.173.308-.225.43-.25-.32.009-.013-.357-.02-.463l.143.011c-.086-.007-.107-.044-.13-.081l-.213.196c.014-.069-.008-.106.093-.17-.187.057-.38.291-.651.34.086-.135-.243-.091.064-.314.006.249.31-.224.458-.105-.058-.005-.078-.041-.063-.112a.144.144 0 0 1 .096-.035c.176-.354-.413.15-.519-.033.195-.091.316-.258.26-.262.042.074-.28.225-.46.247.066-.203-.185-.059-.207-.128l-.023.109c-.195.092-.208.019-.315-.025.136-.096.143.012.186-.056-.374.111.202-.407-.09-.397.088-.135.337-.219.39-.321-.323.007.155-.307-.13-.331-.219.194-.154.164-.456.209l.321.134-.45.067c.042.075.248.057.234.127-.245.051-.179.02-.36.182.304-.329-.336-.065-.16-.335l.606-.372c.162-.339-.5-.115-.488-.433l-.061.137c-.26.118-.12-.118-.263-.13.207-.119.252-.209.36-.318-.148.096-.088-.172-.507.055l.206-.263c0-.249-.704.145-.742-.074.253-.081.349-.248.578-.227-.033-.06-.028-.135-.17-.051.107-.11-.371.004-.212-.167-.104.03-.322.15-.344.074.036-.032.1-.06.1-.06-.1.06-.2-.021-.39.173.526-.564-.352-.479.1-.963-.147-.088-.306-.202-.39-.312.066-.029.102-.06.094-.025.096-.274-.645.248-.542-.062.277-.289.237-.008.328-.14.659-.424-.223-.168.099-.523l.056.006c.174-.229-.39-.08-.432-.263 0 0 .063-.028.101-.059-.406.096-.638-.038-.821-.131.291-.107.18-.014.432-.199-.077-.044-.42.271-.574.182.12-.128.19-.298.469-.477l.09.117c.334-.28-.109-.155-.083-.259l.168-.085c-.163-.163-.575.071-.664-.155l-.11.092c-.473.119.173-.226-.194-.167l.393-.27c-.142-.019-.549-.036-.704-.127.351-.097.597-.029.835-.035a.324.324 0 0 0-.401-.158c.058.007.18-.013.133.053-.377.094-.606.064-.683-.089.817-.427-.018-.502.544-.96-.449-.096-.151-.586-.362-.86-.575.446-.065-.078-.705.287-.08-.05-.084-.083-.046-.112l.274-.419c.164-.15.18-.009.323-.091-.032-.181.243-.21.363-.4-.223.142-.364.12-.322-.014l-.235.28c-.465-.037.45-.469-.003-.513l.24-.035c-.178-.051-.2-.417-.787-.267.067-.058.235-.175.307-.148-.052-.309-.869-.33-.64-.703l.173-.057c-.071-.028-.347.055-.213-.087.069-.028.172-.055.171-.084-.069 0-.35-.004-.286-.116l.211-.028c.09-.368-.638-.207-.855-.385.483-.219.542-.502.572-.642l.07-.027c-.082-.34-.636-.362-.957-.576.45-.412-.05-.716.126-1.137-.07.083-.384.151-.455.118.07-.11-.42-.052.035-.227l.002.028c.419-.235.243-.329.21-.446l-.597.221c.739-.641-.632-.644.075-1.113-.176-.013-.209-.102-.383-.115l.318-.121c.005-.229.007-.344-.164-.558l.246-.038c-.032-.145-.985.18-1.054.059l.462-.221c-.102-.238.222-.639-.297-.718.07-.021.21-.066.245-.035-.03-.117.16-.56-.48-.275.425-.161-.052-.266-.289-.328l.323-.096c-.444.038-.555.075-.724-.041.026-.051.24-.124.177-.045.121-.183-.335.013-.22-.198l.221-.016c-.02-.136-.125-.087-.386-.072-.154-.034-.005-.27.275-.39-.18.045-.438.059-.384-.046a.433.433 0 0 1 .22-.042c.139-.289-.48-.185-.223-.441a.624.624 0 0 0 .181-.091c.053.171.083.312.056.307.292-.103.294-.257.736-.292-.258-.03-.803-.047-.713-.227a3 3 0 0 1 .095-.054l.038.002c.018-.04-.02-.058-.077-.066.032-.059.058-.098.048-.141.237-.099.077-.201.067-.272-.319.116-.297.009-.533.184.018-.018.043 0 .071.041.014.007.022.017.043.017l-.03.005c.025.041.052.097.08.162-.181.002-.337-.007-.186-.143l-.549.084c.414-.249.594-.511.861-.631-.251-.145-.286-.446-.934-.374-.097-.033.15-.126.237-.18.072.014.077.058.17.046-.196-.065-.178-.33-.61-.217.141-.213.417-.045.28-.228l.138-.015c.541-.626-1.3-.301-.577-1.036-.043.048-.063.072-.132.102.218-.635-.701-.944-.25-1.642.078-.182-.198-.114-.432-.139l.338-.138-.447-.028c-.36-.125.74-.629.102-.731l-.224.105c.015-.109-.23-.267.044-.331-.046.003-.254.041-.143-.034l.182-.057-.385-.146c.08-.224.734-.184.692-.463-.1-.079-.614-.127-.726-.058.002.043-.085.136-.268.191l-.122-.064c-.544.137-1.119.215-1.427.562l.376.066-.246.127-.056-.131c-.223.149.01.135.174.146a.764.764 0 0 0-.269.152l.562.006c-.205.082-.44.053-.524.193.261.003.451-.209.644-.134-.221.148-.428.185-.192.213-.134.054-.229.062-.3.044.19.031.134.191.432.147-.277.17.16.245-.35.391.13-.012.442.02.485.087-.65.051.048.284-.615.45.577-.069.355.283.712.363-.045.004-.14.012-.116-.012-.015.113-.17.193-.254.289.455-.129.606-.007.91-.013-.397.257-.552.094-.957.264.363-.122.43.094.72-.043-.238.177-.104.12-.461.286.567-.162.122.056.492.022-.234.222-.515.203-.297.294-.15.125-.39.059-.39.059z" fill="#fff"/></mask><g mask="url(#d)"><path fill="#fff" d="M64.347 121.316h195.792v158.923H64.347z"/></g></svg>