<svg width="306" height="280" fill="none" xmlns="http://www.w3.org/2000/svg"><path fill-rule="evenodd" clip-rule="evenodd" d="M298.186 150.573c.283 1.419.535 2.91.633 4.433.159 2.143.402 4.293.307 6.306-.041 1.796-.082 3.447-.194 4.861-.255-10.969-2.195-22.175-5.775-33.31-10.748-33.43-20.447-55.883-32.18-71.886 2.44 2.928 4.74 5.99 6.899 9.152.634-.001-.827-2.936-1.858-5.098-1.109-2.108-1.739-3.482.905-.432 2.182 3.158 1.551 3.168 1.77 3.95a152.492 152.492 0 0 1 6.048 9.711c-.155 1.32-.274 2.61-.476 3.923 3.114 8.911 6.564 15.497 10.327 22.823 3.741 7.313 7.764 15.347 11.188 27.014.386.575.709.983.985 1.262-.134.797-.179 1.871-.041 3.381.064.8.216 1.71.364 2.777.13 1.073.317 2.286.571 3.665.57 2.745 1.136 6.206 1.968 10.55-.653-2.608-.916-1.078-1.441-3.082zM110.562 271.544c-2.263-.758-2.985-1.257-2.951-1.619 3.605.711 7.298 1.343 11.076 1.892-3.459-.18-6.415-.331-8.125-.273zM39.478 47.389c6.836-9.14 14.983-17.6 24.495-24.279-5.39 4.09-9.698 8.414-13.195 12.371C39.42 46.973 30.272 60.952 23.16 75.98c4.282-9.868 9.598-19.625 16.318-28.59zm133.25-35.023c5.074 1.552 15.204 4.882 13.599 5.34.786.329 1.608.623 2.418.93-6.098-1.72-12.607-3.442-19.594-5.24.455-.612.704-1.255 3.577-1.03zm75.535 34.252a72.945 72.945 0 0 1 2.498 2.018c.857.696 1.664 1.498 2.458 2.38.788.885 1.625 1.793 2.357 2.868.104.188-.095.088-.398-.114a88.33 88.33 0 0 0-7.804-7.773c.297.204.595.405.889.621zm57.187 112.994c-.019-.941-.145-1.816-.22-2.651a91.844 91.844 0 0 0-.582-4.491c-.519-2.672-1.155-4.792-1.778-6.818-.681-2.013-1.505-3.9-2.331-6.136-.393-1.124-.916-2.298-1.443-3.614-.358-.891-.729-1.85-1.114-2.88.412-2.429-1.309-10.36-1.516-13.755l.134 2.457c-1.386-2.717-2.614-3.804-4.22-9.752-1.652-5.973 2.033 2.817 1.123-1.391-2.778-9.452-5.286-14.705-7.775-19.52l-9.299-16.687c-6.267-14.047-14.802-24.16-25.196-32.006-5.207-3.929-10.895-7.253-17.138-10.323-6.249-3.08-13.074-5.887-20.762-8.875 5.282 2.397 10.665 5.09 16.359 8.465 5.683 3.385 11.679 7.481 17.852 12.939-3.66-2.726-7.626-4.973-11.591-7.08l.036.035c-8.496-5.342-18.194-9.58-29.595-13.463 4.566 1.24 8.657 2.42 11.642 3.445-4.639-2.948-12.795-6.424-18.293-8.883-5.487-2.495-8.294-4.175-2.146-3.936-7.287-2.443-11.634-3.465-15.446-4.152-3.815-.697-7.1-1.044-12.289-1.984-5.088-1.571-14.27-3.436-15.276-4.68-5.051-.568-7.33-.848-10.264-1.31-1.474-.201-3.098-.491-5.298-.942-1.106-.198-2.335-.554-3.8-.743l-5.045-.76c-2.649-.228-5.297-.085-7.635.036-2.338.116-4.373.255-5.844.595-2.945.57-3.622 1.047-.059 1.162 9.738-.474 19.465.352 28.992 2.04 6.512 2.443 3.086 2.487-1.378 2.292-2.582.02-5.501-.047-7.195.049-23.422-2.99-43.424 1.035-60.261 9.788.28-.166.562-.332.84-.504l4.362-2.62 4.558-2.293-4.701 1.853-4.552 2.194c-.755.375-1.525.72-2.266 1.12l-2.186 1.266c-1.446.861-2.94 1.65-4.347 2.573 1.117-1.622 3.784-4.14 4.328-5.413.274-.626.017-.918-1.242-.566-.63.177-1.512.514-2.703 1.054-.595.27-1.268.59-2.025.965-.731.415-1.533.905-2.428 1.454-1.325 1.075-2.669 2.106-3.945 3.2l-3.697 3.395c-1.251 1.094-2.387 2.3-3.524 3.49-1.13 1.197-2.302 2.342-3.387 3.56-2.102 2.5-4.317 4.863-6.239 7.462-.982 1.279-2.006 2.522-2.964 3.813l-2.804 3.925c-.967 1.285-1.844 2.632-2.726 3.98l-2.678 4.026-2.557 4.13c-.427.69-.878 1.369-1.294 2.07l-1.23 2.118-2.511 4.247-2.429 4.353c-.85 1.445-1.633 2.932-2.426 4.43l-2.44 4.513c-7.5 16.858-12.644 35.018-15.327 53.888-.357 2.355-.578 4.737-.868 7.114-.256 2.38-.407 4.78-.61 7.178-.126 2.415-.192 4.851-.283 7.282.041 2.439.047 4.883.142 7.33.48 9.789 2.165 19.649 5.283 29.15-.575-6.732 2.995 8.189.631-3.932.6 1.391 1.16 2.712 1.698 4.073.165.441.35.884.542 1.329a99.458 99.458 0 0 0 5.532 13.867c-2.046-2.631-2.76-3.139-2.672-2.284.114.899 1.065 3.334 2.327 6.056l2.074 4.133c.68 1.367 1.438 2.608 1.966 3.709.547 1.088.925 2.003 1.056 2.587.145.575.003.849-.551.683 5.68 7.721 8.454 11.523 11.266 15.73 1.505 1.998 2.957 4.185 5.256 6.502 2.226 2.4 5.192 5.07 9.542 8.108 5.691 2.837 3.383.475-.852-3.16-4.204-3.729-9.955-9.296-12.193-12.097 1.485 1.267 3.335 3.308 5.39 5.136-.732-.823-1.467-1.619-2.12-2.461a82.938 82.938 0 0 1-1.825-2.511 65.433 65.433 0 0 1-1.57-2.358 38.89 38.89 0 0 1-1.17-2.219c-.777-1.581-1.224-2.863-1.296-3.717 7.903 8.942 17.603 16.728 29.01 23.21-.458 1.306-.495 2.597 3.935 4.944.723.953 2.697 2.016 5.219 3.281 1.254.649 2.691 1.238 4.205 1.829 1.515.588 3.083 1.237 4.683 1.792 6.401 2.246 12.896 4.04 14.723 5.479 10.736 2.431 20.217 4.821 28.515 6.247 8.283 1.408 15.321 1.994 20.803.529 2.644.582 5.301 1.25 7.972 1.763l8.055 1.531c.816.06 1.615.122 2.399.157l2.309.031a147.985 147.985 0 0 0 8.445-.196c1.316-.097 2.591-.251 3.836-.392a243.32 243.32 0 0 0 7.167-.964l6.857-1.325c3.994-1.581-10.112-.604.687-3.256 1.981-.297 4.627-.907 7.275-1.352a71.84 71.84 0 0 1 3.886-.567c1.241-.135 2.376-.323 3.355-.354.576.226-.381.713-1.628 1.2-1.243.506-2.799.857-3.355 1.065 2.61-.435 5.088-1.038 7.506-1.495 2.416-.467 4.764-.85 7.018-1.369 2.26-.479 4.476-.873 6.637-1.288a282.55 282.55 0 0 1 6.324-1.372c8.242-1.91 16.079-3.77 23.827-7.202l1.867-1.026c.623-.358 1.232-.76 1.86-1.141l3.818-2.353c1.316-.757 2.554-1.687 3.839-2.566l3.868-2.692c4.997-3.886 10.039-8 14.214-12.615 2.205-2.189 4.048-4.614 5.886-6.863.947-1.105 1.684-2.334 2.486-3.46.777-1.145 1.534-2.258 2.238-3.348 1.276-2.27 2.456-4.382 3.402-6.346.858-2.013 1.559-3.834 2.072-5.415-1.07 1.919-2.086 3.865-3.207 5.746-1.193 1.841-2.366 3.69-3.579 5.508 2.48-4.102 3.588-6.259 3.834-7.564.3-1.277-.005-1.572-.253-1.919-.248-.346-.44-.743.066-2.187.255-.72.702-1.693 1.259-3.122.294-.709.644-1.518 1.06-2.445.403-.932.939-1.955 1.38-3.182.76-1.796 1.404-3.254 1.951-4.432.535-1.181.871-2.112 1.213-2.793.652-1.371 1.06-1.821 1.354-1.823.59-.009.72 1.802 1.48 1.47.306-1.083.673-2.247.939-3.5.235-1.26.481-2.583.736-3.944l.367-2.067c.101-.699.162-1.411.244-2.121l.464-4.273c.138-1.418.158-2.83.251-4.193.057-1.365.206-2.687.214-3.943.031-2.513.167-4.758.34-6.532.148 5.094.469 3.134.806.453.181-2.669.267-6.051.414-3.634a2963 2963 0 0 0-.052-2.986z" fill="#FFF0E1"/><mask id="a" mask-type="alpha" maskUnits="userSpaceOnUse" x="0" y="0" width="306" height="280"><path fill-rule="evenodd" clip-rule="evenodd" d="M298.186 150.573c.283 1.419.535 2.91.633 4.433.159 2.143.402 4.293.307 6.306-.041 1.796-.082 3.447-.194 4.861-.255-10.969-2.195-22.175-5.775-33.31-10.748-33.43-20.447-55.883-32.18-71.886 2.44 2.928 4.74 5.99 6.899 9.152.634-.001-.827-2.936-1.858-5.098-1.109-2.108-1.739-3.482.905-.432 2.182 3.158 1.551 3.168 1.77 3.95a152.492 152.492 0 0 1 6.048 9.711c-.155 1.32-.274 2.61-.476 3.923 3.114 8.911 6.564 15.497 10.327 22.823 3.741 7.313 7.764 15.347 11.188 27.014.386.575.709.983.985 1.262-.134.797-.179 1.871-.041 3.381.064.8.216 1.71.364 2.777.13 1.073.317 2.286.571 3.665.57 2.745 1.136 6.206 1.968 10.55-.653-2.608-.916-1.078-1.441-3.082zM110.562 271.544c-2.263-.758-2.985-1.257-2.951-1.619 3.605.711 7.298 1.343 11.076 1.892-3.459-.18-6.415-.331-8.125-.273zM39.478 47.389c6.836-9.14 14.983-17.6 24.495-24.279-5.39 4.09-9.698 8.414-13.195 12.371C39.42 46.973 30.272 60.952 23.16 75.98c4.282-9.868 9.598-19.625 16.318-28.59zm133.25-35.023c5.074 1.552 15.204 4.882 13.599 5.34.786.329 1.608.623 2.418.93-6.098-1.72-12.607-3.442-19.594-5.24.455-.612.704-1.255 3.577-1.03zm75.535 34.252a72.945 72.945 0 0 1 2.498 2.018c.857.696 1.664 1.498 2.458 2.38.788.885 1.625 1.793 2.357 2.868.104.188-.095.088-.398-.114a88.33 88.33 0 0 0-7.804-7.773c.297.204.595.405.889.621zm57.187 112.994c-.019-.941-.145-1.816-.22-2.651a91.844 91.844 0 0 0-.582-4.491c-.519-2.672-1.155-4.792-1.778-6.818-.681-2.013-1.505-3.9-2.331-6.136-.393-1.124-.916-2.298-1.443-3.614-.358-.891-.729-1.85-1.114-2.88.412-2.429-1.309-10.36-1.516-13.755l.134 2.457c-1.386-2.717-2.614-3.804-4.22-9.752-1.652-5.973 2.033 2.817 1.123-1.391-2.778-9.452-5.286-14.705-7.775-19.52l-9.299-16.687c-6.267-14.047-14.802-24.16-25.196-32.006-5.207-3.929-10.895-7.253-17.138-10.323-6.249-3.08-13.074-5.887-20.762-8.875 5.282 2.397 10.665 5.09 16.359 8.465 5.683 3.385 11.679 7.481 17.852 12.939-3.66-2.726-7.626-4.973-11.591-7.08l.036.035c-8.496-5.342-18.194-9.58-29.595-13.463 4.566 1.24 8.657 2.42 11.642 3.445-4.639-2.948-12.795-6.424-18.293-8.883-5.487-2.495-8.294-4.175-2.146-3.936-7.287-2.443-11.634-3.465-15.446-4.152-3.815-.697-7.1-1.044-12.289-1.984-5.088-1.571-14.27-3.436-15.276-4.68-5.051-.568-7.33-.848-10.264-1.31-1.474-.201-3.098-.491-5.298-.942-1.106-.198-2.335-.554-3.8-.743l-5.045-.76c-2.649-.228-5.297-.085-7.635.036-2.338.116-4.373.255-5.844.595-2.945.57-3.622 1.047-.059 1.162 9.738-.474 19.465.352 28.992 2.04 6.512 2.443 3.086 2.487-1.378 2.292-2.582.02-5.501-.047-7.195.049-23.422-2.99-43.424 1.035-60.261 9.788.28-.166.562-.332.84-.504l4.362-2.62 4.558-2.293-4.701 1.853-4.552 2.194c-.755.375-1.525.72-2.266 1.12l-2.186 1.266c-1.446.861-2.94 1.65-4.347 2.573 1.117-1.622 3.784-4.14 4.328-5.413.274-.626.017-.918-1.242-.566-.63.177-1.512.514-2.703 1.054-.595.27-1.268.59-2.025.965-.731.415-1.533.905-2.428 1.454-1.325 1.075-2.669 2.106-3.945 3.2l-3.697 3.395c-1.251 1.094-2.387 2.3-3.524 3.49-1.13 1.197-2.302 2.342-3.387 3.56-2.102 2.5-4.317 4.863-6.239 7.462-.982 1.279-2.006 2.522-2.964 3.813l-2.804 3.925c-.967 1.285-1.844 2.632-2.726 3.98l-2.678 4.026-2.557 4.13c-.427.69-.878 1.369-1.294 2.07l-1.23 2.118-2.511 4.247-2.429 4.353c-.85 1.445-1.633 2.932-2.426 4.43l-2.44 4.513c-7.5 16.858-12.644 35.018-15.327 53.888-.357 2.355-.578 4.737-.868 7.114-.256 2.38-.407 4.78-.61 7.178-.126 2.415-.192 4.851-.283 7.282.041 2.439.047 4.883.142 7.33.48 9.789 2.165 19.649 5.283 29.15-.575-6.732 2.995 8.189.631-3.932.6 1.391 1.16 2.712 1.698 4.073.165.441.35.884.542 1.329a99.458 99.458 0 0 0 5.532 13.867c-2.046-2.631-2.76-3.139-2.672-2.284.114.899 1.065 3.334 2.327 6.056l2.074 4.133c.68 1.367 1.438 2.608 1.966 3.709.547 1.088.925 2.003 1.056 2.587.145.575.003.849-.551.683 5.68 7.721 8.454 11.523 11.266 15.73 1.505 1.998 2.957 4.185 5.256 6.502 2.226 2.4 5.192 5.07 9.542 8.108 5.691 2.837 3.383.475-.852-3.16-4.204-3.729-9.955-9.296-12.193-12.097 1.485 1.267 3.335 3.308 5.39 5.136-.732-.823-1.467-1.619-2.12-2.461a82.938 82.938 0 0 1-1.825-2.511 65.433 65.433 0 0 1-1.57-2.358 38.89 38.89 0 0 1-1.17-2.219c-.777-1.581-1.224-2.863-1.296-3.717 7.903 8.942 17.603 16.728 29.01 23.21-.458 1.306-.495 2.597 3.935 4.944.723.953 2.697 2.016 5.219 3.281 1.254.649 2.691 1.238 4.205 1.829 1.515.588 3.083 1.237 4.683 1.792 6.401 2.246 12.896 4.04 14.723 5.479 10.736 2.431 20.217 4.821 28.515 6.247 8.283 1.408 15.321 1.994 20.803.529 2.644.582 5.301 1.25 7.972 1.763l8.055 1.531c.816.06 1.615.122 2.399.157l2.309.031a147.985 147.985 0 0 0 8.445-.196c1.316-.097 2.591-.251 3.836-.392a243.32 243.32 0 0 0 7.167-.964l6.857-1.325c3.994-1.581-10.112-.604.687-3.256 1.981-.297 4.627-.907 7.275-1.352a71.84 71.84 0 0 1 3.886-.567c1.241-.135 2.376-.323 3.355-.354.576.226-.381.713-1.628 1.2-1.243.506-2.799.857-3.355 1.065 2.61-.435 5.088-1.038 7.506-1.495 2.416-.467 4.764-.85 7.018-1.369 2.26-.479 4.476-.873 6.637-1.288a282.55 282.55 0 0 1 6.324-1.372c8.242-1.91 16.079-3.77 23.827-7.202l1.867-1.026c.623-.358 1.232-.76 1.86-1.141l3.818-2.353c1.316-.757 2.554-1.687 3.839-2.566l3.868-2.692c4.997-3.886 10.039-8 14.214-12.615 2.205-2.189 4.048-4.614 5.886-6.863.947-1.105 1.684-2.334 2.486-3.46.777-1.145 1.534-2.258 2.238-3.348 1.276-2.27 2.456-4.382 3.402-6.346.858-2.013 1.559-3.834 2.072-5.415-1.07 1.919-2.086 3.865-3.207 5.746-1.193 1.841-2.366 3.69-3.579 5.508 2.48-4.102 3.588-6.259 3.834-7.564.3-1.277-.005-1.572-.253-1.919-.248-.346-.44-.743.066-2.187.255-.72.702-1.693 1.259-3.122.294-.709.644-1.518 1.06-2.445.403-.932.939-1.955 1.38-3.182.76-1.796 1.404-3.254 1.951-4.432.535-1.181.871-2.112 1.213-2.793.652-1.371 1.06-1.821 1.354-1.823.59-.009.72 1.802 1.48 1.47.306-1.083.673-2.247.939-3.5.235-1.26.481-2.583.736-3.944l.367-2.067c.101-.699.162-1.411.244-2.121l.464-4.273c.138-1.418.158-2.83.251-4.193.057-1.365.206-2.687.214-3.943.031-2.513.167-4.758.34-6.532.148 5.094.469 3.134.806.453.181-2.669.267-6.051.414-3.634a2963 2963 0 0 0-.052-2.986z" fill="#fff"/></mask><g mask="url(#a)"><rect x="-36.407" y="-47.716" width="379.594" height="379.594" rx="80" fill="#FFF0E1"/></g><path fill-rule="evenodd" clip-rule="evenodd" d="M110.193 81.234a34.789 34.789 0 0 1 4.542 10.07l-16.11 4.095c-.435-1.611-.926-2.925-1.842-4.37l13.41-9.795zm-12.52 14.989.14.546 18.296-4.652-.138-.546a35.938 35.938 0 0 0-5.171-11.456l-.327-.48-15.23 11.12.308.452c1.138 1.666 1.624 3.049 2.122 5.016zM70.447 85.952 60.11 71.542c-7.62 5.474-12.996 13.874-14.466 23.561l17.548 2.684a17.878 17.878 0 0 1 7.256-11.835zM53.161 121.977c-4.772-6.14-7.313-13.475-7.36-21.264l16.604.162a18.237 18.237 0 0 0 3.716 10.719l-12.96 10.383zm14.185-10.645c-2.496-3.111-3.817-6.86-3.815-10.889l.012-.684-18.855-.185-.014.918c0 8.319 2.752 16.145 7.956 22.633l.353.439L67.7 111.772l-.353-.44zM72.255 134.472a34.985 34.985 0 0 1-15.728-8.754l12.216-11.315a18.586 18.586 0 0 0 6.622 3.711l-3.11 16.358zm3.912-17.296a17.411 17.411 0 0 1-7.047-3.95l-.384-.353-13.839 12.819.415.414a36.132 36.132 0 0 0 17.258 9.603l.573.135 3.52-18.527-.496-.141zM80.877 82.583c5.329 0 10.1 2.338 13.38 6.03l13.265-11.778c-6.529-7.345-16.043-11.978-26.645-11.978a35.456 35.456 0 0 0-17.917 4.846l9.425 15.057c2.53-1.372 5.412-2.177 8.492-2.177zM80.878 135.564c-1.22 0-2.488-.071-3.78-.211.539-4.2 1.32-10.432 2.072-16.477.615.061 1.168.09 1.708.09 10.187 0 18.476-8.287 18.476-18.474 0-.337-.014-.685-.044-1.086l16.478-2.126a32.98 32.98 0 0 1 .167 3.212c0 19.339-15.735 35.072-35.077 35.072zm35.91-39.549-18.699 2.412.052.544c.059.608.085 1.078.085 1.521 0 9.565-7.782 17.346-17.349 17.346-.65 0-1.327-.045-2.129-.143l-.56-.069-.069.558a4664.8 4664.8 0 0 1-2.213 17.59l-.072.562.563.07c1.532.19 3.04.285 4.48.285 19.964 0 36.205-16.239 36.205-36.199 0-1.2-.076-2.478-.232-3.906l-.062-.57zM114.853 49.603l.007-.02a.277.277 0 0 1-.024.08c-.062.023-.082-.008-.091-.042a.662.662 0 0 0 .108-.018zm-.453-1.04v-.003c.04-.005.075-.007.096-.009l-.096.012zm-.262.116c.021-.036-.071-.068-.13-.113.048.005.107.007.17.005.014.055-.001.111-.04.108zm9.051-.359-.212.16-.069-.127.179-.007c-.101-.12-.166-.014-.237.059-.018-.068-.047-.116-.09-.141l-.208.25c-.026-.102.093-.203-.046-.26-.098.117.093.23-.068.307-.102-.119-.073-.216-.192-.114-.017-.068.009-.112.056-.14-.106.08-.281.033-.336.173-.105-.147-.358.038-.347-.21-.033.059-.188.195-.285.205.178-.298-.364-.017-.317-.337-.132.268-.477.12-.709.268.012-.021.038-.065.059-.05-.132-.023-.17-.104-.255-.154-.016.221-.221.272-.331.407-.161-.213.098-.258.047-.464.008.18-.28.179-.225.329-.123-.133-.106-.065-.169-.248-.022.276-.115.047-.217.216-.179-.136-.046-.258-.242-.174-.093-.084.081-.183.081-.183-.2-.004-.093.204-.136.323-.238.06-.11-.152-.191-.26-.149.056-.263.247-.373.24-.009-.035-.03-.048-.005-.091-.157.165-.466.009-.649.217a.133.133 0 0 1-.024-.053c.029.105.034.211.028.287-.089.003-.166.13-.199-.005.054.004.059-.05.084-.093l-.093.059c-.084-.196.128-.068.128-.213-.183.064-.395.226-.536.17-.029-.19.327-.064.141-.234l.217.073c-.166-.302.131.02-.021-.302-.285-.055-.319.097-.603.041-.064.107.022.158-.043.264-.403.191-.318-.481-.615-.226-.077.127-.106.37-.318.241l.072-.216c-.276-.022-.157.311-.447.166.052-.086.217-.072.176-.098-.188-.17-.133.123-.277.123l-.029-.192c-.294.03-.617.17-.943.204.018-.057.074-.117-.002-.176-.411.096-.876-.023-1.272-.137l-.151.166c-.035-.003-.065-.075-.027-.107-.154-.063-.008.104-.082.17-.088.012-.116-.095-.06-.145-.273.14-.775.302-1.062.125l.056-.05c-.223-.066-.252.34-.459.185l.04-.028c-.485-.072-1.021.08-1.391-.17-.069.238-.479-.106-.51.225-.276-.164-.198-.223-.587-.334-.104-.016-.156.207-.284.242l-.003-.174-.175.182-.093-.207-.121.044c.048.01.102.079.095.128-.189.08-.46-.12-.464-.21l-.446.148c.01-.071.084-.095.144-.139-.238.177-.044-.184-.262-.02.03.038-.015.103-.021.138-.108-.106-.356-.106-.539-.062l.035-.12c-.33-.03-.697.058-1.069.056.134.056.104.263-.005.283l-.045-.184c-.069.114.115.07-.03.209-.139-.021-.093-.21-.013-.269l-.169.064c-.01-.055.029-.084.04-.154-.07.114-.291-.184-.391.014l-.009-.054c-.372-.002-.54.06-.842.07-.006.159-.124.123-.215.252-.222-.05-.468-.175-.736-.162-.188.078-.055.134-.139.228-.014-.144-.282-.13-.143-.234-.321.023-.41.029-.816.145.044.06.093.086.068.135-.074.023-.169-.06-.158-.13l.02-.015c-.457.217-1.053-.42-1.416-.12l.02-.015-.377.158c-.172-.026.105-.11-.023-.2-.407.242-.643-.034-.977.126-.26-.425-.92.03-1.27-.24l.02.1c-.089.098-.108-.058-.174-.08.01.077.097.089.041.144-.765.12-1.579-.147-2.364-.237-.287-.028-.163.518-.524.279l.102-.186c-.579.223-1.184-.008-1.75.181.032-.042.033-.098.09-.097-.121-.135-.444-.007-.446.103-.088-.013-.021-.1-.075-.156-.12-.08-.301.173-.365.039-.011-.023.034-.045.056-.055-.079.065-.365-.017-.29.14-.213-.076-.407.069-.577-.024-.11.175-.364-.084-.4.163.016-.255-.372-.205-.507-.086.045-.077-.117-.08-.064-.186-.154.003-.294.051-.268.182-.282-.305-.568.245-.727-.146-.457.137-.879.23-1.289.29.015-.255.454-.026.436-.292-.39.104-.614.323-1 .261-.1-.035.057-.11.091-.153-.39.104-.753-.024-1.099.115.001-.024.039-.05.075-.07-.068.01-.159-.036-.152.08l.067-.032c.109.167-.27.35-.283.438.116-.33-.341-.083-.158-.502-.045.023-.1.078-.091.154-.066-.022-.087-.067-.02-.155-.244.063-.157.186-.38.183.002-.056.047-.077.07-.143-.113.11-.225.218-.412.17.01-.033-.01-.077.045-.076-.32.017-.547.29-.9.185.105-.243-.12-.08-.138-.29l-.19.062.076.102c-.165-.003-.312.15-.455.081l.123-.086-.31.04.176.08c-.168.108.017.266-.203.207.044-.022-.166-.002-.253-.126-.085.066-.158.137-.297.085-.044-.068.022-.233-.007-.278-.095.176-.554.048-.584.236.016-.044-.04-.154-.069-.177-.005.048-.007.096-.005.143-.127-.046-.161-.068-.207-.156-.341-.026.302.266-.143.151.016-.011-.017-.032.022-.054a1.278 1.278 0 0 0-.165-.014c-.008.318.095.65.035.901-.212.049-.053-.322-.231-.27.039.669.254.934.204 1.314l.023-.065c.3.049-.147.263-.006.442-.023-.044-.166-.058-.133-.046-.048.242.074.494.168.861l-.078-.045c-.068.143-.039.375-.074.53.077.046.064.134.176.08-.437.475.235.906-.13 1.328-.001-.05-.067-.12-.067-.08l.07.359c.13-.03.08-.047.18-.123a.297.297 0 0 1 .138.236c-.086-.162-.21 0-.282.07.04-.011.084.013.124.007-.231.188.263.032.107.288l-.07-.014c.036.096.126.184.107.287-.15.043-.07-.102-.194-.109.008.146.285.287.135.419-.042-.062-.043-.151-.085-.212-.177.143-.131.16-.16.266l.004-.011-.08.246.048-.062c.393.181.073.37.33.614-.244-.238-.142-.04-.312-.058-.047.063-.1.157-.148.131.137.115-.11.193.092.355-.055.008-.005.124-.143.099.043.15.096-.036.165-.024.187.232-.229.546.03.878.105.288.291.341.383.607-.088.091-.2-.073-.2-.073-.081.146-.066.255-.004.392-.047-.028-.088 0-.15.042.015.11.2.073.12.219-.062-.026-.16-.058-.221-.11.05.129.153.257.203.391-.096.036-.146-.08-.209-.128.044.15.088.39.24.437l.053-.097c.007.055-.13.028-.157-.012-.12-.13.052-.187.107-.194l.035.096c.323-.098-.052-.383-.033-.576l.235.08-.195-.196c.061-.042.192-.071.227.024.116-.138-.083-.122.046-.24.02-.014.032-.007.04.005l-.07-.135c.05.027.166-.022.133.06.135-.241-.176-.39.002-.48l.014.02c-.08-.335-.172-.032-.374-.284l.424-.169-.172-.033c.006-.034.02-.103.089-.09-.119-.129-.075.022-.187-.053.157-.166-.073-.459.2-.497-.13-.059-.1.16-.191-.018.294-.05-.05-.205.084-.357.153.047.073.19.209.039-.258-.092.055-.297.006-.425-.205-.006-.085-.279-.153-.494.068.014.112-.405.186-.604l.034.005c-.207-.038-.168-.245-.21-.395.123.006.173.033.228.114v-.141c-.067-.034-.102-.078-.126-.17l.155.036c-.009-.188-.182-.379-.08-.62-.143-.014-.401.192-.497-.064.078-.01.21-.019.243.048-.01-.021-.064-.078-.031-.122l.131.102c.058-.11-.11-.058-.097-.146.11.002.079-.065.167-.053.01.023-.046.077-.002.111.02-.099.085-.219.17-.26-.064.01-.15 0-.165-.071-.007-.188.135-.065.192-.175-.078-.045.003-.165-.164-.169.001-.055.079-.065.124-.086-.074-.097-.02-.454-.199-.345l-.011.025-.007-.016c-.165-.319.094-.663.023-.98h.055c-.063-.188-.037-.42-.156-.555 0-.056.1-.131.167-.108-.042-.144-.105-.16-.012-.368.096.144.086-.05.07.148.05-.181.138-.256-.014-.37.142.054.179-.03.136-.084a.385.385 0 0 0-.102.033.253.253 0 0 1 .005-.158l.188.128c.09-.003.048-.053-.012-.168-.032-.091.044-.225.216.006 0-.132-.136-.093-.17-.246.149.025.285.295.285.295.171.104.206-.274.444-.203-.033-.067-.064-.245.126-.308.177.024.217.28.106.333-.043.007-.063-.014-.061-.038-.058.026-.133.053-.062.127l.023-.068c.087.068.33.061.273.171.134-.063.058-.11-.042-.144.228.096.355.002.588.068-.037-.037-.071-.116-.034-.116.343.084.151-.126.383-.155.131.102-.048.243.186.158.143.069.03.177-.027.232.214-.13.398.084.52.108l-.112.054c.067-.032.122-.03.178-.03l-.065-.135c.066.024.122.025.121.08.067-.088-.052-.223.082-.342.088.068.268-.073.298.105-.276-.06.03.177-.203.206.045-.02.1-.02.166.004.01.02-.01.036-.027.047.264.158.12-.202.395-.197-.035.1.063.19.108.169-.11-.003-.053-.168.048-.244.175.077.19-.059.282-.049L87 49.4c.036-.1.123-.087.246-.118.01.078-.111.053-.068.088.136-.176.307.182.496.064.088.067.009.188.085.233.213-.13.23.137.454.03-.064-.135-.076-.102.081-.233l-.366.095.235-.195c-.11-.003-.234.084-.3.06.112-.109.1-.075.048-.187.152.202.3-.117.475.019l-.005.333c.263.148.468-.171.809-.088l-.11-.057c.046-.133.211-.018.322-.072-.01.111.059.151.106.22-.006-.082.25.009.281-.214l.153.147c.276.06.315-.317.58-.28-.08.121.041.2-.137.287.09 0 .168.02.17-.056.051.07.245-.15.327-.044.037-.049.05-.166.149-.156.01.022-.001.055-.001.055 0-.055.156-.075.069-.198.272.347.762-.025 1 .273.193-.038.427-.073.602-.081-.011.033-.001.055-.034.043.242.104.149-.319.424-.204.141.18-.146.098-.058.166.038.366.332-.05.517.164l-.044.021c.142.125.346-.138.576-.112 0 0-.01.032 0 .055.157-.186.458-.248.68-.3-.069.143-.101.075-.058.221.099-.02-.03-.234.17-.275.064.079.208.147.227.303l-.188.008c.097.201.244-.007.342.028l-.012.088c.287-.029.292-.25.601-.234l-.031-.066c.169-.22.142.122.31-.04l.051.222c.112-.053.391-.215.59-.256-.112.164-.347.249-.491.347.11 0 .376-.017.434-.126-.045.02-.102.075-.146.042a.634.634 0 0 1 .536-.258c-.04.432.574.109.734.444.39-.16.774.068 1.229.043-.162-.336.132-.01.104-.355.106-.022.147-.016.156.006l.32.206c.076.1-.1.076-.09.153.232.027.097.146.25.238-.031-.124.081-.177.213-.13l-.186-.158c.324-.184.28.289.606.107l-.102.109c.167-.064.617.001.782-.276.029.04.068.135-.005.16.4.042.891-.295 1.202-.124l-.031.084c.075-.025.13-.158.224-.073-.005.034-.03.083.005.088.039-.028.198-.148.297-.098l-.085.095c.391.11.6-.231.927-.29-.001.249.307.33.46.37l-.005.035c.455.03.772-.206 1.193-.302.262.269.886.112 1.305.263-.063-.045.012-.194.086-.218.098.05.273-.173.257.055l-.035-.005c.074.224.277.164.435.17l.026-.298c.414.433 1.084-.158 1.31.23.099-.075.223-.074.322-.149l-.005.16c.277.042.415.062.757.023l-.069.114c.192.01.243-.46.421-.47l.053.239c.338-.004.677.205 1.01-.01-.005.034-.016.103-.07.113.159.006.613.16.555-.166.005.212.348.02.53-.073l-.029.157c.154-.2.158-.256.373-.311.051.02.045.125-.023.086.169.082.132-.15.337-.065l-.076.1c.173.012.159-.042.255-.16.11-.062.33.04.357.182.023-.086.118-.202.221-.16.014.052-.024.086-.043.103.291.106.433-.183.633-.029.005.051.017.078.034.093-.231-.003-.418-.012-.4-.023 0 .144.187.17.038.37.15-.109.407-.347.589-.279a.171.171 0 0 1 .023.05l-.018.017c.042.014.079.001.115-.023.058.023.095.042.151.043.022.12.214.065.307.07-.008-.158.115-.132 0-.263.014.011-.018.02-.08.025-.014.005-.03.007-.04.017l.007-.014-.232.01c.074-.08.151-.148.254-.06.048-.102.1-.206.13-.256.128.221.373.342.407.477.284-.088.67-.059.849-.356.081-.038.092.086.124.132-.047.03-.103.025-.128.069.162-.077.479-.03.517-.238.204.094-.114.19.166.157l-.038.064c.551.332.896-.531 1.506-.105-.042-.026-.063-.038-.073-.073.697.188 1.435-.177 2.122.122.196.06.216-.072.336-.174l.043.17.203-.195c.289-.144.5.417.866.145l-.048-.115c.132.022.417-.067.395.065.013-.021.043-.12.094-.06l.005.09.322-.153c.25.064-.039.354.326.371.136-.035.386-.26.336-.32-.055-.003-.14-.055-.145-.144l.125-.046c.023-.263.118-.532-.187-.715zM196.926 49.398c-.014-.054.001-.11.041-.108-.022.036.072.069.131.115-.048-.007-.108-.007-.172-.007zm-.224.012-.097.01.097-.013v.003zm-.459-1.044-.007.02a.268.268 0 0 1 .025-.079c.062-.023.083.008.092.041a.805.805 0 0 0-.11.018zm4.92 1.262c.071-.239.486.106.517-.227.28.165.2.224.594.336.105.014.157-.209.287-.243l.003.174.177-.182.094.207.122-.044c-.049-.01-.104-.078-.096-.129.191-.078.465.122.47.21l.451-.146c-.01.07-.085.093-.145.139.241-.178.043.183.264.02-.029-.04.016-.104.021-.139.11.105.36.106.546.062l-.036.12c.335.03.706-.058 1.081-.056-.134-.055-.104-.263.006-.283l.045.184c.071-.114-.115-.07.031-.209.14.022.094.21.013.268l.171-.063c.01.056-.03.083-.04.154.069-.114.294.184.395-.014l.01.055c.375 0 .545-.062.851-.072.006-.157.125-.122.217-.25.225.05.475.175.745.16.191-.078.055-.133.141-.227.014.144.285.13.144.234.325-.024.415-.029.826-.146-.044-.059-.095-.085-.068-.134.074-.024.169.06.159.13l-.02.015c.462-.216 1.065.42 1.432.12l-.02.015.381-.157c.175.025-.106.108.024.198.411-.24.65.035.988-.126.262.426.93-.03 1.283.242l-.02-.1c.091-.099.111.057.178.08-.01-.078-.099-.09-.043-.144.775-.121 1.599.146 2.393.237.29.027.164-.52.53-.28l-.104.187c.586-.224 1.198.008 1.772-.182-.034.042-.035.099-.091.098.121.135.448.006.45-.104.089.013.02.1.075.156.122.08.305-.173.371-.038.01.022-.034.044-.057.054.079-.065.369.017.293-.14.216.075.412-.068.583.023.113-.174.369.085.405-.162-.008.127.087.179.199.183.133.005.086-.037.152-.097-.031.076.008.08-.042.186.016-.003.069-.05.15-.182-.044.121-.028.108.036.071.055-.025.163-.014-.074.142.138-.113.23.489.29.88-.254-.016-.025-.459-.292-.441.104.393.323.62.262 1.01-.035.102-.111-.057-.154-.09.105.392-.023.76.116 1.11-.025-.001-.05-.04-.069-.075.008.07-.038.161.077.152l-.031-.067c.168-.11.351.275.439.287-.331-.117-.083.346-.502.16.022.045.077.102.154.092-.022.067-.068.089-.156.02.063.247.186.16.184.383-.056 0-.078-.045-.144-.069.109.113.218.227.171.416-.034-.01-.077.01-.076-.046.016.325.29.554.184.91-.242-.105-.079.122-.29.14l.063.192.102-.077c-.004.168.15.317.081.46l-.087-.124.04.316.08-.18c.109.17.266-.017.207.206-.021-.045-.002.168-.126.256l-.001-.001c.067.083.138.169.085.293-.067.032-.232-.027-.277-.006.176.083.049.393.236.498-.044-.035-.155-.037-.176-.026l.143.07c-.047.077-.068.088-.156.076-.027.233.266-.075.151.203-.011-.022-.033-.012-.055-.057-.06.279.092.538.021.795-.212.075-.052-.223-.231-.137.039.37.255.765.204 1.123l.024-.067c.299.05-.148.266-.007.446-.022-.044-.166-.057-.133-.045-.048.244.074.5.168.871l-.077-.046c-.068.145-.039.38-.074.537.077.045.063.135.176.08-.438.48.234.917-.131 1.343-.001-.05-.067-.121-.067-.081l.071.363c.13-.029.079-.047.18-.124a.3.3 0 0 1 .138.239c-.087-.164-.21 0-.283.071.04-.01.085.014.125.007-.232.19.262.032.105.291l-.068-.014c.035.097.126.187.106.291-.15.043-.07-.103-.194-.11.009.147.285.29.135.423-.041-.063-.042-.152-.084-.214-.177.144-.132.16-.16.268l.004-.01-.08.249.048-.064c.393.184.072.375.329.622-.244-.24-.141-.04-.312-.058-.047.062-.101.16-.148.131.138.118-.109.196.092.36-.054.009-.005.126-.142.1.042.152.095-.036.164-.023.188.234-.228.551.03.887.105.291.292.345.383.615-.087.092-.199-.074-.199-.074-.082.147-.067.257-.004.396-.048-.028-.089 0-.151.042.015.112.201.075.12.222-.061-.026-.159-.058-.221-.112.051.132.153.26.203.396-.095.036-.145-.081-.208-.13.044.153.086.395.239.442l.054-.097c.007.055-.131.028-.158-.013-.119-.13.052-.188.107-.196l.036.097c.322-.1-.052-.388-.033-.582l.234.081-.194-.2c.06-.042.192-.07.227.025.115-.14-.083-.123.045-.243.021-.013.032-.007.041.005l-.07-.136c.05.027.166-.022.133.062.135-.245-.176-.395.001-.487l.014.02c-.079-.338-.172-.032-.374-.286l.425-.172-.172-.033c.005-.035.019-.104.087-.091-.117-.13-.075.022-.185-.053.156-.17-.074-.465.2-.502-.131-.061-.1.16-.192-.02.295-.05-.05-.207.085-.36.152.046.072.192.207.038-.257-.093.057-.3.008-.429-.206-.006-.085-.282-.153-.5.068.014.111-.41.185-.611l.035.005c-.207-.04-.168-.248-.211-.4.124.006.173.033.229.116l-.001-.143c-.067-.034-.101-.078-.126-.17l.155.035c-.008-.19-.182-.383-.079-.628-.144-.014-.402.194-.497-.065.077-.01.21-.019.243.05-.011-.023-.065-.08-.032-.124l.132.103c.057-.111-.11-.058-.099-.148.112.002.081-.065.169-.053.01.023-.047.078-.003.112.02-.1.086-.222.171-.262-.064.009-.15 0-.165-.074-.008-.19.134-.065.191-.176-.077-.046.003-.167-.163-.17.001-.056.078-.067.124-.088-.074-.098-.022-.46-.199-.349l-.011.025-.008-.016c-.165-.322.095-.67.023-.99h.056c-.063-.191-.037-.426-.157-.562 0-.057.101-.134.168-.11-.042-.146-.105-.162-.013-.373.097.147.086-.05.071.15.048-.19.138-.232-.015-.437.143.07.18-.142.137-.232l-.102.132c-.021-.1-.008-.19.004-.28l.188.049c.228-.389-.388-.7-.006-.997-.132-.102-.093.21-.246.12.025-.18.294-.365.294-.421.104-.245-.273-.23-.203-.486-.066.034-.244.065-.308-.127.025-.18.281-.22.334-.107.007.043-.015.064-.038.062.025.058.053.133.126.063l-.067-.024c.068-.088.06-.334.171-.277-.063-.135-.111-.057-.144.043.096-.23.002-.359.067-.595-.036.038-.115.072-.115.035.083-.346-.126-.153-.155-.387.101-.134.243.047.157-.189.069-.144.178-.03.233.027-.13-.215.084-.402.108-.525l.054.113a.365.365 0 0 1-.031-.18l-.134.065c.024-.067.025-.123.079-.122-.087-.068-.222.053-.341-.083.067-.088-.073-.27.104-.301-.06.279.178-.031.207.206-.021-.046-.02-.101.003-.169.02-.01.037.01.048.028.158-.267-.202-.122-.198-.4.101.035.191-.063.169-.11-.002.113-.168.055-.243-.048.077-.177-.059-.193-.05-.286l-.037.107c-.099-.036-.087-.125-.118-.249.078-.01.054.113.088.068-.175-.137.182-.31.064-.501.068-.09.188-.01.234-.088-.13-.214.137-.231.03-.458-.135.066-.102.077-.233-.082l.095.37-.196-.237c-.002.112.085.236.062.304-.11-.114-.077-.103-.188-.049.202-.153-.118-.304.019-.48l.332.005c.149-.266-.17-.473-.087-.819l-.057.111c-.133-.058-.019-.186-.072-.353.111.01.151-.1.221-.194-.083.032.007-.432-.215-.367l.146-.318c.031-.251-.052-.316-.135-.344-.193.08-.357.162-.511.142.2-.12.069-.2.419-.286-.141-.001-.259-.021-.31.056-.053-.07-.447.15-.522.044-.072.049-.115.166-.244.156-.012-.022.008-.055.008-.055-.013.055-.211.075-.106.198-.29-.347-.776.025-1.019-.273a4.628 4.628 0 0 1-.609.081c.012-.033.001-.055.034-.043-.244-.104-.15.32-.429.203-.142-.179.148-.096.06-.165-.039-.366-.337.05-.524-.164l.045-.02c-.143-.125-.35.138-.584.112 0 0 .012-.033.001-.056-.16.187-.463.249-.688.3.07-.142.102-.075.059-.22-.101.02.03.233-.172.273-.065-.078-.211-.147-.23-.302l.191-.009c-.098-.2-.247.008-.347-.027l.013-.088c-.292.028-.296.25-.609.234l.032.066c-.17.22-.143-.123-.313.04l-.053-.222c-.112.053-.395.214-.597.257.115-.165.352-.25.497-.347-.111-.002-.38.016-.438.126.045-.022.102-.077.146-.042a.64.64 0 0 1-.541.257c.04-.431-.582-.109-.743-.443-.394.16-.783-.07-1.242-.043.163.335-.135.01-.106.354-.107.021-.148.016-.158-.006l-.324-.206c-.078-.1.102-.076.091-.153-.234-.026-.097-.147-.253-.237.032.123-.081.176-.215.129l.188.159c-.328.183-.283-.29-.613-.108l.104-.108c-.17.064-.625-.003-.791.274-.03-.04-.07-.134.004-.159-.405-.042-.9.295-1.216.125l.031-.085c-.076.024-.131.159-.226.073.005-.034.031-.083-.004-.089-.04.03-.201.149-.302.099l.086-.094c-.395-.11-.607.23-.938.288.001-.248-.31-.328-.465-.37l.005-.034c-.46-.03-.781.206-1.207.303-.264-.27-.896-.112-1.321-.264.066.045-.01.194-.086.219-.099-.05-.275.171-.26-.056l.036.004c-.076-.223-.28-.163-.441-.17l-.026.298c-.418-.433-1.097.159-1.325-.229-.101.075-.226.074-.327.148l.007-.159a2.417 2.417 0 0 0-.766-.023l.07-.114c-.195-.01-.246.46-.427.469l-.054-.238c-.34.003-.684-.206-1.021.01.006-.034.016-.103.071-.113-.16-.006-.62-.16-.562.166-.004-.213-.351-.021-.536.073l.03-.157c-.156.201-.16.256-.377.311-.052-.02-.046-.125.022-.085-.17-.082-.132.149-.34.065l.077-.101c-.176-.011-.162.042-.259.16-.11.062-.334-.04-.36-.183-.024.087-.12.203-.224.162-.014-.054.024-.088.043-.103-.294-.107-.438.182-.641.029-.003-.053-.017-.079-.034-.095.235.004.423.013.405.024 0-.145-.189-.17-.038-.37-.152.11-.412.346-.596.279-.009-.015-.017-.028-.024-.051l.019-.017c-.043-.014-.081 0-.117.024-.058-.024-.096-.041-.151-.044-.023-.119-.217-.064-.311-.07.007.16-.116.133 0 .264-.015-.012.017-.019.08-.026.014-.005.03-.007.04-.016l-.006.014.234-.01c-.075.08-.152.148-.257.06a4.493 4.493 0 0 1-.131.256c-.129-.222-.378-.341-.413-.477-.287.089-.677.059-.858.355-.082.039-.094-.084-.124-.131.047-.03.103-.025.129-.068-.164.076-.486.03-.524.237-.206-.093.116-.19-.167-.157l.038-.063c-.557-.332-.906.53-1.523.104.042.025.063.038.073.073-.705-.189-1.452.176-2.147-.123-.198-.059-.219.074-.34.175l-.042-.171-.207.197c-.292.144-.506-.418-.875-.146l.048.114c-.134-.021-.422.068-.399-.064-.014.02-.044.12-.096.06l-.005-.09-.325.154c-.254-.065.039-.354-.33-.371-.137.034-.391.26-.339.318.054.005.141.056.145.145l-.125.046c-.023.263-.12.532.189.715l.214-.16.07.126-.182.01c.103.118.169.012.241-.06.017.068.047.115.09.14l.21-.25c.027.102-.094.203.047.26.1-.117-.094-.23.069-.307.103.12.073.216.194.115.016.067-.009.11-.057.14.107-.08.285-.035.34-.174.107.147.362-.037.352.21.033-.06.189-.194.287-.205-.18.297.37.018.322.337.133-.268.481-.12.718-.268-.013.021-.04.065-.061.051.134.022.172.102.257.153.017-.22.224-.271.336-.407.163.213-.099.259-.048.464-.008-.179.283-.179.228-.328.125.132.107.065.171.246.023-.276.117-.046.219-.215.181.135.048.258.245.175.094.084-.082.182-.082.182.202.004.095-.204.138-.323.24-.06.112.153.193.26.15-.056.266-.247.378-.239.008.034.03.046.004.09.159-.166.472-.009.658-.216.013.018.02.036.023.051a.832.832 0 0 1-.028-.285c.09-.004.168-.132.202.004-.055-.003-.06.051-.086.094l.095-.06c.085.196-.13.068-.13.212.185-.063.4-.224.542-.17.029.192-.331.065-.142.235l-.219-.072c.167.301-.134-.022.021.301.288.056.322-.098.609-.042.065-.106-.021-.157.044-.264.409-.19.322.482.622.227.078-.127.107-.37.322-.242l-.073.217c.279.021.159-.311.451-.166-.052.085-.219.072-.177.098.19.17.134-.123.279-.123l.031.191c.297-.03.625-.168.953-.203-.018.057-.074.117.003.175.414-.095.886.024 1.285.138l.154-.165c.036.001.066.075.028.106.155.063.008-.105.082-.17.088-.011.118.095.061.145.276-.14.784-.303 1.075-.125l-.057.049c.226.067.255-.339.464-.185l-.04.03c.491.071 1.033-.08 1.406.17zM201.272 125.473h57.835V74.458h-57.835v51.015zm-1.127 1.127h60.089V73.331h-60.089V126.6z" fill="#fff"/><path fill-rule="evenodd" clip-rule="evenodd" d="M210.573 115.538h6.491V86.7h-6.491v28.838zM222.33 115.539h6.49V94.186h-6.49v21.353zM233.647 115.539h6.491V90.144h-6.491v25.395zM244.965 115.539h6.49v-15.023h-6.49v15.023zM167.251 53.56a3.39 3.39 0 1 1 0-6.78 3.39 3.39 0 0 1 0 6.78zm-11.57 0a3.39 3.39 0 1 1 0-6.78 3.39 3.39 0 0 1 0 6.78zm-11.993 0a3.388 3.388 0 1 1 0-6.777 3.388 3.388 0 0 1 0 6.776zm35.155-14.524h-47.172a2.634 2.634 0 0 0-2.634 2.633v17.32a2.633 2.633 0 0 0 2.634 2.633h47.172a2.633 2.633 0 0 0 2.634-2.633V41.67a2.634 2.634 0 0 0-2.634-2.633z" fill="#fff"/><path fill-rule="evenodd" clip-rule="evenodd" d="M71.777 210.588s12.836-35.692 27.047-51.935c14.211-16.245 31.208-16.572 31.208-16.572l37.799 7.007s8.469 9.144 16.491 13.034c8.022 3.889 9.867 3.328 13.534 3.328 3.668 0 7.091-1.078 7.091-1.078l1.375 22.65-14.67 16.474s-.687 30.43.917 45.53c1.605 15.1 3.956 25.484 3.956 25.484s-15.54 6.487-52.271 5.358c-19.704-.604-44.642-8.178-44.642-8.178l5.171-52.179s-16.273 2.288-33.006-8.923z" fill="#FFCB57"/><mask id="b" mask-type="alpha" maskUnits="userSpaceOnUse" x="71" y="142" width="136" height="138"><path fill-rule="evenodd" clip-rule="evenodd" d="M71.777 210.588s12.836-35.692 27.047-51.935c14.211-16.245 31.208-16.572 31.208-16.572l37.799 7.007s8.469 9.144 16.491 13.034c8.022 3.889 9.867 3.328 13.534 3.328 3.668 0 7.091-1.078 7.091-1.078l1.375 22.65-14.67 16.474s-.687 30.43.917 45.53c1.605 15.1 3.956 25.484 3.956 25.484s-15.54 6.487-52.271 5.358c-19.704-.604-44.642-8.178-44.642-8.178l5.171-52.179s-16.273 2.288-33.006-8.923z" fill="#fff"/></mask><g mask="url(#b)"><rect x="-33.244" y="-44.373" width="376.219" height="374.111" rx="80" fill="#FFCB57"/></g><path fill-rule="evenodd" clip-rule="evenodd" d="M142.957 116.433s-1.617 14.009-2.946 19.553c-1.329 5.543-10.03 5.826-10.03 5.826s4.453 14.381 18.636 16.375c17.716 2.49 19.133-9.367 19.133-9.367s-3.888-1.228-3.015-6.292c.474-2.748.924-5.386 1.237-7.227.437.038.875.075 1.312.077 5 .026 11.536-3.608 14.658-13.899 1.371-4.52 2.028-9.898 2.334-14.491-.01-.009-.021-.011-.03-.021-2.223-2.248-4.714-.585-4.818-.512a.567.567 0 0 1-.784-.145.563.563 0 0 1 .141-.782c1.042-.723 3.416-1.514 5.574.061l.031-.599c-.985-6.965-4.518-9.303-4.518-9.303-4.406 3.522-10.696 4.23-18.172 6.374-4.717 1.353-7.049 3.351-8.665 5.258-1.616 1.908-3.193 2.076-4.101 1.058-.721-.808-.929-1.885-1.15-3.167a23.748 23.748 0 0 1-.06-.464l-.235.101-.27-.339c-.014-.018-1.448-1.785-4.197-2.198-1.851-.283-4.085.707-5.42 2.397-1.397 1.772-1.642 4.042-.688 6.391 2.266 5.587 9.535 5.106 9.606 5.095a.56.56 0 0 1 .606.518c.002.022-.014.038-.015.059l-4.154-.337zM232.351 174.224l-3.035.409-3.115-1.699s-3.584-1.555-16.51-.248c-12.025 1.217-15.906 5.079-15.906 5.079s-5.508-3.491-18.598-3.164c-7.683.192-18.249 1.844-18.249 1.844l-.782 2.927-.93-.001a1.32 1.32 0 0 0-1.264.924l-.635 2.016a130.68 130.68 0 0 0-3.96-.299l-15.418-22.976s-1.822-2.307-4.443-.888c-3.556 1.924-1.63 4.292-1.63 4.292l13.406 19.413a44.87 44.87 0 0 0-1.26.062c-6.585.424-8.709 2.972-12.745 9.763-4.036 6.792-22.728 30.563-22.728 30.563l.156-2.268s-7.079.793-15.577-1.263c-4.009-.97-8.092-2.668-8.092-2.668s-3.601 16.456 4.258 29.828c7.86 13.371 19.255 11.815 23.503 10.542 4.248-1.274 15.719-11.249 23.366-32.049 7.646-20.8 8.921-22.073 8.921-22.073l7.433-4.696-10.441 33.167a.907.907 0 0 0 .911 1.178l37.145-1.845s.85 2.335 5.099 2.335c4.248 0 5.514-3.839 5.514-3.839l4.854-.798c.108 7.23.366 14.7.911 20.314 2.969 1.847 6.578 3.24 10.276 2.646 8.646-1.389 13.306-7.778 18.344-15.476 3.368-5.147 6.049-10.693 7.462-13.814 1.661-.659 3.03-2.931 3.103-8.42.128-9.634-.9-13.616-3.729-15.415-.511-.325-1.318-.634-2.303-.923l7.605-21.395a.825.825 0 0 0-.917-1.085z" fill="#fff"/><mask id="c" mask-type="alpha" maskUnits="userSpaceOnUse" x="60" y="70" width="174" height="188"><path fill-rule="evenodd" clip-rule="evenodd" d="M167.085 113.442c-.636.827-.707 2.092-.157 2.827.55.735 1.511.66 2.146-.168.636-.827.707-2.093.156-2.827-.549-.735-1.51-.66-2.145.168zM181.004 116.84c.566-.862.587-2.128.046-2.826-.541-.699-1.438-.567-2.004.297-.566.862-.586 2.128-.046 2.826.541.699 1.438.566 2.004-.297zM172.224 125.47l2.245.217c.061.007.122.011.181.011a1.35 1.35 0 0 0 1.09-.518c.295-.384.369-.912.213-1.305l-.532-2.242c-.406-2.636.145-4.889.151-4.91a.565.565 0 0 0-.409-.685.562.562 0 0 0-.684.408c-.025.101-.614 2.488-.164 5.402l.563 2.359a.3.3 0 0 1-.031.284c-.018.024-.071.094-.262.076l-2.252-.219a.564.564 0 0 0-.109 1.122zM168.796 130.066c.298 0 .607-.012.926-.038a.563.563 0 1 0-.089-1.123c-6.043.473-7.759-4.242-7.829-4.443a.568.568 0 0 0-.718-.346.565.565 0 0 0-.347.716c.019.055 1.882 5.234 8.057 5.234zM163.677 107.135a.565.565 0 0 0 .425-.192c.093-.109 2.36-2.623 5.897-.666a.565.565 0 0 0 .545-.988c-4.353-2.401-7.264.882-7.294.916a.562.562 0 0 0 .427.93zM138.217 209.239a.563.563 0 0 0-.717.346c-1.243 3.563-3.467 8.956-5.092 12.894l-.625 1.517c-8.715 21.189-19.433 30.656-22.984 31.722-3.349 1.004-14.893 3.231-22.833-10.288-4.128-7.03-5-15.009-5.004-20.465a.563.563 0 1 0-1.127.001c.004 5.595.903 13.787 5.16 21.035 5.62 9.571 12.992 11.632 18.295 11.632 2.581 0 4.672-.488 5.832-.836 4.921-1.477 15.528-12.496 23.703-32.373l.625-1.515c1.629-3.95 3.86-9.359 5.114-12.953a.563.563 0 0 0-.347-.717z" fill="#393F49"/><path fill-rule="evenodd" clip-rule="evenodd" d="m232.785 174.968-7.422 20.901c-3.855-1.045-10.078-1.868-15.264-2.423l-.485-.052c-3.208-.346-3.97-.427-4.691.85-.874 1.555-.335 3.072.164 3.961-.351.106-.74.292-1.067.618-.519.517-.756 1.24-.709 2.15.068 1.284 1.41 2.868 2.203 3.696a2.232 2.232 0 0 0-.664.884c-.389.95-.146 2.175.723 3.641.235.398.922 1.559 12.171 8.127l-1.887 5.314a.864.864 0 0 1-.627.558l-27.8 4.575 6.363-25.883a.564.564 0 0 0-1.094-.268l-6.721 27.344c-.559 1.011-1.915 2.75-4.651 2.75-3.218 0-4.252-1.392-4.497-1.831l1.783-7.212a.563.563 0 1 0-1.093-.271l-1.733 7.001-36.692 1.824a.375.375 0 0 1-.288-.133.335.335 0 0 1-.056-.313l15.87-50.463c.1-.318.39-.532.723-.532h.002l32.705.059-6.675 26.973a.564.564 0 0 0 1.094.27l6.567-26.535c.806.766 2.341 1.623 5.079 1.351 1.739-.174 2.917-.658 3.724-1.197l-1.011 4.111a.562.562 0 1 0 1.094.269l1.474-5.995 33.098-4.459a.26.26 0 0 1 .243.088.25.25 0 0 1 .047.252zm-82.976 6.351-15.276-22.784c-.731-.926-2.748-2.335-5.152-1.034-1.375.745-2.179 1.66-2.39 2.718-.249 1.256.451 2.241.577 2.403l12.811 18.568c-.084.004-.174.006-.259.011-6.862.442-9.065 3.105-13.18 10.038-2.66 4.479-14.073 19.035-21.378 28.233a.563.563 0 0 0 .036-.268.561.561 0 0 0-.637-.479c-.162.02-16.001 2.086-32.192-8.592 1.484-4.031 13.608-36.307 26.745-51.352 12.652-14.49 27.711-16.175 30.34-16.36.886 2.413 5.951 14.523 18.934 16.348a34 34 0 0 0 4.963.348.563.563 0 0 0-.006-1.127h-.005a32.62 32.62 0 0 1-4.795-.337c-11.896-1.673-16.822-12.478-17.916-15.308 2.235-.215 8.602-1.258 9.787-6.205 1.182-4.933 2.561-16.284 2.886-19.028 1.764.316 3.123.23 3.157.227a.564.564 0 0 0 .517-.606.557.557 0 0 0-.604-.518c-.072.011-7.334.492-9.598-5.096-.953-2.35-.708-4.618.687-6.392 1.333-1.69 3.565-2.68 5.414-2.396 2.748.413 4.181 2.18 4.195 2.198l.269.338s.723 2.723 1.444 3.531c.907 1.018 2.484.85 4.097-1.058 1.615-1.908 3.945-3.906 8.659-5.258 7.469-2.145 13.754-2.852 18.156-6.375 0 0 3.53 2.338 4.514 9.304l-.031.598c-2.156-1.575-4.529-.783-5.569-.06a.564.564 0 0 0 .642.926c.104-.073 2.592-1.735 4.813.513.009.009.021.012.031.02-.306 4.595-.962 9.973-2.332 14.493-3.12 10.292-9.65 13.926-14.646 13.901-4.507-.026-9.095-2.036-12.587-5.514-1.949-1.941-4.053-5.12-5.628-8.501a.562.562 0 1 0-1.021.475c1.627 3.496 3.816 6.795 5.853 8.825 3.304 3.291 7.545 5.329 11.833 5.749-.289 1.746-.332 3.385-.996 6.116-1.757 7.216 15.009 18.411 20.03 20.621 4.58 2.015 14.919 5.251 19.525 1.839l.464 7.64c-6.984 1.313-10.214 3.491-11.189 4.276-1.448-.771-7.128-3.326-18.526-3.042-7.624.19-18.2 1.834-18.305 1.85a.564.564 0 0 0-.457.411l-.67 2.508h-.499c-.826 0-1.549.53-1.798 1.32l-.498 1.586c-.932-.081-2.028-.166-3.239-.242zm-8.101-.188-13.222-19.162-.024-.032c-.005-.007-.532-.687-.363-1.51.147-.71.759-1.36 1.82-1.935.521-.282 1.002-.389 1.436-.389 1.364 0 2.24 1.063 2.267 1.095l14.777 22.041c-2.156-.111-4.501-.175-6.691-.108zm68.11-8.035c12.463-1.264 16.16.181 16.169.181l1.603.875-28.724 3.869-.01.002-.006.001-.345.054-.105.347c-.025.08-.644 1.977-4.396 2.353-3.736.374-4.678-1.638-4.714-1.719l-.144-.344-32.137-.057.497-1.864c1.919-.288 11.041-1.613 17.798-1.781 12.689-.316 18.211 3.043 18.265 3.077a.568.568 0 0 0 .697-.075c.039-.037 3.942-3.744 15.552-4.919zm23.782.893a1.372 1.372 0 0 0-1.275-.474l-2.85.383-2.994-1.633c-.152-.066-3.862-1.598-16.775-.291a58.466 58.466 0 0 0-3.6.475l-.507-8.352c-.002-.039-.022-.072-.031-.109.49-.637.859-1.407 1.062-2.346 1.794-8.296-.896-10.986-5.156-14.349-4.26-3.364-6.726-6.279-1.569-9.193 5.156-2.915 4.932-10.986 1.121-13.677-3.812-2.691-8.296-6.951-6.95-11.211 1.344-4.26 5.551-7.218 2.69-18.162-2.323-8.882-11.658-9.864-11.658-9.864s-5.965-15.31-23.118-14.727c-13.366.452-19.478 6.105-25.293 14.973-3.462 5.28-6.977 13.955-17.728 15.897-12.797 2.311-19.837 5.895-21.3 17.937-.701 5.791-.466 11.105-7.86 13.195-6.315 1.785-15.91 3.577-22.984 10.93-8.71 9.055-8.838 26.547 3.045 35.067 5.671 4.067 10.01 5.168 13.001 5.21-6.66 13.627-11.237 26.286-11.314 26.499a.564.564 0 0 0 .217.658c16.69 11.204 33.181 9.039 33.344 9.015a.542.542 0 0 0 .211-.074c-3.468 4.364-5.96 7.458-6.036 7.553a.563.563 0 1 0 .877.708c.967-1.201 23.731-29.464 27.738-36.213 3.977-6.698 5.935-9.078 12.286-9.488 4.122-.265 9.277.062 12.507.337l-.932 2.96c-.018.001-.035-.005-.054-.002l-12.948 2.024a.562.562 0 1 0 .174 1.113l12.455-1.946-1.029 3.27c-.026.005-.051 0-.076.008l-11.6 3.507a.563.563 0 1 0 .326 1.078l10.947-3.309-1.796 5.71-7.251 4.586-.006.006-.011.004c-5.242 3.581-8.693 2.468-8.738 2.453a.563.563 0 0 0-.375 1.063c.065.022.729.249 1.879.249 1.693 0 4.438-.49 7.87-2.834v-.001l6.109-3.862-9.97 31.698a1.474 1.474 0 0 0 1.477 1.911l36.751-1.828c.465.75 1.86 2.317 5.424 2.317 2.817 0 4.443-1.568 5.286-2.794a.557.557 0 0 0 .355-.393l.078-.319c.078-.147.144-.282.193-.39l28.193-4.64a2 2 0 0 0 1.488-1.291l1.816-5.114c.453.263.917.532 1.403.812a.565.565 0 0 0 .563-.977c-11.999-6.904-13.899-8.672-14.16-9.112-.664-1.121-.891-2.028-.655-2.626.135-.34.395-.508.557-.588l15.561 6.303a.566.566 0 0 0 .733-.31.563.563 0 0 0-.311-.734l-15.67-6.349c-.9-.851-2.272-2.466-2.32-3.403-.031-.572.095-1.004.374-1.287.392-.394.999-.427 1.168-.432l17.211 4.946a.561.561 0 0 0 .697-.386.56.56 0 0 0-.385-.696l-17.116-4.919c-.321-.422-1.294-1.894-.48-3.342.329-.582.356-.631 3.587-.283l.486.053c12.996 1.392 16.692 2.718 17.739 3.384 2.647 1.685 3.587 5.732 3.464 14.931-.064 4.832-1.151 7.609-3.143 8.029a.565.565 0 0 0-.435.668.544.544 0 0 0 .165.284c-1.478 3.203-3.984 8.26-7.051 12.95-5.109 7.815-9.674 13.899-17.945 15.228-3.692.594-7.323-.924-10.279-2.845l.17 1.47c2.481 1.484 5.376 2.636 8.422 2.636.616 0 1.24-.047 1.867-.148 8.725-1.403 13.445-7.673 18.709-15.724 3.301-5.049 5.962-10.52 7.407-13.697 2.081-.976 3.175-3.932 3.24-8.836.13-9.782-.913-13.941-3.986-15.897-.442-.282-1.089-.551-1.879-.808l7.404-20.848a1.378 1.378 0 0 0-.248-1.355z" fill="#393F49"/><path fill-rule="evenodd" clip-rule="evenodd" d="M170.086 77.01c-.283.02-.619.097-.497.306.298-.106.342-.026.671-.146.223.046.359.172.302.227.091-.024.321.14.471.071-.228-.236-.593-.343-.997-.342-.07-.061.023-.087.05-.115z" fill="#fff"/><path fill-rule="evenodd" clip-rule="evenodd" d="M158.309 158.622c.04 0 .083-.005.125-.014 1.475-.332 2.831-.831 4.029-1.484a.563.563 0 1 0-.54-.989c-1.106.602-2.362 1.065-3.737 1.374a.563.563 0 0 0 .123 1.113zM143.89 105.235a3.702 3.702 0 0 0-2.735.854 3.726 3.726 0 0 0-1.332 2.538 3.749 3.749 0 0 0 3.393 4.067l.052.002a.563.563 0 0 0 .049-1.124 2.62 2.62 0 0 1-2.371-2.843 2.6 2.6 0 0 1 .931-1.774 2.583 2.583 0 0 1 1.911-.597 2.601 2.601 0 0 1 1.775.929.563.563 0 1 0 .866-.721 3.723 3.723 0 0 0-2.539-1.331z" fill="#393F49"/></mask><g mask="url(#c)"><rect x="-38.602" y="-48.846" width="379.594" height="378.75" rx="80" fill="#32404D"/></g><mask id="d" mask-type="alpha" maskUnits="userSpaceOnUse" x="65" y="75" width="138" height="94"><path fill-rule="evenodd" clip-rule="evenodd" d="M75.65 144.823c-.064-.024-.057-.095.044-.156-.034.066.216-.055.387-.109l-.43.265zm-.779.533c.046-.038.107-.095.227-.174l.002.003c-.101.063-.18.129-.229.171zm-1.487-.18-.006.029a.204.204 0 0 1 .011-.11c.14-.135.21-.15.25-.14-.07.059-.15.129-.255.221zm95.328-67.914c-.404.034-.533-.168-.544-.227l.289.026c-.221-.378-1.141-.2-1.706-.294l.277-.193-.618.096c-.116-.08-.184-.224.106-.212-.397-.178-.376.014-.716-.15-.038-.024-.019-.032.02-.037l-.416.026c.085-.04-.05-.172.197-.112-.722-.204-1.195.038-1.458-.14l.061-.011c-1.024.039-.111.168-.878.34l-.504-.445-.103.167c-.104-.014-.313-.024-.274-.091-.391.13.066.072-.16.19-.509-.139-1.385.12-1.516-.15-.173.138.49.085-.044.194-.176-.298-.616.116-1.087.03.124-.167.573-.139.095-.22-.249.291-.909.042-1.294.15.015.206-.822.26-1.451.462.014-.033-.299-.012-.685.062-.381.091-.842.208-1.147.265l.006-.037c-.046.242-.671.366-1.078.59-.026-.117.024-.218.245-.343-.14.038-.269.106-.403.164-.07.103-.181.191-.429.327l.041-.187c-.527.257-1.004.618-1.705.877.034.147.686.058.068.538-.061-.054-.15-.156.01-.289-.053.044-.173.179-.305.219l.205-.276c-.317.122-.098.188-.335.314-.051-.1-.211.033-.221-.064.054-.044.224-.08.293-.171-.272.138-.623.27-.772.261.055.041.077.128-.107.255-.493.303-.241-.012-.564.114-.084.13-.437.269-.344.421-.134.103-.203.06-.281.062-.195.244-1.097.877-.721.809l.068-.038-.034.036c-.698.686-1.599 1.246-2.236 1.988l-.04-.039c-.371.448-.883.937-1.052 1.333-.113.127-.339.236-.342.137-.255.362-.242.436-.719.864.21-.4-.164.061.237-.393-.404.407-.558.448-.831 1.018.023-.251-.414.217-.55.457l.331-.246c-.176.25-.354.449-.534.652l-.053-.231c-.915.77-1.005 1.892-1.847 2.364-.083.326.459-.447.412-.134-.346.41-.898.693-1 .828-.526.527-.194.714-.709 1.29.112-.04.311-.008.021.491-.337.418-.616.367-.458.061.071-.107.125-.144.14-.127.082-.154.195-.354.01-.226l.013.096c-.213.174-.644.776-.63.57-.186.367-.013.206.193-.017-.484.501-.635.87-1.101 1.41.096-.072.22-.11.154-.019-.673.794-.164.442-.555 1.026-.319.26-.112-.259-.461.358-.311.304-.196-.033-.138-.202-.278.59-.774.912-1.023 1.177l.166-.296c-.1.177-.203.305-.307.436l.224-.068c-.141.14-.245.27-.286.233-.058.213.271.015.114.406-.217.165-.444.677-.638.636.562-.612-.195-.041.219-.607a1.874 1.874 0 0 1-.313.386c-.033.012-.01-.044.015-.093-.613.518-.071.41-.605 1.035-.009-.145-.268.02-.339.136.216-.249.23-.012.091.269-.402.349-.33.473-.516.676l.232-.215c.005.148-.174.343-.404.63-.079-.029.188-.28.073-.207-.149.418-.761.552-1.061 1.05-.228.145-.153-.112-.342.024-.357.539-.584.385-.981.929.23-.039.232-.087-.012.338l.714-.838-.364.635c.238-.233.439-.553.597-.677-.161.314-.161.266.032.233-.467.176-.561.719-1.031.992l-.218-.253c-.689.406-.901 1.087-1.754 1.66l.29-.163c-.021.188-.476.413-.699.664-.044-.107-.23-.007-.381.027.067.06-.602.434-.545.669l-.452.151c-.698.426-.602.782-1.287 1.192.137-.233-.205-.104.192-.466-.221.142-.428.256-.394.321-.168.015-.558.491-.821.519-.073.096-.047.222-.313.354-.04-.005-.025-.049-.025-.049.025.049-.384.271-.094.267-.874.06-2.066.998-2.851.903-.525.233-1.191.415-1.695.542.026-.039-.01-.054.089-.06-.721.014-.375.405-1.209.402-.437-.139.42-.138.152-.18-.162-.354-.948.142-1.552-.019l.136-.034c-.446-.085-1.049.234-1.756.271 0 0 .031-.035-.002-.055-.462.237-1.352.473-2.012.631.18-.176.29-.126.134-.247-.296.076.131.205-.455.365-.207-.027-.649.019-.745-.117l.56-.155c-.335-.12-.728.197-1.032.24l.015-.094c-.864.241-.793.5-1.697.803l.117.028c-.402.392-.467.011-.868.395l-.234-.132a25.42 25.42 0 0 0-1.481 1.102c.102-.163.297-.362.51-.56l.655-.488c-.156.076-.42.21-.657.347-.23.151-.423.323-.472.415.106-.092.228-.234.362-.279-.264.393-.706.716-1.239 1.135-.082-.211-.449.051-.871.375-.4.35-.814.795-1.122.866-.672 1.053-1.525 1.973-2.042 3.349.496-.353-.144.398.211.433-.103.312-.123.437-.16.456-.159.297-.334.596-.468.908-.152.21-.001-.327-.082-.316-.194.709-.213.264-.414.723.139-.072.12.285.003.688l.26-.546c-.001 1.027-.447.817-.399 1.851l-.069-.333c-.008.534-.21 1.893.017 2.413-.049.085-.154.193-.157-.032-.157 1.197.001 2.701-.324 3.595l-.068-.103c-.012.223.098.41-.035.67-.031-.021-.066-.102-.09-.002.006.119.035.607-.067.887l-.047-.265c-.332 1.11-.154 1.784-.377 2.741-.246-.077-.571.769-.788 1.161l-.027-.027c-.495 1.218-.697 2.141-1.294 3.225-.308.255-.724.732-1.174 1.254l-.752.756c-.268.219-.526.436-.776.596.172-.075.1.168-.058.313-.248.132-.536.597-.626.372l.087-.046c-.3-.084-.734.26-1.145.42l.052.303c-1.19.093-3.01.998-3.768.755-.284.129-.652.196-.933.324l-.013-.16c-.835.118-1.253.174-2.27.427l.185-.154c-.583.107-.633.607-1.158.736l-.213-.195c-.998.239-2.068.29-2.985.789.006-.038.017-.113.174-.168-.468.124-1.848.371-1.581.64-.074-.2-1.016.304-1.513.562l.032-.175c-.383.328-.376.41-.97.694-.153.039-.173-.067.035-.105-.516.114-.323.286-.941.439l.18-.179c-.503.189-.448.212-.666.443-.273.208-.92.421-1.056.332-.026.109-.234.344-.534.451-.063-.028.024-.109.067-.15-.86.305-1.046.845-1.658 1.024-.039-.037-.087-.037-.139-.023.606-.378 1.097-.678 1.057-.64-.071-.125-.578.164-.288-.255-.344.347-.886.968-1.4 1.214-.03.005-.058.011-.088.005l.038-.049c-.112.068-.198.15-.27.237-.157.091-.259.147-.397.251-.126-.055-.57.356-.802.53.119.109-.196.318.167.204-.043.019.031-.048.178-.169.031-.031.07-.064.087-.088l-.007.022c.149-.117.341-.271.56-.445-.132.204-.277.401-.583.525a5.51 5.51 0 0 1-.154.443c-.46.051-1.071.511-1.25.474-.288.341-.677.688-.972 1.069-.289.386-.53.758-.6 1.061-.134.21-.254.157-.35.197.072-.127.189-.252.209-.338-.297.405-.92 1.162-.815 1.39-.443.451.055-.4-.426.319l.018-.132c-.663.579-.895 1.27-1.146 1.946-.285.665-.463 1.379-1.046 2.153.078-.109.116-.164.159-.174-1.01 1.923-1.264 4.225-1.586 6.327-.116.605.083.675.183 1.037l-.163.137.23.617c.048.219.047.426.035.632.01.202-.002.406-.007.619-.011.422.002.886.24 1.411l.083-.17c.06.403.453 1.199.297 1.178.033.034.153.089.147.258l-.08.041c.162.295.282.605.477.88.278.719-.38.028.105 1.062.218.371.755.96.737.787-.07-.154-.14-.414-.067-.467l.207.318c.26-.064.61.045.384-.84l-.415-.488.028-.233.235.465c-.022-.318-.199-.438-.357-.599.04-.072.044-.169.014-.288a3.441 3.441 0 0 1-.453-.472c.073-.105.275.185.2-.219-.197-.231-.129.34-.35-.085.02-.324.14-.269-.067-.569.049-.067.113-.01.184.111-.17-.269-.293-.762-.47-.881.087-.339-.229-1.025.02-1.041-.076-.083-.292-.502-.356-.782.209.235.122-.023.129-.336-.009-.313-.018-.672.145-.614-.143-.18-.191-.524-.227-.906-.038-.382.033-.799-.028-1.144.019.039.056.117.038.175.051-.38.139-.483.207-.72-.23-.073-.217-.675-.264-1.016.303-.427.198.326.43.212-.181-.004-.016-.827-.193-.701.2-.327.123-.293.337-.432-.247-.125-.002-.342-.057-.667.292-.46.29-.055.385-.622.165-.231.102.278.102.278.182-.545-.11-.32-.185-.474.159-.684.243-.257.416-.444.065-.432.07-.793.198-1.092.042-.008.079-.06.088.024.035-.491.54-1.25.662-1.802.036-.025.06-.034.08-.035-.134.024-.234-.016-.29-.069.131-.232.138-.497.305-.514-.087.14-.046.179-.048.267l.09-.271c.293-.115-.135.364-.01.436.216-.496.392-1.141.704-1.435.204.036-.511.826-.051.468-.148.158-.261.338-.394.507.502-.261-.212.322.287.107.456-.69.446-.82.963-1.472.026-.216-.163-.044-.136-.261.557-1.093.968-.416 1.332-1.249.057-.25-.068-.492.452-.863-.002.098.004.203.01.306.588-.555.115-.543.839-1.025-.054.165-.42.489-.313.423.52-.251.202-.355.514-.647l.193.083a25.99 25.99 0 0 1 2.054-1.887c-.013.075-.117.212.106.141a15.008 15.008 0 0 1 1.591-1.017c.577-.279 1.176-.501 1.713-.715l.33-.349c.097-.036.209-.001.118.068.446-.107-.021-.104.156-.243.238-.105.355-.037.223.068.344-.21.85-.489 1.378-.735.542-.225 1.113-.395 1.548-.445l-.145.099c.657-.142.621-.56 1.265-.582l-.106.061c1.413-.348 2.937-.896 4.077-.89.153-.289 1.429-.196 1.454-.541.85-.002.625.104 1.802-.005.312-.043.424-.289.801-.396l.042.169.49-.281.32.149.356-.122c-.148.023-.325-.008-.313-.063.55-.19 1.416-.203 1.459-.133.444-.162.884-.379 1.31-.596-.002.085-.22.186-.385.293.66-.43.204.13.798-.308-.103.004.004-.116.003-.155.368-.039 1.095-.451 1.534-.855l-.023.166c.914-.622 1.684-1.5 2.427-2.426-.313.296-.406.082-.207-.195l.23.009c.052-.244-.28.235-.102-.205.29-.324.353-.104.238.132.1-.152.194-.305.271-.469.062.006.015.127.054.196.025-.248.684-.671.677-1.054l.062.001c.592-1.032.759-1.548 1.112-2.433-.14-.077.027-.409.008-.715.276-.632.628-1.331.822-2.141.069-.586-.087-.198-.117-.475.15-.007.318-.818.325-.376.188-.977.236-1.252.314-2.503-.079.124-.127.271-.164.185.012-.226.139-.499.202-.457l.007.061c-.01-1.407.79-3.156.604-4.272l.008.061-.028-1.135c.097-.506.066.319.206-.045-.066-1.23.335-1.849.47-2.808.15-.151.286-.374.416-.639.118-.27.239-.579.387-.884.126-.318.286-.627.466-.897.163-.282.355-.516.568-.66l-.115-.016c.078-.261.235-.208.365-.34-.076-.029-.238.161-.183.001 1.271-1.811 3.532-2.821 5.668-3.437.779-.251.301-.634 1.387-.687l-.244.256c1.577-.682 3.407-.634 5.059-.958-.096.051-.096.108-.259.122.331.107 1.395-.124 1.371-.234.28-.018.077.093.257.123.392.009.917-.326 1.137-.246.039.011-.093.072-.16.092.229-.117 1.13-.266.859-.356.672-.1 1.202-.444 1.732-.54.254-.297 1.095-.35 1.088-.633.057.245 1.149-.312 1.445-.638-.085.137.356-.111.265.064.416-.242.774-.501.633-.571.908-.217 1.346-1.155 1.957-1.139 1.075-.933 1.995-1.857 2.885-2.747.137.217-1.015.953-.805 1.116.831-.883 1.198-1.495 2.071-2.292.242-.192-.046.2-.089.304.787-.902 1.62-1.649 2.225-2.53.016.017-.039.122-.095.216.13-.164.345-.344.243-.402l-.11.175c-.341.14.275-.858.23-.942.022.482.741-.737.697-.042.073-.119.142-.285.062-.31.147-.143.22-.167.16.052.416-.626.156-.495.578-1.022.043.037-.025.157-.018.253.128-.337.255-.673.648-1.09.004.033.042.032.025.076.534-.762.739-1.461 1.431-2.235.015.397.276-.249.479-.172l.284-.5-.217.125c.296-.405.433-.854.743-1.161l-.149.352.522-.783-.379.383c.213-.474-.247-.114.197-.619-.064.123.299-.404.556-.539l-.001.002c.095-.24.191-.487.456-.752.113-.036.14.203.213.18.007-.303.67-.967.712-1.326-.029.11.056.18.095.168l.012-.25c.178-.156.217-.17.263-.086.45-.535-.347.01.254-.572-.031.059.005.047-.061.167.558-.62.928-1.319 1.467-1.868.305-.04-.382.55-.081.464.663-.878 1.26-1.92 2.005-2.687l-.149.134c-.133-.32.642-.49.923-.953-.077.108-.002.235-.001.188.564-.452.948-1.138 1.752-1.89l-.058.143c.38-.208.91-.655 1.293-.909.062-.145.278-.297.087-.29a6.55 6.55 0 0 0 1.78-1.006c.514-.422 1.077-.742 1.728-.829-.138.062-.299.207-.19.159l.948-.5c-.127-.086-.158-.016-.403-.017.095-.127.352-.31.599-.416-.414.281.073.177.302.2-.048-.028.005-.091-.025-.123.613.047.003-.276.79-.363l-.018.077c.264-.12.493-.289.795-.365.164.106-.274.161-.257.287.404-.155.751-.525 1.179-.45-.174.079-.434.134-.605.213.464.084.499.03.817-.008l-.032.003.732-.073-.191-.008c.227-.247.497-.329.793-.382.3-.035.625-.057.976-.228-.682.324-.1.154-.135.33.192.025.477.045.402.102.33-.165.574.017 1.046-.189.025.054.368-.007.297.133.444-.057-.109-.091-.075-.162.689-.22 1.619.165 2.618-.027.866-.085 1.039-.206 1.854-.228.26.116-.245.176-.245.176.427.12.752.146 1.168.157-.09.034-.012.088.102.169.327.038.251-.162.667-.013-.086.049-.197.13-.364.165.392.004.785-.016 1.188.023.084.116-.267.091-.416.123.447.051 1.157.157 1.327.055l-.269-.126c.163.035.052.148-.072.145zM197.347 148.285l.002-.003.123.087-.125-.084zm-.117 1.245.021-.008a.21.21 0 0 1-.079.037c-.084-.043-.088-.087-.077-.121l.135.092zm-.275-1.407c.048-.008-.044-.122-.088-.215.055.051.127.11.204.17-.017.056-.07.086-.116.045zm5.707 7.745c.024.021.074.062.056.099.009-.226.071-.296.107-.448-.223-.01-.318-.349-.476-.502.173-.311.276.113.466-.006-.159.039-.26-.441-.394-.31.067-.23.009-.186.153-.339-.275.043-.103-.175-.316-.287.033-.328.23-.169.029-.445.008-.175.232.052.223.059-.133-.318-.254-.068-.393-.088-.224-.33.061-.227.098-.396-.161-.206-.413-.287-.487-.455.025-.03.015-.064.075-.051-.281-.133-.423-.643-.756-.774a.14.14 0 0 1 .021-.062.54.54 0 0 1-.208.204c-.077-.118-.263-.128-.184-.253.05.069.098.042.158.049l-.139-.08c.072-.223.179.117.296.032-.234-.192-.569-.354-.663-.56.117-.16.374.365.32.025l.159.317c.073-.392.115.179.219-.209-.252-.396-.391-.356-.655-.732-.149-.005-.094.128-.243.125-.575-.334.005-.704-.508-.87-.179.006-.381.147-.533-.173l.231-.078c-.305-.318-.393.056-.626-.364.115-.008.297.182.267.118-.103-.329-.233-.059-.403-.204l.09-.174c-.374-.276-.842-.512-1.265-.792.057-.028.163-.02.106-.14-.56-.329-1.069-.854-1.501-1.312l-.288-.002c-.042-.033-.038-.12.029-.112-.158-.19-.071.079-.203.064-.116-.07-.09-.182.009-.173-.417-.135-1.169-.444-1.394-.845l.094.009c-.215-.25-.499.045-.648-.263l.065.013c-.495-.505-1.171-.965-1.292-1.549-.253.063-.326-.601-.609-.467-.049-.432.013-.348-.102-.884-.042-.135-.276-.11-.383-.265l.16-.066c-.091-.051-.161-.11-.245-.169l.162-.185-.09-.145c.009.065-.034.155-.086.16-.171-.233-.024-.647.066-.66-.076-.188-.168-.38-.201-.582.07.012.093.111.137.186-.174-.309.184-.062.023-.345-.04.039-.104-.022-.139-.029.087-.147.128-.466.131-.717l.111.066c.032-.213.085-.434.145-.667.039-.236.124-.472.24-.698-.128.139-.301.02-.251-.131l.191.025c-.059-.14-.131.115-.167-.132.104-.171.241-.02.247.104l.043-.24c.053.014.056.078.111.124-.061-.146.373-.239.275-.461l.053.019c.258-.434.412-.629.663-.971-.114-.113.019-.22.028-.396.278-.188.602-.361.895-.617.166-.233-.023-.154.014-.304.109.098.408-.157.313.05.35-.309.447-.394.892-.896-.092-.003-.17.026-.169-.037.077-.092.246-.119.278-.054l-.015.03c.423-.586 1.572-.846 1.726-1.554l-.01.036a2.99 2.99 0 0 0 .236-.616c.172-.246.002.213.19.066.085-.368.221-.602.318-.866.117-.248.228-.495.174-.82.27-.208.255-.674.171-1.132-.127-.446-.308-.869-.342-1.203l-.073.076c-.159-.102-.034-.202-.068-.324-.06.054-.002.202-.093.137-.738-1.111-1.526-2.178-2.423-3.072-.333-.318-.526.231-.818-.309l.243-.045c-.858-.408-1.461-1.118-2.189-1.526.065.002.104-.039.163.017-.039-.219-.473-.44-.554-.364-.085-.098.048-.092.03-.189-.064-.181-.429-.194-.396-.355.004-.026.065.005.094.021-.128-.035-.353-.395-.393-.212-.143-.286-.439-.409-.526-.658-.234-.026-.245-.479-.476-.376.211-.126-.143-.557-.338-.668.1.015-.022-.186.109-.176-.121-.184-.263-.335-.356-.239.094-.506-.614-.626-.328-1.008a5.998 5.998 0 0 1-.835-1.684c.236-.029.173.637.434.54-.261-.497-.517-.791-.538-1.357.023-.149.116.07.163.112-.162-.548-.066-1.073-.173-1.578.025.003.049.058.067.109-.006-.098.042-.226-.073-.222l.029.099c-.173.155-.342-.42-.41-.451.307.202.148-.498.528-.179-.014-.067-.057-.156-.135-.151.034-.094.083-.117.157-.008-.012-.359-.164-.257-.1-.577.055.011.059.08.118.124-.071-.178-.137-.364-.027-.624.028.024.078.004.058.083.076-.463-.071-.865.207-1.333.177.229.134-.142.338-.092.01-.096.021-.191.044-.283l-.141.065c.105-.223.056-.485.208-.652l.002.203.157-.439-.182.206c.008-.276-.252-.087-.059-.369-.01.069.11-.223.266-.304v.001c-.013-.152-.031-.302.086-.463.081-.024.201.123.255.109-.121-.188.189-.613.048-.82.034.065.138.096.164.083l-.12-.142c.064-.111.088-.124.171-.084.085-.364-.279.06-.098-.35.007.036.03.024.04.099.116-.431.083-.85.117-1.247.211-.113.056.357.232.228-.06-.6-.222-1.219-.293-1.767l-.008.106c-.307-.037.086-.43-.096-.691.032.065.176.062.142.049.007-.396-.231-.757-.466-1.285l.092.048c.003-.233-.1-.588-.161-.822-.096-.044-.131-.177-.208-.063.168-.855-.696-1.242-.639-1.974.032.073.137.146.112.088l-.29-.485c-.1.096-.042.101-.087.25-.099-.032-.214-.15-.272-.275.18.191.192-.093.204-.219-.028.033-.084.019-.117.045.077-.362-.256.071-.296-.349l.07-.013c-.098-.116-.24-.196-.295-.347.103-.129.133.108.248.06-.11-.198-.453-.261-.413-.514.08.066.144.188.224.254.053-.28.007-.286-.051-.443l.005.017-.12-.372.006.109c-.481-.053-.347-.465-.756-.664.392.195.152-.019.313-.08-.008-.11-.036-.266.026-.253-.211-.083-.066-.313-.372-.424.04-.039-.097-.166.041-.205-.161-.176-.051.098-.121.118-.346-.206-.255-.845-.764-1.13-.337-.313-.531-.278-.846-.558-.009-.164.229-.023.229-.023-.063-.229-.174-.359-.347-.495.063.007.07-.053.083-.142-.112-.13-.226.025-.295-.203.072-.006.181-.024.279.007-.16-.133-.362-.23-.526-.366.043-.102.191.012.285.034-.175-.161-.432-.434-.598-.396l.049.15c-.057-.063.077-.114.137-.08.214.088.131.262.094.304l-.117-.096c-.167.316.398.44.557.694l-.261.038.333.133c-.011.089-.092.2-.205.102.028.24.176.104.176.327-.005.028-.019.027-.037.018l.176.128c-.063-.005-.115.123-.161 0 .106.377.483.393.415.608l-.029-.018c.351.383.17-.056.553.154l-.21.449.173-.052c.025.048.071.142.002.163.203.105.045-.068.199-.03.003.3.435.559.233.752.16.01-.044-.26.178-.076-.212.22.214.24.214.513-.164.014-.21-.215-.207.054.291-.009.176.421.314.565.182-.092.286.327.506.582-.069.014.182.605.254.909l-.035.007c.209-.039.325.257.458.447-.117.046-.172.027-.28-.059l.091.194c.08.018.139.064.217.182l-.163.015c.122.255.398.452.451.828.143-.034.251-.425.5-.099-.066.043-.184.106-.255.025.022.027.11.084.104.16l-.184-.094c.014.176.14.038.174.169-.103.039-.039.123-.128.137-.021-.028.003-.127-.054-.158.033.149.032.344-.027.43.055-.035.14-.053.191.045.104.267-.092.139-.091.313.096.039.082.235.241.186.027.079-.04.118-.073.162.133.112.224.646.347.437l.001-.04.013.02c.271.429.194.992.329 1.447l-.055.01c.105.269.131.617.28.806.013.085-.071.208-.141.178.075.21.115.234.034.549-.1-.211-.086.078-.073-.218-.046.283-.134.34.021.639-.143-.102-.176.202-.131.333l.098-.188c.017.147.029.28-.015.405l-.176-.083c-.332.483.267 1.066-.257 1.362.073.174.195-.249.297-.088-.119.238-.466.391-.492.459-.217.272.154.396-.065.725.082-.017.26.022.195.316-.136.238-.396.192-.371.008.023-.064.056-.084.075-.072.016-.093.04-.214-.072-.144l.045.062c-.119.097-.275.454-.336.327-.032.222.062.127.159-.002-.236.292-.25.507-.423.843.054-.045.145-.068.125-.012-.257.488.04.269-.051.625-.165.166-.207-.145-.247.232-.127.202-.19-.003-.208-.106.026.366-.237.608-.311.8l-.01-.193c.006.115-.016.203-.037.294l.154-.075c-.047.1-.068.189-.122.176.06.124.236-.037.304.196-.105.124.012.434-.175.456.118-.435-.182.023-.161-.362a.548.548 0 0 1-.039.27c-.021.014-.034-.02-.04-.052-.213.413.173.228.113.668-.093-.066-.202.086-.191.161.027-.18.173-.07.237.098-.085.28.05.312.038.459l.04-.167c.098.061.082.199.11.394-.079.017-.05-.178-.087-.109.173.215-.201.496-.045.798-.056.146-.186.027-.222.156.166.334-.119.396.05.747.113-.125.077-.135.254.095a3.677 3.677 0 0 1-.173-.577c.079.12.144.24.234.353-.028-.174-.12-.362-.11-.471.125.169.09.152.193.057-.188.266.166.456.088.746l-.329.051c-.074.46.313.712.4 1.258l.004-.188c.15.032.111.321.219.472-.11.022-.108.138-.143.234.073-.037.145.382.368.343l-.042.286c.136.432.511.314.663.703-.164-.054-.145.155-.352-.059.065.128.106.253.173.217-.027.113.334.261.308.427.073.025.182-.02.257.117-.01.027-.046.03-.046.03.046-.029.191.167.223-.016-.053.555.702.96.723 1.422l.697.652c-.036.01-.041.037-.069-.008.195.346.387-.051.612.329.039.279-.237-.084-.183.058-.207.306.422.317.496.672l-.067-.032c.082.254.513.245.777.497 0 0-.034.014-.036.042.311.016.708.235 1.012.406-.172.048-.17-.034-.207.12.133.077.109-.214.374-.056.029.124.158.315.084.454l-.228-.173c-.011.25.293.226.388.347l-.07.057c.357.251.498.09.848.405l.007-.081c.343.001.079.235.378.285l-.095.216c.163.069.577.246.813.442-.24-.011-.534-.206-.766-.276.127.109.406.378.545.365-.062-.033-.158-.055-.178-.127.256.027.529.149.728.415-.182.117-.07.298.073.496.129.205.271.443.19.618.382.395.401.959.406 1.479.317-.203.029.163.353.143.001.147-.012.203-.036.214-.095.135-.154.265-.284.376-.13.063-.029-.143-.107-.149-.127.263-.183.074-.331.211.127.007.135.155.035.287.079-.047.146-.1.224-.155.036.475-.424.192-.453.649l-.026-.173c-.016.231-.494.643-.421 1.013-.06.004-.168-.023-.111-.112-.221.182-.395.454-.576.71-.196.244-.411.457-.641.534l-.016-.094c-.071.087-.054.245-.213.263-.015-.033-.015-.095-.058-.068-.022.055-.154.312-.307.371l.049-.16c-.558.317-.628.76-.95 1.177-.167-.184-.586.107-.796.256l-.019-.03c-.528.553-.682 1.113-.955 1.756-.478.225-.777 1.271-1.07 1.951.062-.101.186.061.191.189-.077.162.1.479-.122.426l.013-.059c-.255.098-.212.468-.21.746l.297.042c-.241.356-.102.833.009 1.237.17.392.297.74.213.981.137.127.223.32.357.438l-.147.063c.18.434.282.658.642 1.109l-.163-.029c.191.271.617.054.795.273l-.131.222c.365.408.614.972 1.173 1.162-.029.021-.087.062-.16.009.177.194.684.76.804.443-.121.177.437.362.713.434l-.125.104c.308-.029.345-.069.646.075.038.046.011.101-.031.089.134.122.225-.017.41.208l-.153.013c.209.166.223.109.411.101.174.046.387.329.333.467.079-.049.265-.054.366.072-.014.056-.081.048-.113.045.291.35.641.249.784.562-.027.045-.028.078-.017.106-.271-.223-.494-.399-.466-.392-.087.116.124.305-.177.33.249.046.693.105.87.328.001.019.003.039-.003.062l-.032-.005c.04.05.093.076.15.09.054.073.088.12.151.176-.051.113.203.258.305.353.093-.128.217.011.171-.2.009.022-.032-.004-.108-.059-.019-.01-.039-.025-.056-.027l.016-.004a54.385 54.385 0 0 0-.273-.218c.136.007.268.033.33.202.12-.032.249-.059.315-.067.005.296.21.624.155.761.365.23.774.634 1.165.628.11.061.035.162.031.226-.069-.03-.123-.094-.178-.091.219.123.509.501.704.406.137.289-.254-.004.046.29l-.084-.002c.125.427.437.591.74.799.274.219.597.461.618.964-.004-.069-.007-.103.017-.13.333.953.985 1.946.679 2.963-.079.273.052.308.141.495l-.172.04c.061.104.12.213.149.322.014.22-.137.381-.272.542-.125.166-.252.327-.26.615l.136-.016c-.105.165-.21.586-.313.495.011.027.077.115-.008.154l-.08-.039c-.013.173-.08.322-.127.484-.271.268-.263-.241-.584.179-.084.178-.123.621-.035.598.051-.063.165-.135.238-.086l-.073.184c.185.192.294.498.731.203l.074-.379.169-.017-.165.244c.194-.066.171-.216.18-.352a.255.255 0 0 0 .201-.042l-.014-.414c.111.018.086.234.265.071-.028-.206-.266.022-.214-.257.177-.09.242-.002.239-.227.072.005.092.063.083.148.008-.198.178-.442.09-.58.226-.096.206-.555.419-.465-.04-.076-.1-.368-.069-.527.21.367.177-.593.469-.46-.248-.272-.046-.854-.194-1.254z" fill="#fff"/></mask><g mask="url(#d)"><path fill="#fff" d="M43.282 53.22h173.11v142.824H43.282z"/></g></svg>